<?xml version="1.0" encoding="UTF-8"?>
<svg version="1.1" xmlns="http://www.w3.org/2000/svg" width="2610" height="1111">
<path d="M0 0 C290.4 0 580.8 0 880 0 C880 117.15 880 234.3 880 355 C589.6 355 299.2 355 0 355 C0 237.85 0 120.7 0 0 Z " fill="#006AB4" transform="translate(1730,0)"/>
<path d="M0 0 C1.34111343 0.00539291 1.34111343 0.00539291 2.70932007 0.01089478 C3.64580887 0.01074875 4.58229767 0.01060272 5.54716492 0.01045227 C8.65845007 0.01115179 11.76967617 0.01894602 14.88095093 0.02676392 C17.0318651 0.02862796 19.18277971 0.03005192 21.33369446 0.03105164 C27.00711225 0.03487792 32.68050463 0.04470914 38.35391235 0.05575562 C44.13831234 0.06596736 49.92271641 0.07054875 55.7071228 0.07559204 C67.06585796 0.08633131 78.42457421 0.10340906 89.78329468 0.12442017 C90.7444293 3.14998769 91.70348989 6.17620889 92.66220093 9.20254517 C92.93213867 10.05219849 93.20207642 10.90185181 93.48019409 11.7772522 C95.31013069 17.55834666 97.01657204 23.3639696 98.65438843 29.20254517 C100.12188573 34.36570594 101.71193149 39.49215187 103.28329468 44.62442017 C105.51958893 51.93312698 107.69880537 59.24926478 109.77548218 66.60488892 C111.73071649 73.43305215 113.80104672 80.22728958 115.85018921 87.02774048 C117.50817495 92.53006678 119.16432161 98.03294201 120.81811523 103.53652954 C121.38996429 105.43845472 121.96295342 107.340037 122.53598022 109.24160767 C124.3438002 115.25669586 126.12142588 121.27791709 127.83798218 127.31973267 C129.57867542 133.44522104 131.41005044 139.53836358 133.28329468 145.62442017 C135.51141645 152.90248009 137.68861551 160.18632487 139.74423218 167.51504517 C140.5776511 170.4100793 141.43953936 173.29119545 142.32235718 176.17129517 C142.5942688 177.06179565 142.86618042 177.95229614 143.14633179 178.86978149 C143.68183127 180.61836096 144.22147382 182.36567893 144.76596069 184.11148071 C146.1962062 188.79071357 147.23984251 193.25954114 147.78329468 198.12442017 C148.44329468 198.12442017 149.10329468 198.12442017 149.78329468 198.12442017 C149.82878952 197.5395433 149.87428436 196.95466644 149.92115784 196.35206604 C150.5170489 189.55739202 151.69307389 182.98842461 153.08407593 176.31582642 C153.31620285 175.18172836 153.54832977 174.04763031 153.78749084 172.87916565 C154.55233637 169.14745828 155.32411472 165.41721967 156.09579468 161.68692017 C156.63924105 159.04392217 157.18105399 156.40059034 157.7227478 153.75723267 C158.70641169 148.95928721 159.69163685 144.16166788 160.67893791 139.36446953 C163.15541834 127.33027805 165.60205378 115.29005471 168.04684448 103.24938965 C168.78385236 99.62167513 169.52212568 95.99422047 170.26083374 92.36685181 C172.60450808 80.85687842 174.942572 69.34582596 177.26391602 57.83132935 C178.22475637 53.06550793 179.18801512 48.30017618 180.15180397 43.53495026 C180.80843444 40.28742686 181.46324341 37.03956048 182.11557007 33.79116821 C182.83608512 30.20364778 183.56117879 26.61707954 184.28720093 23.03067017 C184.60051109 21.46119629 184.60051109 21.46119629 184.92015076 19.86001587 C185.12192429 18.86767944 185.32369781 17.87534302 185.53158569 16.85293579 C185.70190811 16.00718994 185.87223053 15.16144409 186.04771423 14.29006958 C187.1529695 9.53348488 188.49841161 4.83565808 189.78329468 0.12442017 C213.54329468 0.12442017 237.30329468 0.12442017 261.78329468 0.12442017 C256.02659355 30.05926602 256.02659355 30.05926602 254.03329468 39.18692017 C253.79143433 40.30735718 253.54957397 41.42779419 253.30038452 42.58218384 C251.77988292 49.60569911 250.23298276 56.62327326 248.68173218 63.64004517 C247.92342868 67.07222858 247.16564738 70.50452682 246.40829468 73.93692017 C246.21710052 74.80312988 246.02590637 75.6693396 245.82891846 76.5617981 C242.97718729 89.49891268 240.23852659 102.45555352 237.59579468 115.43692017 C237.42919342 116.25514252 237.26259216 117.07336487 237.09094238 117.91638184 C236.92569061 118.72809845 236.76043884 119.53981506 236.59017944 120.37612915 C236.26396692 121.97843236 235.93771432 123.58072742 235.61141968 125.18301392 C235.45382675 125.9568895 235.29623383 126.73076508 235.13386536 127.52809143 C232.13138403 142.24602339 228.93636576 156.9226854 225.69345093 171.58926392 C224.93127575 175.03838201 224.16955591 178.48760024 223.40829468 181.93692017 C223.21682861 182.80430817 223.02536255 183.67169617 222.82809448 184.56536865 C219.97664388 197.50130175 217.23868993 210.45682963 214.59579468 223.43692017 C214.34838531 224.65129257 214.34838531 224.65129257 214.09597778 225.89019775 C213.76820412 227.49908653 213.44044514 229.10797829 213.11270142 230.71687317 C212.95372375 231.49718399 212.79474609 232.27749481 212.63095093 233.08145142 C212.47439026 233.84995926 212.31782959 234.6184671 212.15652466 235.41026306 C210.64479956 242.82128617 209.10325436 250.22549756 207.53329468 257.62442017 C207.31133423 258.68443237 207.08937378 259.74444458 206.86068726 260.83657837 C205.10888819 269.03839069 202.95279423 276.98879686 200.78329468 285.12442017 C169.10329468 285.12442017 137.42329468 285.12442017 104.78329468 285.12442017 C102.80329468 278.19442017 100.82329468 271.26442017 98.78329468 264.12442017 C97.52859347 259.97201444 96.26529848 255.82651818 94.97079468 251.68692017 C92.02221939 242.18149361 89.13256096 232.66007876 86.28329468 223.12442017 C83.48928364 213.77864707 80.66404677 204.44382533 77.78329468 195.12442017 C74.50919309 184.53250585 71.3144618 173.91808494 68.13876343 163.29629517 C65.72313046 155.22758299 63.27061494 147.1713044 60.78329468 139.12442017 C57.78078205 129.40831354 54.82946647 119.67772188 51.90829468 109.93692017 C51.61825562 108.97048584 51.61825562 108.97048584 51.32235718 107.98452759 C50.76963104 106.14202824 50.21785349 104.29924441 49.66610718 102.45645142 C49.33256226 101.34608521 48.99901733 100.23571899 48.65536499 99.09170532 C47.94562572 96.6767638 47.28712337 94.25832791 46.65048218 91.82363892 C46.3643103 90.93289673 46.07813843 90.04215454 45.78329468 89.12442017 C45.12329468 88.79442017 44.46329468 88.46442017 43.78329468 88.12442017 C43.74808716 88.72778198 43.71287964 89.3311438 43.67660522 89.95278931 C43.03892957 98.64041829 41.34692518 107.04897982 39.59579468 115.56192017 C39.31339579 116.96090831 39.0314936 118.3599968 38.75009155 119.75918579 C37.36515689 126.60645068 35.93533919 133.44313244 34.45492554 140.27041626 C30.46868136 158.6589047 26.78085205 177.09536648 23.17288208 195.56100464 C17.32553254 225.48298244 11.17250066 255.30812559 4.78329468 285.12442017 C-18.97670532 285.12442017 -42.73670532 285.12442017 -67.21670532 285.12442017 C-65.96338408 276.9778321 -64.66137671 268.99182853 -62.93154907 260.95645142 C-62.71469452 259.93476364 -62.49783997 258.91307587 -62.27441406 257.86042786 C-61.57122271 254.55182557 -60.86283621 251.24436129 -60.15420532 247.93692017 C-59.65872678 245.61211003 -59.16353197 243.2872394 -58.66860962 240.96231079 C-57.42264957 235.11364824 -56.17229462 229.26593449 -54.92092896 223.41842651 C-54.06228698 219.40212829 -53.2071705 215.3850861 -52.3526001 211.36791992 C-48.7369643 194.37376721 -45.07272706 177.39228823 -41.27920532 160.43692017 C-36.41721909 138.70341058 -31.82204184 116.91349184 -27.21670532 95.12442017 C-26.7590297 92.95954245 -26.30134733 90.79466617 -25.84365845 88.62979126 C-25.14623489 85.33080609 -24.44884508 82.0318138 -23.75154114 78.73280334 C-21.68864001 68.97328433 -19.62370848 59.21419622 -17.55703735 49.45547485 C-16.66106698 45.22458971 -15.76632668 40.99344704 -14.87246704 36.76211548 C-13.81392959 31.7527019 -12.75154796 26.74411836 -11.68621826 21.73614502 C-11.29237313 19.88175128 -10.89983889 18.02707862 -10.50866699 16.17211914 C-9.97472067 13.64114249 -9.43617587 11.11118864 -8.89639282 8.58145142 C-8.73964584 7.83316071 -8.58289886 7.08487 -8.42140198 6.31390381 C-7.04859788 -0.07504175 -6.55184165 0.01113115 0 0 Z " fill="#FEFEFE" transform="translate(1822.2167053222656,34.875579833984375)"/>
<path d="M0 0 C25.41 0 50.82 0 77 0 C75.87504572 10.12458856 75.87504572 10.12458856 74.98779297 14.34741211 C74.78999237 15.29925888 74.59219177 16.25110565 74.38839722 17.23179626 C74.17514801 18.23682693 73.9618988 19.2418576 73.7421875 20.27734375 C73.40624069 21.8861013 73.40624069 21.8861013 73.06350708 23.52735901 C72.33787254 26.99822904 71.60648193 30.46785807 70.875 33.9375 C70.37326122 36.33193978 69.87196157 38.72647163 69.37109375 41.12109375 C68.62045809 44.70938039 67.86949468 48.29759492 67.11688232 51.88546753 C65.6695119 58.78646676 64.23414355 65.68970762 62.8203125 72.59765625 C62.58077347 73.76747292 62.58077347 73.76747292 62.33639526 74.96092224 C61.75311641 77.81165888 61.17039022 80.66250405 60.590271 83.5138855 C60.20740854 85.39495804 59.82248914 87.27561156 59.4375 89.15625 C59.22996094 90.17525391 59.02242187 91.19425781 58.80859375 92.24414062 C57.60309466 97.84359652 56.28793932 103.41892961 55 109 C85.03 109 115.06 109 146 109 C147.32 101.74 148.64 94.48 150 87 C150.83046506 82.81125473 151.66995291 78.63069249 152.55078125 74.453125 C152.77267624 73.38850037 152.99457123 72.32387573 153.22319031 71.22698975 C153.91699118 67.90076907 154.61455316 64.57535289 155.3125 61.25 C159.57983314 40.84101541 163.79543021 20.4221961 168 0 C193.41 0 218.82 0 245 0 C240.46757085 26.06146761 240.46757085 26.06146761 237.6875 38.25 C237.07336568 40.98723253 236.46515915 43.72575192 235.859375 46.46484375 C235.62878639 47.50707344 235.62878639 47.50707344 235.39353943 48.57035828 C233.62371046 56.62743697 232.03190313 64.71924787 230.4375 72.8125 C228.47123944 82.77904395 226.44088627 92.71845507 224.1875 102.625 C221.31298104 115.29556404 218.71286674 128.01834059 216.125 140.75 C215.80205963 142.33822067 215.80205963 142.33822067 215.47259521 143.95852661 C214.18181426 150.30918096 212.89362798 156.6603598 211.60601807 163.01165771 C210.01379506 170.86308593 208.4170839 178.71358827 206.8125 186.5625 C206.6499472 187.3580127 206.48739441 188.15352539 206.31991577 188.97314453 C203.85003689 201.04283408 201.24921416 213.07944325 198.58227539 225.10693359 C196.02340355 236.7197673 193.6823102 248.37263585 191.39624023 260.04199219 C191.2582048 260.74308609 191.12016937 261.44417999 190.97795105 262.16651917 C190.60741008 264.05033456 190.23962191 265.93469086 189.87207031 267.8190918 C188.67335419 273.56601611 187.32006242 279.27972949 186 285 C160.59 285 135.18 285 109 285 C110.27153001 277.37081996 111.58511411 269.80353021 113.13671875 262.234375 C113.33689102 261.25033691 113.53706329 260.26629883 113.74330139 259.25244141 C114.38881896 256.0844343 115.0378944 252.91717118 115.6875 249.75 C115.90998413 248.66174927 116.13246826 247.57349854 116.36169434 246.45227051 C119.29881283 232.09132636 122.28842619 217.74475933 125.4909668 203.44042969 C128.49264453 189.9905476 131.20624664 176.50314126 134 163 C103.97 163 73.94 163 43 163 C41.68 170.59 40.36 178.18 39 186 C37.97595706 190.91092126 36.92837815 195.79884256 35.8125 200.6875 C35.20218099 203.40778514 34.59806392 206.12941855 33.99609375 208.8515625 C33.83808289 209.56576859 33.68007202 210.27997467 33.51727295 211.01582336 C30.9638991 222.63287991 28.64050436 234.29945018 26.28442383 245.95776367 C23.64041896 259.00220251 20.82819652 271.99029601 18 285 C-7.41 285 -32.82 285 -59 285 C-53.28293402 255.27125691 -53.28293402 255.27125691 -50.34887695 241.40917969 C-49.58320079 237.79164735 -48.8227491 234.17302028 -48.06173706 230.55450439 C-47.65780096 228.6341618 -47.25360478 226.71387389 -46.84915161 224.79364014 C-44.54808428 213.86617929 -42.27445081 202.93302547 -40 192 C-37.58091346 180.37461848 -35.16017967 168.74961909 -32.71875 157.12890625 C-31.97903942 153.60679754 -31.23945412 150.08466256 -30.5 146.5625 C-30.22763519 145.26546646 -30.22763519 145.26546646 -29.94976807 143.94223022 C-26.64398097 128.18818588 -23.43342945 112.41539886 -20.23098755 96.64007568 C-17.47611572 83.08242734 -14.63137281 69.55297874 -11.62817383 56.0480957 C-7.50818083 37.41712824 -3.79812157 18.69844466 0 0 Z " fill="#FEFEFE" transform="translate(2112,35)"/>
<path d="M0 0 C-0.64868392 3.55405486 -1.54701533 6.90980224 -2.67407227 10.34106445 C-3.18448814 11.90211662 -3.18448814 11.90211662 -3.70521545 13.4947052 C-4.07190842 14.6063353 -4.43860138 15.71796539 -4.81640625 16.86328125 C-5.38028297 18.58396065 -5.38028297 18.58396065 -5.95555115 20.33940125 C-7.1551766 23.99799023 -8.35878575 27.65525448 -9.5625 31.3125 C-10.3772161 33.79483558 -11.19167234 36.27725647 -12.00585938 38.75976562 C-14.00089353 44.84083629 -15.9991988 50.92082454 -18 57 C-19.43041937 56.52669583 -20.86053657 56.05247838 -22.29052734 55.57788086 C-23.08695648 55.31389999 -23.88338562 55.04991913 -24.70394897 54.77793884 C-26.59797292 54.13621321 -28.47713807 53.45080764 -30.3515625 52.75390625 C-47.51691305 46.50637413 -64.7768629 44.62752171 -82.9375 44.5625 C-83.66690796 44.5563266 -84.39631592 44.5501532 -85.14782715 44.54379272 C-98.67339756 44.4700979 -112.94183158 45.29814244 -125 52 C-126.0725 52.53625 -127.145 53.0725 -128.25 53.625 C-132.86432941 57.61010267 -135.40787847 62.58114177 -136.44921875 68.59375 C-136.75787444 75.49060809 -134.92548832 80.51250997 -130.515625 85.76953125 C-121.22736 94.87285292 -107.49622921 99.25530198 -95.70507812 104.04373169 C-60.21238513 118.46092127 -60.21238513 118.46092127 -48 130 C-47.23945313 130.67160156 -46.47890625 131.34320313 -45.6953125 132.03515625 C-32.33001768 144.43292973 -25.49354521 161.85944495 -24.6640625 179.9375 C-24.19717137 206.28976393 -31.58530443 228.722634 -50 248 C-50.54011719 248.61488281 -51.08023438 249.22976563 -51.63671875 249.86328125 C-73.60443906 273.93370526 -114.11616275 281.38669657 -145 283 C-182.10323955 284.43955431 -218.51916377 280.41878658 -254 269 C-252.18884758 258.29747579 -248.91894451 247.9457517 -245.0625 237.8125 C-241.78699706 229.07782549 -239.49633512 219.98105336 -237 211 C-233.10332217 212.15847179 -229.53150798 213.67590935 -225.875 215.42578125 C-220.05282959 218.10574989 -214.23341094 219.7543633 -208 221.1875 C-206.90623047 221.44160645 -205.81246094 221.69571289 -204.68554688 221.95751953 C-177.69732717 228.0105466 -141.8045963 231.37752664 -117.125 216.25 C-111.12561943 211.91650914 -106.62709853 206.52578365 -105.25390625 199.125 C-105.17011719 198.42375 -105.08632812 197.7225 -105 197 C-104.90589844 196.21625 -104.81179687 195.4325 -104.71484375 194.625 C-104.30431226 187.88807299 -105.96056675 182.42798843 -110 177 C-115.38905452 171.39930559 -121.29642513 167.96012467 -128.3125 164.75 C-129.79182007 164.05620239 -129.79182007 164.05620239 -131.30102539 163.34838867 C-139.07990091 159.75304886 -146.98647068 156.50492503 -154.9375 153.3125 C-177.26663644 144.33189454 -200.45169495 134.20989368 -210.91992188 110.7175293 C-214.6981409 101.21134577 -215.52135031 91.90259523 -215.4375 81.75 C-215.43065186 80.47455322 -215.42380371 79.19910645 -215.41674805 77.88500977 C-215.25409401 68.317663 -214.2534959 60.01132746 -211 51 C-210.649375 49.95585938 -210.29875 48.91171875 -209.9375 47.8359375 C-201.73553734 25.79316286 -183.32394176 10.31507761 -162.4375 0.75 C-116.31730838 -19.26029242 -46.36490249 -19.49150641 0 0 Z " fill="#FEFEFE" transform="translate(2578,42)"/>
<path d="M0 0 C11.55 0 23.1 0 35 0 C35 23.43 35 46.86 35 71 C58.1 71 81.2 71 105 71 C105 47.57 105 24.14 105 0 C116.55 0 128.1 0 140 0 C140 57.75 140 115.5 140 175 C128.45 175 116.9 175 105 175 C105 149.92 105 124.84 105 99 C81.9 99 58.8 99 35 99 C35 124.08 35 149.16 35 175 C23.45 175 11.9 175 0 175 C0 117.25 0 59.5 0 0 Z " fill="#000000" transform="translate(1852,465)"/>
<path d="M0 0 C11.55 0 23.1 0 35 0 C35.029729 4.5310144 35.029729 4.5310144 35.06005859 9.15356445 C35.12736935 19.2038356 35.2049994 29.25400873 35.28752708 39.30416584 C35.33718779 45.38952224 35.38351707 51.47486376 35.421875 57.56030273 C35.45911389 63.44781421 35.50557092 69.33519116 35.55806351 75.22258568 C35.57640475 77.45368241 35.5915849 79.68480774 35.60334396 81.91594887 C35.66108461 92.50594944 35.81693304 103.03203649 36.88916016 113.57495117 C36.96447653 114.32738004 37.0397929 115.0798089 37.11739159 115.85503864 C38.29961925 126.15764539 41.73073323 136.26030859 50 143 C59.64971463 149.02540867 69.55650105 150.3954242 80.7890625 148.5390625 C89.79867103 146.16811289 95.57656122 141.30746521 100.67578125 133.63671875 C103.90520162 127.20645695 105.49909328 120.59134458 106.16162109 113.46166992 C106.28085717 112.24745377 106.28085717 112.24745377 106.40250206 111.008708 C107.36524997 100.23106468 107.35707711 89.42557525 107.4140625 78.61328125 C107.43282333 76.3311446 107.45240017 74.04901453 107.4727478 71.76689148 C107.52355669 65.82746299 107.56345291 59.88801213 107.60089111 53.94848633 C107.64125641 47.86078596 107.69219845 41.77317447 107.7421875 35.68554688 C107.8383381 23.79042154 107.92195254 11.8952579 108 0 C119.55 0 131.1 0 143 0 C143.09059488 16.43007839 143.16415228 32.85994072 143.20724869 49.29020023 C143.22779861 56.92052775 143.25577263 64.55068807 143.30175781 72.1809082 C143.34185936 78.83809149 143.36748769 85.49515358 143.37635398 92.15245432 C143.3815297 95.67144604 143.39353222 99.19009131 143.42292023 102.70897102 C143.59863749 124.60486895 143.19892776 144.02627292 127.31640625 160.74609375 C112.67599436 174.99148609 93.93255219 178.18742963 74.19677734 178.24023438 C72.03312412 178.24985275 69.87045889 178.28089549 67.70703125 178.3125 C48.0717171 178.46231622 29.57182824 173.98371142 14.8125 160.3125 C5.16965776 150.20956191 -0.13399239 135.33231069 -0.12025452 121.45706177 C-0.12231651 119.84179344 -0.12231651 119.84179344 -0.12442017 118.19389343 C-0.12082489 117.0279213 -0.11722961 115.86194916 -0.11352539 114.66064453 C-0.11367142 113.42106491 -0.11381744 112.18148529 -0.1139679 110.90434265 C-0.11339199 107.51841818 -0.10838825 104.13255523 -0.10139394 100.74664164 C-0.09512847 97.2032378 -0.09455408 93.65983308 -0.09336853 90.11642456 C-0.09026462 83.41237391 -0.08206392 76.70833963 -0.07201904 70.00429618 C-0.06082868 62.36947991 -0.05534009 54.73466284 -0.05032361 47.0998404 C-0.03988051 31.39988252 -0.02154674 15.69994717 0 0 Z " fill="#000000" transform="translate(1434,719)"/>
<path d="M0 0 C11.22 0 22.44 0 34 0 C34 62.04 34 124.08 34 188 C23.11 188 12.22 188 1 188 C0.505 182.06 0.505 182.06 0 176 C-1.27875 177.216875 -2.5575 178.43375 -3.875 179.6875 C-16.99680567 191.32615024 -31.48702687 191.83528692 -48.24902344 191.1953125 C-53.6618467 190.8110155 -58.19037167 189.44686974 -63 187 C-63.86238281 186.5875 -64.72476562 186.175 -65.61328125 185.75 C-77.82644676 179.22642753 -84.93566127 168.2126594 -89.21875 155.3359375 C-96.34291374 131.16466768 -96.0892525 101.64789749 -83.98046875 79.16015625 C-77.04334639 68.09086239 -67.77718878 60.24937536 -55.12890625 56.6953125 C-49.76187359 55.62218043 -44.33180692 55.5627652 -38.875 55.5 C-37.3734436 55.47220459 -37.3734436 55.47220459 -35.84155273 55.44384766 C-21.25293577 55.56598826 -11.06670739 61.93329261 -1 72 C-0.67 48.24 -0.34 24.48 0 0 Z M-46.1484375 88.11328125 C-55.51693894 97.65966563 -58 111.06852421 -58 124 C-57.32427761 137.56512701 -54.79665582 148.69480568 -45.4140625 158.90625 C-40.56979691 163.10774895 -35.39357687 164.9765803 -29 165 C-21.97760907 164.42521355 -16.19786418 161.74757839 -11 157 C-1.19426807 144.41704552 0.11821913 129.37395124 -1 114 C-2.44172677 103.3926563 -7.10315675 94.13282454 -15.125 87 C-24.97645169 80.14681621 -36.88421008 80.49151646 -46.1484375 88.11328125 Z " fill="#000000" transform="translate(1712,452)"/>
<path d="M0 0 C13.09434331 10.04323419 20.99528744 24.62711269 23.39453125 40.91552734 C24.03647218 47.26325329 24.09427505 53.62553662 24.125 60 C24.13453201 61.01510651 24.13453201 61.01510651 24.14425659 62.05072021 C24.25547592 81.1267134 19.86238738 100.23470468 6.8828125 114.84375 C-3.8511956 124.99874521 -16.81216485 128.16955287 -31.125 128.1875 C-32.14142578 128.21199219 -33.15785156 128.23648438 -34.20507812 128.26171875 C-44.08053635 128.29948341 -52.42640384 125.84060106 -60.3125 119.75 C-61.199375 119.07839844 -62.08625 118.40679688 -63 117.71484375 C-65.3125 115.8125 -65.3125 115.8125 -68.3125 112.8125 C-68.6425 134.2625 -68.9725 155.7125 -69.3125 177.8125 C-80.5325 177.8125 -91.7525 177.8125 -103.3125 177.8125 C-103.3125 117.7525 -103.3125 57.6925 -103.3125 -4.1875 C-92.4225 -4.1875 -81.5325 -4.1875 -70.3125 -4.1875 C-69.8175 3.2375 -69.8175 3.2375 -69.3125 10.8125 C-68.343125 9.61625 -67.37375 8.42 -66.375 7.1875 C-50.47951019 -10.95583685 -19.78452 -12.81226446 0 0 Z M-55.6328125 25.24609375 C-63.96686095 33.01807846 -68.04589243 44.08083474 -68.6015625 55.3203125 C-69.00175737 69.95161285 -67.29545468 83.56314957 -56.9375 94.6875 C-51.8747743 99.42147728 -46.20544542 101.45596834 -39.3125 101.8125 C-30.46854103 100.82123315 -24.55432243 96.91920943 -18.91796875 90.11328125 C-10.67767325 78.30419597 -10.23505044 60.96039742 -12.5546875 47.21875 C-14.77546238 37.23671035 -18.22412189 29.20700837 -26.0625 22.4375 C-36.38049489 17.27850255 -46.6757992 17.781916 -55.6328125 25.24609375 Z " fill="#000000" transform="translate(1315.3125,769.1875)"/>
<path d="M0 0 C11.22 0 22.44 0 34 0 C34.33 24.42 34.66 48.84 35 74 C36.98 71.69 38.96 69.38 41 67 C54.42687434 56.16463484 69.30008938 54.39596016 86 56 C95.65378042 58.02368017 103.83467813 63.32111939 110 71 C119.38632819 85.75934315 119.43174511 101.42651873 119.29296875 118.2734375 C119.28736088 120.29366742 119.28309643 122.31390147 119.28010559 124.33413696 C119.26875047 129.60469182 119.23936555 134.87499149 119.20599365 140.14544678 C119.17508955 145.54224192 119.16155714 150.93907903 119.14648438 156.3359375 C119.11448529 166.89075412 119.06179558 177.44531574 119 188 C107.78 188 96.56 188 85 188 C84.95101563 182.84375 84.90203125 177.6875 84.8515625 172.375 C84.81610705 169.07550319 84.7801079 165.77602967 84.7421875 162.4765625 C84.68227127 157.25882611 84.62418618 152.04112169 84.578125 146.82324219 C84.54079211 142.60854771 84.49431467 138.39403777 84.44193649 134.17950439 C84.42364366 132.58509616 84.40844711 130.99064877 84.39665604 129.3961792 C84.91514444 106.55174948 84.91514444 106.55174948 75.875 86.5625 C69.31691461 82.99832316 62.6037295 82.31411172 55.3828125 84.125 C48.18998143 86.7663019 43.89388546 91.62592636 40.25 98.23046875 C34.49046388 110.99144097 34.8534333 125.35222792 34.68359375 139.07421875 C34.66296764 140.49339829 34.64196994 141.91257248 34.62062073 143.33174133 C34.56598303 147.02887575 34.51632206 150.72606009 34.46777344 154.42327881 C34.40818896 158.87974128 34.34228878 163.33611449 34.27747345 167.79250336 C34.18019992 174.52828009 34.09084258 181.26411967 34 188 C22.78 188 11.56 188 0 188 C0 125.96 0 63.92 0 0 Z " fill="#000000" transform="translate(989,706)"/>
<path d="M0 0 C11.22 0 22.44 0 34 0 C34.33 24.42 34.66 48.84 35 74 C36.98 71.69 38.96 69.38 41 67 C54.42687434 56.16463484 69.30008938 54.39596016 86 56 C95.65378042 58.02368017 103.83467813 63.32111939 110 71 C119.38632819 85.75934315 119.43174511 101.42651873 119.29296875 118.2734375 C119.28736088 120.29366742 119.28309643 122.31390147 119.28010559 124.33413696 C119.26875047 129.60469182 119.23936555 134.87499149 119.20599365 140.14544678 C119.17508955 145.54224192 119.16155714 150.93907903 119.14648438 156.3359375 C119.11448529 166.89075412 119.06179558 177.44531574 119 188 C107.78 188 96.56 188 85 188 C84.95101562 182.84375 84.90203125 177.6875 84.8515625 172.375 C84.81610705 169.07550319 84.7801079 165.77602967 84.7421875 162.4765625 C84.68227127 157.25882611 84.62418618 152.04112169 84.578125 146.82324219 C84.54079211 142.60854771 84.49431467 138.39403777 84.44193649 134.17950439 C84.42364366 132.58509616 84.40844711 130.99064877 84.39665604 129.3961792 C84.91514444 106.55174948 84.91514444 106.55174948 75.875 86.5625 C69.31691461 82.99832316 62.6037295 82.31411172 55.3828125 84.125 C48.18998143 86.7663019 43.89388546 91.62592636 40.25 98.23046875 C34.49046388 110.99144097 34.8534333 125.35222792 34.68359375 139.07421875 C34.66296764 140.49339829 34.64196994 141.91257248 34.62062073 143.33174133 C34.56598303 147.02887575 34.51632206 150.72606009 34.46777344 154.42327881 C34.40818896 158.87974128 34.34228878 163.33611449 34.27747345 167.79250336 C34.18019992 174.52828009 34.09084258 181.26411967 34 188 C22.78 188 11.56 188 0 188 C0 125.96 0 63.92 0 0 Z " fill="#000000" transform="translate(2474,452)"/>
<path d="M0 0 C11.22 0 22.44 0 34 0 C34.33 24.42 34.66 48.84 35 74 C36.98 71.69 38.96 69.38 41 67 C54.42687434 56.16463484 69.30008938 54.39596016 86 56 C95.65378042 58.02368017 103.83467813 63.32111939 110 71 C119.38632819 85.75934315 119.43174511 101.42651873 119.29296875 118.2734375 C119.28736088 120.29366742 119.28309643 122.31390147 119.28010559 124.33413696 C119.26875047 129.60469182 119.23936555 134.87499149 119.20599365 140.14544678 C119.17508955 145.54224192 119.16155714 150.93907903 119.14648438 156.3359375 C119.11448529 166.89075412 119.06179558 177.44531574 119 188 C107.78 188 96.56 188 85 188 C84.95101562 182.84375 84.90203125 177.6875 84.8515625 172.375 C84.81610705 169.07550319 84.7801079 165.77602967 84.7421875 162.4765625 C84.68227127 157.25882611 84.62418618 152.04112169 84.578125 146.82324219 C84.54079211 142.60854771 84.49431467 138.39403777 84.44193649 134.17950439 C84.42364366 132.58509616 84.40844711 130.99064877 84.39665604 129.3961792 C84.91514444 106.55174948 84.91514444 106.55174948 75.875 86.5625 C69.31691461 82.99832316 62.6037295 82.31411172 55.3828125 84.125 C48.18998143 86.7663019 43.89388546 91.62592636 40.25 98.23046875 C34.49046388 110.99144097 34.8534333 125.35222792 34.68359375 139.07421875 C34.66296764 140.49339829 34.64196994 141.91257248 34.62062073 143.33174133 C34.56598303 147.02887575 34.51632206 150.72606009 34.46777344 154.42327881 C34.40818896 158.87974128 34.34228878 163.33611449 34.27747345 167.79250336 C34.18019992 174.52828009 34.09084258 181.26411967 34 188 C22.78 188 11.56 188 0 188 C0 125.96 0 63.92 0 0 Z " fill="#000000" transform="translate(867,452)"/>
<path d="M0 0 C84.3372093 0 84.3372093 0 103 15 C113.82983748 26.15801438 117.36037683 37.53979123 117.3125 52.8125 C117.32861328 53.82892578 117.34472656 54.84535156 117.36132812 55.89257812 C117.36981799 69.21317826 113.38075782 82.201532 104.12109375 92.05859375 C84.5939258 109.93152648 60.60030356 109 35 109 C35 130.78 35 152.56 35 175 C23.45 175 11.9 175 0 175 C0 117.25 0 59.5 0 0 Z M35 28 C35 45.49 35 62.98 35 81 C55.79702991 81.42679744 55.79702991 81.42679744 73.875 72.36328125 C79.44415295 66.40589408 80.5012424 59.80031733 80.3046875 51.83984375 C79.59488678 45.22413702 77.3053188 39.8377375 72.5625 35.125 C61.33418886 26.44204641 48.97562405 28 35 28 Z " fill="#000000" transform="translate(17,719)"/>
<path d="M0 0 C0.72794769 -0.00078552 1.45589539 -0.00157104 2.2059021 -0.00238037 C15.20830664 0.01441652 29.42712745 0.19146115 41.1875 6.375 C40.80880184 10.48793524 40.41794208 14.59951102 40.015625 18.71020508 C39.88041244 20.10962252 39.74856555 21.50936932 39.62011719 22.90942383 C39.4352286 24.91830947 39.23734476 26.92598586 39.0390625 28.93359375 C38.92385254 30.14329834 38.80864258 31.35300293 38.68994141 32.59936523 C38.52413574 33.51532471 38.35833008 34.43128418 38.1875 35.375 C36.1875 36.375 36.1875 36.375 33.3515625 35.44921875 C32.18367187 34.99160156 31.01578125 34.53398437 29.8125 34.0625 C16.91399351 29.25039035 1.70699505 26.64342608 -11.625 31.3359375 C-16.78794033 33.78833416 -19.95778287 36.80801859 -22.6875 41.8125 C-24.69962206 48.18421986 -25.42032464 52.95996875 -22.9765625 59.25 C-17.46604764 69.30946337 -0.81706208 73.34543637 9.1953125 77.41796875 C25.71890798 84.16113142 40.30868174 91.43010899 48.03515625 108.48828125 C53.51668607 122.21997799 52.72360245 138.718067 46.96875 152.23828125 C41.12104338 163.98242537 31.5957161 172.50006587 19.20703125 176.81640625 C7.73283619 180.58377791 -2.9085617 181.64533781 -14.9375 181.6875 C-15.69761383 181.69078308 -16.45772766 181.69406616 -17.24087524 181.69744873 C-29.48212669 181.71456823 -40.98244052 180.72902353 -52.8125 177.375 C-53.834646 177.08834473 -53.834646 177.08834473 -54.87744141 176.79589844 C-56.52447414 176.3293146 -58.16881437 175.85324143 -59.8125 175.375 C-59.3291022 164.26957165 -58.48277792 153.36964496 -56.8125 142.375 C-54.19137191 143.41864183 -51.57684617 144.47321611 -48.97265625 145.55859375 C-34.53951639 151.40101228 -18.31761561 155.69977734 -3.0625 150.35546875 C3.54888529 147.47446578 8.87077941 144.00844118 12.1875 137.375 C12.68300761 131.94878553 12.92230182 127.02830409 10.6875 122 C2.67029035 113.58192987 -7.27499987 109.82455716 -17.8125 105.375 C-51.0070295 91.35559257 -51.0070295 91.35559257 -59.62109375 73.46484375 C-62.09644883 67.04515238 -63.18012998 61.0595713 -63.125 54.1875 C-63.12008545 53.45136475 -63.1151709 52.71522949 -63.11010742 51.95678711 C-62.82793692 38.59926976 -59.06839025 26.12711626 -49.80859375 16.25 C-35.72367109 3.01954427 -18.60599947 -0.04240833 0 0 Z " fill="#000000" transform="translate(787.8125,461.625)"/>
<path d="M0 0 C12.54 0 25.08 0 38 0 C40.44760604 6.1190151 42.7973005 12.11084943 44.82495117 18.35546875 C45.07752182 19.1242485 45.33009247 19.89302826 45.59031677 20.68510437 C46.41084054 23.18493949 47.22688302 25.68621296 48.04296875 28.1875 C48.61745585 29.93972305 49.19227527 31.69183717 49.76741028 33.44384766 C51.27067946 38.0254917 52.7703566 42.60830245 54.26898193 47.19146729 C56.67705834 54.55459014 59.08970556 61.91621363 61.50414467 69.2772522 C62.3459823 71.84605285 63.18569808 74.41554012 64.02519226 76.98510742 C64.53780377 78.5499899 65.05048023 80.11485111 65.56323242 81.6796875 C65.79647217 82.39549484 66.02971191 83.11130219 66.27001953 83.84880066 C67.45934654 87.49444561 67.45934654 87.49444561 69 91 C69.49739433 89.48902489 69.49739433 89.48902489 70.00483704 87.94752502 C73.13826735 78.42892331 76.2718744 68.9103798 79.40565205 59.39189243 C81.01653518 54.49900221 82.62735724 49.6060919 84.23803711 44.71313477 C85.79402988 39.98631495 87.3501865 35.25954909 88.90645409 30.53281975 C89.49853471 28.73444455 90.09055748 26.93605029 90.68251991 25.13763618 C91.51516027 22.60806357 92.34801111 20.07856035 93.1809082 17.54907227 C93.42259232 16.81466919 93.66427643 16.08026611 93.9132843 15.3236084 C95.59686494 10.21162339 97.29800646 5.10598062 99 0 C110.55 0 122.1 0 134 0 C133.2541863 4.4748822 132.49846943 7.74054809 130.92822266 11.87255859 C130.27675262 13.59939377 130.27675262 13.59939377 129.61212158 15.3611145 C129.12949899 16.62357988 128.6468104 17.88602003 128.1640625 19.1484375 C127.65579521 20.49019168 127.14805773 21.83214665 126.64080811 23.17428589 C125.26284611 26.81637108 123.87832296 30.45592937 122.49254608 34.095047 C120.13170732 40.29944529 117.78272622 46.50835458 115.43121719 52.71629333 C114.50721505 55.15500886 113.58246092 57.59343841 112.65768433 60.03186035 C108.55849014 70.84667969 104.49945824 81.67593175 100.46792984 92.51614761 C99.55157509 94.97955242 98.63422643 97.44258469 97.71652222 99.90548706 C97.41707262 100.70920053 97.11762302 101.51291401 96.8090992 102.34098244 C96.21043827 103.94775905 95.61175855 105.55452867 95.01305962 107.16129112 C93.55867802 111.06603313 92.10696991 114.97173084 90.66094971 118.87957764 C70.90340109 172.25702094 70.90340109 172.25702094 52.60546875 182.31640625 C45.56236456 185.27595369 38.46556151 185.37818765 30.9375 185.4375 C29.93259521 185.44773193 28.92769043 185.45796387 27.89233398 185.46850586 C20.86702676 185.38647606 14.67870905 184.15455466 8 182 C8.14278226 179.3539713 8.28916264 176.70821857 8.4375 174.0625 C8.49647461 172.95938477 8.49647461 172.95938477 8.55664062 171.83398438 C8.85783172 166.5283874 9.37633329 161.27758299 10 156 C11.79244141 156.25136719 11.79244141 156.25136719 13.62109375 156.5078125 C27.32140181 158.4115453 27.32140181 158.4115453 40.3125 154.25 C44.20288285 150.99293529 47.39207776 147.16733902 48 142 C48.4850755 135.01560161 46.86560437 129.82900763 44.3984375 123.33203125 C44.01403503 122.2875885 43.62963257 121.24314575 43.23358154 120.16705322 C41.95899036 116.71111939 40.66684285 113.26201793 39.375 109.8125 C38.24728096 106.76496433 37.12256927 103.71633707 35.99852943 100.66744328 C34.81639305 97.46157623 33.63300043 94.25619181 32.44595337 91.05213928 C28.91060582 81.50507622 25.43165769 71.93856862 21.984375 62.359375 C21.73799412 61.67483938 21.49161324 60.99030376 21.23776627 60.28502464 C19.77055782 56.20760866 18.3048554 52.12965255 16.83966827 48.05150986 C14.79384495 42.35773149 12.74558824 36.66483308 10.6953125 30.97265625 C10.28102997 29.82150833 9.86674744 28.67036041 9.43991089 27.48432922 C6.69027877 19.86172982 3.86914948 12.27052809 0.95654297 4.70874023 C0 2 0 2 0 0 Z " fill="#000000" transform="translate(2473,765)"/>
<path d="M0 0 C1.20333984 -0.0100708 2.40667969 -0.0201416 3.64648438 -0.03051758 C17.0928064 0.0994832 32.25087756 2.50087756 42.1875 12.4375 C50.5758369 22.4920134 54.15445292 33.84916355 54.48461914 46.81958008 C54.50427231 47.54563446 54.52392548 48.27168884 54.54417419 49.01974487 C54.60790882 51.4154179 54.66539074 53.81119553 54.72265625 56.20703125 C54.76574675 57.88792228 54.80916342 59.56880497 54.85289001 61.24967957 C54.94375706 64.77763807 55.03171667 68.30565287 55.11743164 71.83374023 C55.22627508 76.31054435 55.34062121 80.78718505 55.45700932 85.26379871 C55.54706412 88.74120433 55.63491832 92.21866283 55.72207451 95.6961422 C55.7634647 97.34362661 55.80531548 98.99109953 55.84767342 100.63855934 C56.11803404 111.24212462 56.22637937 121.83022596 56.1875 132.4375 C46.2875 132.4375 36.3875 132.4375 26.1875 132.4375 C25.08235234 129.12205701 24.86642369 126.23339889 24.625 122.75 C24.54121094 121.57050781 24.45742187 120.39101563 24.37109375 119.17578125 C24.31050781 118.27214844 24.24992187 117.36851562 24.1875 116.4375 C23.66542969 117.08976563 23.14335937 117.74203125 22.60546875 118.4140625 C14.89575773 127.56850045 4.83103148 134.3472726 -7.34130859 135.72338867 C-9.98422844 135.8381359 -12.60498248 135.84732832 -15.25 135.8125 C-16.12720703 135.82410156 -17.00441406 135.83570313 -17.90820312 135.84765625 C-29.26954027 135.79742189 -40.626176 132.03316995 -49.14453125 124.328125 C-59.47950246 113.2070057 -60.51527594 102.4719014 -60.00048828 87.89746094 C-59.6410231 83.19360227 -58.23007321 79.43871001 -55.8125 75.4375 C-55.255625 74.40625 -54.69875 73.375 -54.125 72.3125 C-44.09759857 59.84600093 -30.35500592 54.59012421 -14.8125 52.4375 C-11.84537334 52.30832039 -8.88352218 52.32069161 -5.9140625 52.33984375 C-5.07910248 52.3412587 -4.24414246 52.34267365 -3.38388062 52.34413147 C-0.73504958 52.34969826 1.9136948 52.36224453 4.5625 52.375 C6.36588419 52.3800193 8.16926971 52.38458145 9.97265625 52.38867188 C14.37763721 52.3996568 18.78255394 52.41689837 23.1875 52.4375 C22.90865135 50.529926 22.61872673 48.62396919 22.32421875 46.71875 C22.08384888 45.12643555 22.08384888 45.12643555 21.83862305 43.50195312 C20.58118253 37.58392037 17.9233734 33.87148237 13.3125 30.0625 C0.70065175 23.9344002 -14.35561554 26.44271373 -27.0625 30.6875 C-32.40369671 32.70247849 -37.15559435 35.16797758 -41.921875 38.30078125 C-43.8125 39.4375 -43.8125 39.4375 -45.8125 39.4375 C-45.8125 29.5375 -45.8125 19.6375 -45.8125 9.4375 C-29.65271994 3.22219998 -17.11937717 0.09256661 0 0 Z M-22.8125 82.125 C-26.05810796 86.25298365 -27.60417812 90.18210702 -27.8125 95.4375 C-26.97790794 101.00144709 -25.23830004 103.9738304 -20.8125 107.4375 C-13.97750157 111.30548775 -6.49421779 111.45165957 1.0546875 109.81640625 C9.48126524 107.19039518 15.33474471 102.25862785 19.5625 94.5 C22.76492166 87.24495625 23.43698783 80.29636653 23.1875 72.4375 C-1.66487595 71.33518236 -1.66487595 71.33518236 -22.8125 82.125 Z " fill="#000000" transform="translate(207.8125,761.5625)"/>
<path d="M0 0 C1.20333984 -0.0100708 2.40667969 -0.0201416 3.64648438 -0.03051758 C17.0928064 0.0994832 32.25087756 2.50087756 42.1875 12.4375 C50.5758369 22.4920134 54.15445292 33.84916355 54.48461914 46.81958008 C54.50427231 47.54563446 54.52392548 48.27168884 54.54417419 49.01974487 C54.60790882 51.4154179 54.66539074 53.81119553 54.72265625 56.20703125 C54.76574675 57.88792228 54.80916342 59.56880497 54.85289001 61.24967957 C54.94375706 64.77763807 55.03171667 68.30565287 55.11743164 71.83374023 C55.22627508 76.31054435 55.34062121 80.78718505 55.45700932 85.26379871 C55.54706412 88.74120433 55.63491832 92.21866283 55.72207451 95.6961422 C55.7634647 97.34362661 55.80531548 98.99109953 55.84767342 100.63855934 C56.11803404 111.24212462 56.22637937 121.83022596 56.1875 132.4375 C46.2875 132.4375 36.3875 132.4375 26.1875 132.4375 C25.08235234 129.12205701 24.86642369 126.23339889 24.625 122.75 C24.54121094 121.57050781 24.45742187 120.39101563 24.37109375 119.17578125 C24.31050781 118.27214844 24.24992187 117.36851562 24.1875 116.4375 C23.66542969 117.08976563 23.14335937 117.74203125 22.60546875 118.4140625 C14.89575773 127.56850045 4.83103148 134.3472726 -7.34130859 135.72338867 C-9.98422844 135.8381359 -12.60498248 135.84732832 -15.25 135.8125 C-16.12720703 135.82410156 -17.00441406 135.83570313 -17.90820312 135.84765625 C-29.26954027 135.79742189 -40.626176 132.03316995 -49.14453125 124.328125 C-59.47950246 113.2070057 -60.51527594 102.4719014 -60.00048828 87.89746094 C-59.6410231 83.19360227 -58.23007321 79.43871001 -55.8125 75.4375 C-55.255625 74.40625 -54.69875 73.375 -54.125 72.3125 C-44.09759857 59.84600093 -30.35500592 54.59012421 -14.8125 52.4375 C-11.84537334 52.30832039 -8.88352218 52.32069161 -5.9140625 52.33984375 C-5.07910248 52.3412587 -4.24414246 52.34267365 -3.38388062 52.34413147 C-0.73504958 52.34969826 1.9136948 52.36224453 4.5625 52.375 C6.36588419 52.3800193 8.16926971 52.38458145 9.97265625 52.38867188 C14.37763721 52.3996568 18.78255394 52.41689837 23.1875 52.4375 C22.90865135 50.529926 22.61872673 48.62396919 22.32421875 46.71875 C22.08384888 45.12643555 22.08384888 45.12643555 21.83862305 43.50195312 C20.58118253 37.58392037 17.9233734 33.87148237 13.3125 30.0625 C0.70065175 23.9344002 -14.35561554 26.44271373 -27.0625 30.6875 C-32.40369671 32.70247849 -37.15559435 35.16797758 -41.921875 38.30078125 C-43.8125 39.4375 -43.8125 39.4375 -45.8125 39.4375 C-45.8125 29.5375 -45.8125 19.6375 -45.8125 9.4375 C-29.65271994 3.22219998 -17.11937717 0.09256661 0 0 Z M-22.8125 82.125 C-26.05810796 86.25298365 -27.60417812 90.18210702 -27.8125 95.4375 C-26.97790794 101.00144709 -25.23830004 103.9738304 -20.8125 107.4375 C-13.97750157 111.30548775 -6.49421779 111.45165957 1.0546875 109.81640625 C9.48126524 107.19039518 15.33474471 102.25862785 19.5625 94.5 C22.76492166 87.24495625 23.43698783 80.29636653 23.1875 72.4375 C-1.66487595 71.33518236 -1.66487595 71.33518236 -22.8125 82.125 Z " fill="#000000" transform="translate(2220.8125,507.5625)"/>
<path d="M0 0 C1.13759766 -0.01160156 2.27519531 -0.02320313 3.44726562 -0.03515625 C18.10780491 0.01502244 31.83492155 3.86963981 42.875 13.9375 C59.21968846 32.00631172 60.5625 55.06879518 60.5625 78.375 C31.5225 78.375 2.4825 78.375 -27.4375 78.375 C-23.93889072 93.10029435 -23.93889072 93.10029435 -14.25 103.8125 C-1.74664079 111.15640316 12.67881931 110.88709736 26.40942383 107.36987305 C33.35997688 105.3753813 39.76852821 102.22318186 46.2109375 98.984375 C49.5625 97.375 49.5625 97.375 51.5625 97.375 C51.5625 106.945 51.5625 116.515 51.5625 126.375 C49.37625 127.303125 47.19 128.23125 44.9375 129.1875 C44.28185059 129.47343018 43.62620117 129.75936035 42.95068359 130.05395508 C31.58652716 134.72815414 19.87269689 135.91143896 7.6875 135.8125 C6.37410645 135.80492676 5.06071289 135.79735352 3.70751953 135.78955078 C-14.13844015 135.48670221 -29.97690414 131.42124602 -43.1875 118.71875 C-56.52548245 104.82501828 -61.03053406 88.10517308 -60.875 69.125 C-60.86887695 67.85172852 -60.86275391 66.57845703 -60.85644531 65.26660156 C-60.6984085 55.73333449 -59.70852595 47.3505141 -56.4375 38.375 C-56.13714844 37.52808594 -55.83679687 36.68117188 -55.52734375 35.80859375 C-49.48412957 20.76596106 -39.33231692 9.77745308 -24.4375 3.375 C-16.30211535 0.40702612 -8.60204698 -0.08742905 0 0 Z M-21.4375 35.375 C-26.08337503 42.24582263 -26.56801484 46.68014842 -27.4375 55.375 C-9.2875 55.375 8.8625 55.375 27.5625 55.375 C27.5625 45.8038068 25.36802486 38.046363 18.6015625 31.03515625 C12.58995259 26.14064627 5.85265956 24.71878858 -1.7734375 25.0625 C-9.99032701 26.02635801 -15.99449333 29.06632996 -21.4375 35.375 Z " fill="#000000" transform="translate(2026.4375,761.625)"/>
<path d="M0 0 C1.13759766 -0.01160156 2.27519531 -0.02320313 3.44726562 -0.03515625 C18.10780491 0.01502244 31.83492155 3.86963981 42.875 13.9375 C59.21968846 32.00631172 60.5625 55.06879518 60.5625 78.375 C31.5225 78.375 2.4825 78.375 -27.4375 78.375 C-23.93889072 93.10029435 -23.93889072 93.10029435 -14.25 103.8125 C-1.74664079 111.15640316 12.67881931 110.88709736 26.40942383 107.36987305 C33.35997688 105.3753813 39.76852821 102.22318186 46.2109375 98.984375 C49.5625 97.375 49.5625 97.375 51.5625 97.375 C51.5625 106.945 51.5625 116.515 51.5625 126.375 C49.37625 127.303125 47.19 128.23125 44.9375 129.1875 C44.28185059 129.47343018 43.62620117 129.75936035 42.95068359 130.05395508 C31.58652716 134.72815414 19.87269689 135.91143896 7.6875 135.8125 C6.37410645 135.80492676 5.06071289 135.79735352 3.70751953 135.78955078 C-14.13844015 135.48670221 -29.97690414 131.42124602 -43.1875 118.71875 C-56.52548245 104.82501828 -61.03053406 88.10517308 -60.875 69.125 C-60.86887695 67.85172852 -60.86275391 66.57845703 -60.85644531 65.26660156 C-60.6984085 55.73333449 -59.70852595 47.3505141 -56.4375 38.375 C-56.13714844 37.52808594 -55.83679688 36.68117188 -55.52734375 35.80859375 C-49.48412957 20.76596106 -39.33231692 9.77745308 -24.4375 3.375 C-16.30211535 0.40702612 -8.60204698 -0.08742905 0 0 Z M-21.4375 35.375 C-26.08337503 42.24582263 -26.56801484 46.68014842 -27.4375 55.375 C-9.2875 55.375 8.8625 55.375 27.5625 55.375 C27.5625 45.8038068 25.36802486 38.046363 18.6015625 31.03515625 C12.58995259 26.14064627 5.85265956 24.71878858 -1.7734375 25.0625 C-9.99032701 26.02635801 -15.99449333 29.06632996 -21.4375 35.375 Z " fill="#000000" transform="translate(694.4375,761.625)"/>
<path d="M0 0 C1.13759766 -0.01160156 2.27519531 -0.02320313 3.44726562 -0.03515625 C18.10780491 0.01502244 31.83492155 3.86963981 42.875 13.9375 C59.21968846 32.00631172 60.5625 55.06879518 60.5625 78.375 C31.5225 78.375 2.4825 78.375 -27.4375 78.375 C-23.93889072 93.10029435 -23.93889072 93.10029435 -14.25 103.8125 C-1.74664079 111.15640316 12.67881931 110.88709736 26.40942383 107.36987305 C33.35997688 105.3753813 39.76852821 102.22318186 46.2109375 98.984375 C49.5625 97.375 49.5625 97.375 51.5625 97.375 C51.5625 106.945 51.5625 116.515 51.5625 126.375 C49.37625 127.303125 47.19 128.23125 44.9375 129.1875 C44.28185059 129.47343018 43.62620117 129.75936035 42.95068359 130.05395508 C31.58652716 134.72815414 19.87269689 135.91143896 7.6875 135.8125 C6.37410645 135.80492676 5.06071289 135.79735352 3.70751953 135.78955078 C-14.13844015 135.48670221 -29.97690414 131.42124602 -43.1875 118.71875 C-56.52548245 104.82501828 -61.03053406 88.10517308 -60.875 69.125 C-60.86887695 67.85172852 -60.86275391 66.57845703 -60.85644531 65.26660156 C-60.6984085 55.73333449 -59.70852595 47.3505141 -56.4375 38.375 C-56.13714844 37.52808594 -55.83679687 36.68117188 -55.52734375 35.80859375 C-49.48412957 20.76596106 -39.33231692 9.77745308 -24.4375 3.375 C-16.30211535 0.40702612 -8.60204698 -0.08742905 0 0 Z M-21.4375 35.375 C-26.08337503 42.24582263 -26.56801484 46.68014842 -27.4375 55.375 C-9.2875 55.375 8.8625 55.375 27.5625 55.375 C27.5625 45.8038068 25.36802486 38.046363 18.6015625 31.03515625 C12.58995259 26.14064627 5.85265956 24.71878858 -1.7734375 25.0625 C-9.99032701 26.02635801 -15.99449333 29.06632996 -21.4375 35.375 Z " fill="#000000" transform="translate(2082.4375,507.625)"/>
<path d="M0 0 C1.13759766 -0.01160156 2.27519531 -0.02320313 3.44726562 -0.03515625 C18.10780491 0.01502244 31.83492155 3.86963981 42.875 13.9375 C59.21968846 32.00631172 60.5625 55.06879518 60.5625 78.375 C31.5225 78.375 2.4825 78.375 -27.4375 78.375 C-23.93889072 93.10029435 -23.93889072 93.10029435 -14.25 103.8125 C-1.74664079 111.15640316 12.67881931 110.88709736 26.40942383 107.36987305 C33.35997688 105.3753813 39.76852821 102.22318186 46.2109375 98.984375 C49.5625 97.375 49.5625 97.375 51.5625 97.375 C51.5625 106.945 51.5625 116.515 51.5625 126.375 C49.37625 127.303125 47.19 128.23125 44.9375 129.1875 C44.28185059 129.47343018 43.62620117 129.75936035 42.95068359 130.05395508 C31.58652716 134.72815414 19.87269689 135.91143896 7.6875 135.8125 C6.37410645 135.80492676 5.06071289 135.79735352 3.70751953 135.78955078 C-14.13844015 135.48670221 -29.97690414 131.42124602 -43.1875 118.71875 C-56.52548245 104.82501828 -61.03053406 88.10517308 -60.875 69.125 C-60.86887695 67.85172852 -60.86275391 66.57845703 -60.85644531 65.26660156 C-60.6984085 55.73333449 -59.70852595 47.3505141 -56.4375 38.375 C-56.13714844 37.52808594 -55.83679687 36.68117188 -55.52734375 35.80859375 C-49.48412957 20.76596106 -39.33231692 9.77745308 -24.4375 3.375 C-16.30211535 0.40702612 -8.60204698 -0.08742905 0 0 Z M-21.4375 35.375 C-26.08337503 42.24582263 -26.56801484 46.68014842 -27.4375 55.375 C-9.2875 55.375 8.8625 55.375 27.5625 55.375 C27.5625 45.8038068 25.36802486 38.046363 18.6015625 31.03515625 C12.58995259 26.14064627 5.85265956 24.71878858 -1.7734375 25.0625 C-9.99032701 26.02635801 -15.99449333 29.06632996 -21.4375 35.375 Z " fill="#000000" transform="translate(1470.4375,507.625)"/>
<path d="M0 0 C1.13759766 -0.01160156 2.27519531 -0.02320313 3.44726562 -0.03515625 C18.10780491 0.01502244 31.83492155 3.86963981 42.875 13.9375 C59.21968846 32.00631172 60.5625 55.06879518 60.5625 78.375 C31.5225 78.375 2.4825 78.375 -27.4375 78.375 C-23.93889072 93.10029435 -23.93889072 93.10029435 -14.25 103.8125 C-1.74664079 111.15640316 12.67881931 110.88709736 26.40942383 107.36987305 C33.35997688 105.3753813 39.76852821 102.22318186 46.2109375 98.984375 C49.5625 97.375 49.5625 97.375 51.5625 97.375 C51.5625 106.945 51.5625 116.515 51.5625 126.375 C49.37625 127.303125 47.19 128.23125 44.9375 129.1875 C44.28185059 129.47343018 43.62620117 129.75936035 42.95068359 130.05395508 C31.58652716 134.72815414 19.87269689 135.91143896 7.6875 135.8125 C6.37410645 135.80492676 5.06071289 135.79735352 3.70751953 135.78955078 C-14.13844015 135.48670221 -29.97690414 131.42124602 -43.1875 118.71875 C-56.52548245 104.82501828 -61.03053406 88.10517308 -60.875 69.125 C-60.86887695 67.85172852 -60.86275391 66.57845703 -60.85644531 65.26660156 C-60.6984085 55.73333449 -59.70852595 47.3505141 -56.4375 38.375 C-56.13714844 37.52808594 -55.83679688 36.68117188 -55.52734375 35.80859375 C-49.48412957 20.76596106 -39.33231692 9.77745308 -24.4375 3.375 C-16.30211535 0.40702612 -8.60204698 -0.08742905 0 0 Z M-21.4375 35.375 C-26.08337503 42.24582263 -26.56801484 46.68014842 -27.4375 55.375 C-9.2875 55.375 8.8625 55.375 27.5625 55.375 C27.5625 45.8038068 25.36802486 38.046363 18.6015625 31.03515625 C12.58995259 26.14064627 5.85265956 24.71878858 -1.7734375 25.0625 C-9.99032701 26.02635801 -15.99449333 29.06632996 -21.4375 35.375 Z " fill="#000000" transform="translate(1072.4375,507.625)"/>
<path d="M0 0 C1.5303186 0.00241699 1.5303186 0.00241699 3.09155273 0.00488281 C14.39309785 0.18948648 22.60874281 3.05608746 31.1875 10.5625 C41.53724819 22.20596671 44.86780955 35.18444427 44.80102539 50.52319336 C44.80117142 51.41179047 44.80131744 52.30038757 44.8014679 53.21591187 C44.80077518 56.13224794 44.79301297 59.04851893 44.78515625 61.96484375 C44.78328979 63.99508123 44.78186696 66.02531916 44.78086853 68.05555725 C44.77706131 73.38364926 44.76724642 78.71171374 44.75616455 84.03979492 C44.74591177 89.48290637 44.74136264 94.92602229 44.73632812 100.36914062 C44.72562247 111.03777441 44.70804028 121.70638061 44.6875 132.375 C33.4675 132.375 22.2475 132.375 10.6875 132.375 C10.63851563 127.21875 10.58953125 122.0625 10.5390625 116.75 C10.50360705 113.45050319 10.4676079 110.15102967 10.4296875 106.8515625 C10.36977127 101.63382611 10.31168618 96.41612169 10.265625 91.19824219 C10.22829211 86.98354771 10.18181467 82.76903777 10.12943649 78.55450439 C10.11114366 76.96009616 10.09594711 75.36564877 10.08415604 73.7711792 C10.60264444 50.92674948 10.60264444 50.92674948 1.5625 30.9375 C-4.99558539 27.37332316 -11.7087705 26.68911172 -18.9296875 28.5 C-26.12251857 31.1413019 -30.41861454 36.00092636 -34.0625 42.60546875 C-39.82203612 55.36644097 -39.4590667 69.72722792 -39.62890625 83.44921875 C-39.64953236 84.86839829 -39.67053006 86.28757248 -39.69187927 87.70674133 C-39.74651697 91.40387575 -39.79617794 95.10106009 -39.84472656 98.79827881 C-39.90431104 103.25474128 -39.97021122 107.71111449 -40.03502655 112.16750336 C-40.13230008 118.90328009 -40.22165742 125.63911967 -40.3125 132.375 C-51.5325 132.375 -62.7525 132.375 -74.3125 132.375 C-74.3125 89.805 -74.3125 47.235 -74.3125 3.375 C-63.4225 3.375 -52.5325 3.375 -41.3125 3.375 C-40.8175 10.305 -40.8175 10.305 -40.3125 17.375 C-39.075 16.01375 -37.8375 14.6525 -36.5625 13.25 C-26.32483857 3.01233857 -14.03546026 -0.02293563 0 0 Z " fill="#000000" transform="translate(1687.3125,761.625)"/>
<path d="M0 0 C1.5303186 0.00241699 1.5303186 0.00241699 3.09155273 0.00488281 C14.39309785 0.18948648 22.60874281 3.05608746 31.1875 10.5625 C41.53724819 22.20596671 44.86780955 35.18444427 44.80102539 50.52319336 C44.80117142 51.41179047 44.80131744 52.30038757 44.8014679 53.21591187 C44.80077518 56.13224794 44.79301297 59.04851893 44.78515625 61.96484375 C44.78328979 63.99508123 44.78186696 66.02531916 44.78086853 68.05555725 C44.77706131 73.38364926 44.76724642 78.71171374 44.75616455 84.03979492 C44.74591177 89.48290637 44.74136264 94.92602229 44.73632812 100.36914062 C44.72562247 111.03777441 44.70804028 121.70638061 44.6875 132.375 C33.4675 132.375 22.2475 132.375 10.6875 132.375 C10.63851562 127.21875 10.58953125 122.0625 10.5390625 116.75 C10.50360705 113.45050319 10.4676079 110.15102967 10.4296875 106.8515625 C10.36977127 101.63382611 10.31168618 96.41612169 10.265625 91.19824219 C10.22829211 86.98354771 10.18181467 82.76903777 10.12943649 78.55450439 C10.11114366 76.96009616 10.09594711 75.36564877 10.08415604 73.7711792 C10.60264444 50.92674948 10.60264444 50.92674948 1.5625 30.9375 C-4.99558539 27.37332316 -11.7087705 26.68911172 -18.9296875 28.5 C-26.12251857 31.1413019 -30.41861454 36.00092636 -34.0625 42.60546875 C-39.82203612 55.36644097 -39.4590667 69.72722792 -39.62890625 83.44921875 C-39.64953236 84.86839829 -39.67053006 86.28757248 -39.69187927 87.70674133 C-39.74651697 91.40387575 -39.79617794 95.10106009 -39.84472656 98.79827881 C-39.90431104 103.25474128 -39.97021122 107.71111449 -40.03502655 112.16750336 C-40.13230008 118.90328009 -40.22165742 125.63911967 -40.3125 132.375 C-51.5325 132.375 -62.7525 132.375 -74.3125 132.375 C-74.3125 89.805 -74.3125 47.235 -74.3125 3.375 C-63.4225 3.375 -52.5325 3.375 -41.3125 3.375 C-40.8175 10.305 -40.8175 10.305 -40.3125 17.375 C-39.075 16.01375 -37.8375 14.6525 -36.5625 13.25 C-26.32483857 3.01233857 -14.03546026 -0.02293563 0 0 Z " fill="#000000" transform="translate(563.3125,761.625)"/>
<path d="M0 0 C1.09054687 -0.01224609 2.18109375 -0.02449219 3.3046875 -0.03710938 C10.07223918 -0.04925211 16.30291015 0.55511348 22.875 2.1875 C23.17842417 11.97949974 22.07012587 21.48777306 20.875 31.1875 C20.30652344 30.98253906 19.73804688 30.77757812 19.15234375 30.56640625 C8.98378915 27.01497566 8.98378915 27.01497566 -1.328125 28.98046875 C-4.65565806 31.21570291 -6.00979267 34.43233858 -7.125 38.1875 C-8.05399862 43.4840824 -8.40704364 48.76487602 -8.6875 54.125 C-8.831875 56.785625 -8.97625 59.44625 -9.125 62.1875 C0.775 62.1875 10.675 62.1875 20.875 62.1875 C20.875 70.4375 20.875 78.6875 20.875 87.1875 C10.975 87.1875 1.075 87.1875 -9.125 87.1875 C-9.125 121.5075 -9.125 155.8275 -9.125 191.1875 C-20.345 191.1875 -31.565 191.1875 -43.125 191.1875 C-43.125 156.8675 -43.125 122.5475 -43.125 87.1875 C-51.375 87.1875 -59.625 87.1875 -68.125 87.1875 C-68.125 78.9375 -68.125 70.6875 -68.125 62.1875 C-59.875 62.1875 -51.625 62.1875 -43.125 62.1875 C-43.15980469 60.37765625 -43.19460938 58.5678125 -43.23046875 56.703125 C-43.25862998 54.28125937 -43.28592761 51.85938359 -43.3125 49.4375 C-43.33763672 48.25027344 -43.36277344 47.06304687 -43.38867188 45.83984375 C-43.50434686 31.7274955 -40.51132442 20.02788856 -30.9375 9.375 C-22.10296647 1.03346499 -11.49109657 0.00664994 0 0 Z " fill="#000000" transform="translate(1307.125,448.8125)"/>
<path d="M0 0 C1.09054687 -0.01224609 2.18109375 -0.02449219 3.3046875 -0.03710938 C10.07223918 -0.04925211 16.30291015 0.55511348 22.875 2.1875 C23.17842417 11.97949974 22.07012587 21.48777306 20.875 31.1875 C20.30652344 30.98253906 19.73804688 30.77757812 19.15234375 30.56640625 C8.98378915 27.01497566 8.98378915 27.01497566 -1.328125 28.98046875 C-4.65565806 31.21570291 -6.00979267 34.43233858 -7.125 38.1875 C-8.05399862 43.4840824 -8.40704364 48.76487602 -8.6875 54.125 C-8.831875 56.785625 -8.97625 59.44625 -9.125 62.1875 C0.775 62.1875 10.675 62.1875 20.875 62.1875 C20.875 70.4375 20.875 78.6875 20.875 87.1875 C10.975 87.1875 1.075 87.1875 -9.125 87.1875 C-9.125 121.5075 -9.125 155.8275 -9.125 191.1875 C-20.345 191.1875 -31.565 191.1875 -43.125 191.1875 C-43.125 156.8675 -43.125 122.5475 -43.125 87.1875 C-51.375 87.1875 -59.625 87.1875 -68.125 87.1875 C-68.125 78.9375 -68.125 70.6875 -68.125 62.1875 C-59.875 62.1875 -51.625 62.1875 -43.125 62.1875 C-43.15980469 60.37765625 -43.19460938 58.5678125 -43.23046875 56.703125 C-43.25862998 54.28125937 -43.28592761 51.85938359 -43.3125 49.4375 C-43.33763672 48.25027344 -43.36277344 47.06304687 -43.38867188 45.83984375 C-43.50434686 31.7274955 -40.51132442 20.02788856 -30.9375 9.375 C-22.10296647 1.03346499 -11.49109657 0.00664994 0 0 Z " fill="#000000" transform="translate(1214.125,448.8125)"/>
<path d="M0 0 C12.21 0 24.42 0 37 0 C47.36235141 30.32351254 57.69133893 60.65819898 68 91 C70.00658011 85.18975348 72.005741 79.37698703 74 73.5625 C74.30602142 72.67038818 74.61204285 71.77827637 74.92733765 70.85913086 C81.11994557 52.77996391 87.06200997 34.622105 92.93164062 16.43579102 C93.42901985 14.90016258 93.42901985 14.90016258 93.93644714 13.33351135 C94.5619129 11.40210729 95.18484194 9.46987937 95.80488586 7.53672791 C96.08043808 6.68671707 96.3559903 5.83670624 96.63989258 4.9609375 C96.87968338 4.21634277 97.11947418 3.47174805 97.36653137 2.70458984 C98 1 98 1 99 0 C101.52094076 -0.08847743 104.01430893 -0.11527301 106.53515625 -0.09765625 C107.66503212 -0.09553383 107.66503212 -0.09553383 108.81773376 -0.09336853 C111.2326956 -0.08775376 113.64756601 -0.07519883 116.0625 -0.0625 C117.69596221 -0.0574869 119.32942586 -0.05292366 120.96289062 -0.04882812 C124.97529585 -0.03777954 128.98763241 -0.02050506 133 0 C131.77670438 6.21139738 130.06401323 12.02180797 127.82421875 17.9375 C127.50663605 18.79129242 127.18905334 19.64508484 126.86184692 20.52474976 C125.80904346 23.35184664 124.7481882 26.175853 123.6875 29 C122.93967103 31.0044675 122.19253558 33.00919386 121.44604492 35.01416016 C120.25184023 38.22144738 119.05719801 41.42856447 117.86048889 44.63491821 C114.69010426 53.13151668 111.54604186 61.63763042 108.4140625 70.1484375 C108.18052126 70.78300117 107.94698002 71.41756485 107.70636177 72.07135773 C106.5348439 75.25480952 105.36368332 78.4383926 104.19277954 81.62207031 C100.82066412 90.79072904 97.44718107 99.95887345 94.06256104 109.1229248 C93.37831469 110.9756449 92.69463544 112.82857457 92.01165771 114.6817627 C91.16040325 116.98944756 90.30558179 119.29576949 89.44921875 121.6015625 C88.99248779 122.83471191 88.53575684 124.06786133 88.06518555 125.33837891 C87 128 87 128 86 129 C83.1156618 129.08865208 80.25537842 129.11521296 77.37109375 129.09765625 C76.07474754 129.09553383 76.07474754 129.09553383 74.75221252 129.09336853 C71.98060708 129.08775239 69.2090812 129.07519719 66.4375 129.0625 C64.5631522 129.05748708 62.68880315 129.05292381 60.81445312 129.04882812 C56.20960456 129.03777772 51.60481579 129.0205023 47 129 C41.96234259 116.61716623 37.15981912 104.17870547 32.6427002 91.59689331 C30.94631006 86.87393721 29.23733574 82.15554559 27.52734375 77.4375 C27.16770538 76.44511826 26.80806702 75.45273651 26.43753052 74.43028259 C21.15163324 59.87483876 15.71623812 45.37457467 10.2956543 30.86889648 C9.90574814 29.82527954 9.51584198 28.7816626 9.11412048 27.7064209 C8.39046921 25.77016823 7.66628561 23.83411438 6.94142151 21.89831543 C6.28733884 20.1493437 5.63520715 18.39964084 4.98522949 16.6491394 C4.2836963 14.76281827 3.57572732 12.87888531 2.86340332 10.99661255 C2.49630249 10.01425629 2.12920166 9.03190002 1.75097656 8.01977539 C1.41567932 7.13004532 1.08038208 6.24031525 0.73492432 5.32362366 C0 3 0 3 0 0 Z " fill="#000000" transform="translate(1821,765)"/>
<path d="M0 0 C1.94156982 0.01160156 1.94156982 0.01160156 3.92236328 0.0234375 C14.75170202 0.21684253 24.92109024 1.74508731 35.375 4.5 C35.496766 10.96543659 35.21600087 17.21520958 34.375 23.625 C34.27960937 24.39070312 34.18421875 25.15640625 34.0859375 25.9453125 C33.85440605 27.7975641 33.615515 29.64889348 33.375 31.5 C32.8173999 31.34853516 32.2597998 31.19707031 31.68530273 31.04101562 C10.3499747 24.89228056 10.3499747 24.89228056 -10.625 29.5 C-13.27117965 31.7492527 -14.39247015 33.26205538 -15.03515625 36.68359375 C-15.2637086 40.13347999 -15.2637086 40.13347999 -14.625 43.5 C-11.40489682 46.64521706 -8.1981202 48.28943528 -4 49.8125 C-2.865625 50.2353125 -1.73125 50.658125 -0.5625 51.09375 C2.30097308 52.12909667 5.17909183 53.1154508 8.0625 54.09375 C20.3523868 58.32721831 30.9862886 62.72068744 38.25390625 74.12890625 C42.82684886 83.80060021 42.88571003 96.36704525 40.6875 106.74609375 C39.77295405 109.18869357 38.74556671 111.284037 37.375 113.5 C36.95089844 114.19996094 36.52679687 114.89992188 36.08984375 115.62109375 C28.61579456 126.63438628 16.8049585 132.41848074 4.0390625 135.10961914 C-1.48860958 135.91962167 -7.0491727 135.83640727 -12.625 135.8125 C-13.90705322 135.80976074 -15.18910645 135.80702148 -16.51000977 135.80419922 C-28.37093054 135.67396635 -39.37627082 134.44993544 -50.625 130.5 C-51.05346791 107.1723026 -51.05346791 107.1723026 -47.625 101.5 C-46.90957031 101.82613281 -46.19414062 102.15226563 -45.45703125 102.48828125 C-32.57433573 108.13800153 -17.9010431 112.80411525 -4.0625 107.8125 C-0.16521845 105.98109453 2.46043633 104.50317859 4.375 100.5 C5.10958494 95.76427158 5.11300691 91.91451324 2.875 87.625 C-3.28035739 82.39294622 -10.83778221 80.37034151 -18.4375 78.125 C-30.39638781 74.42207442 -41.62885141 70.63773655 -48.625 59.5 C-51.41009711 53.24235006 -52.14670809 47.36050806 -52.0625 40.5625 C-52.05275146 39.68223145 -52.04300293 38.80196289 -52.03295898 37.89501953 C-51.73817523 27.11692592 -48.61309406 20.55431546 -41.09765625 12.7578125 C-29.62146467 2.27876237 -15.11035765 -0.2210213 0 0 Z " fill="#000000" transform="translate(2253.625,761.5)"/>
<path d="M0 0 C1.94156982 0.01160156 1.94156982 0.01160156 3.92236328 0.0234375 C14.75170202 0.21684253 24.92109024 1.74508731 35.375 4.5 C35.496766 10.96543659 35.21600087 17.21520958 34.375 23.625 C34.27960938 24.39070312 34.18421875 25.15640625 34.0859375 25.9453125 C33.85440605 27.7975641 33.615515 29.64889348 33.375 31.5 C32.8173999 31.34853516 32.2597998 31.19707031 31.68530273 31.04101562 C10.3499747 24.89228056 10.3499747 24.89228056 -10.625 29.5 C-13.27117965 31.7492527 -14.39247015 33.26205538 -15.03515625 36.68359375 C-15.2637086 40.13347999 -15.2637086 40.13347999 -14.625 43.5 C-11.40489682 46.64521706 -8.1981202 48.28943528 -4 49.8125 C-2.865625 50.2353125 -1.73125 50.658125 -0.5625 51.09375 C2.30097308 52.12909667 5.17909183 53.1154508 8.0625 54.09375 C20.3523868 58.32721831 30.9862886 62.72068744 38.25390625 74.12890625 C42.82684886 83.80060021 42.88571003 96.36704525 40.6875 106.74609375 C39.77295405 109.18869357 38.74556671 111.284037 37.375 113.5 C36.95089844 114.19996094 36.52679687 114.89992188 36.08984375 115.62109375 C28.61579456 126.63438628 16.8049585 132.41848074 4.0390625 135.10961914 C-1.48860958 135.91962167 -7.0491727 135.83640727 -12.625 135.8125 C-13.90705322 135.80976074 -15.18910645 135.80702148 -16.51000977 135.80419922 C-28.37093054 135.67396635 -39.37627082 134.44993544 -50.625 130.5 C-51.05346791 107.1723026 -51.05346791 107.1723026 -47.625 101.5 C-46.90957031 101.82613281 -46.19414063 102.15226563 -45.45703125 102.48828125 C-32.57433573 108.13800153 -17.9010431 112.80411525 -4.0625 107.8125 C-0.16521845 105.98109453 2.46043633 104.50317859 4.375 100.5 C5.10958494 95.76427158 5.11300691 91.91451324 2.875 87.625 C-3.28035739 82.39294622 -10.83778221 80.37034151 -18.4375 78.125 C-30.39638781 74.42207442 -41.62885141 70.63773655 -48.625 59.5 C-51.41009711 53.24235006 -52.14670809 47.36050806 -52.0625 40.5625 C-52.05275146 39.68223145 -52.04300293 38.80196289 -52.03295898 37.89501953 C-51.73817523 27.11692592 -48.61309406 20.55431546 -41.09765625 12.7578125 C-29.62146467 2.27876237 -15.11035765 -0.2210213 0 0 Z " fill="#000000" transform="translate(921.625,761.5)"/>
<path d="M0 0 C0 12.21 0 24.42 0 37 C9.9 37 19.8 37 30 37 C30 45.25 30 53.5 30 62 C20.1 62 10.2 62 0 62 C0.08891302 69.6090824 0.17967935 77.21778541 0.28729248 84.8265686 C0.33692119 88.37099499 0.3834054 91.91539438 0.421875 95.45996094 C0.46632167 99.54119345 0.52582579 103.62209291 0.5859375 107.703125 C0.59748871 108.95361633 0.60903992 110.20410767 0.62094116 111.49249268 C0.77369103 120.72019508 0.95548173 130.51942053 5 139 C12.19772346 143.11298483 19.37212807 141.79046512 27 140 C28.65 139.67 30.3 139.34 32 139 C32 148.24 32 157.48 32 167 C24.05617426 168.76529461 17.61986185 169.36613652 9.625 169.375 C8.47 169.39949219 7.315 169.42398438 6.125 169.44921875 C-5.05480868 169.48707363 -14.75634099 166.82694657 -23 159 C-30.98114352 150.40777124 -34.13320432 140.19093545 -34.11352539 128.6394043 C-34.11367142 127.91690994 -34.11381744 127.19441559 -34.1139679 126.45002747 C-34.11327422 124.07472678 -34.10550745 121.69950565 -34.09765625 119.32421875 C-34.09579013 117.67226708 -34.09436714 116.02031485 -34.09336853 114.36836243 C-34.08955861 110.02992208 -34.07974139 105.69151545 -34.06866455 101.35308838 C-34.0584176 96.92224585 -34.05386388 92.49139785 -34.04882812 88.06054688 C-34.03811771 79.37368075 -34.0205333 70.68684846 -34 62 C-42.25 62 -50.5 62 -59 62 C-59 53.75 -59 45.5 -59 37 C-50.75 37 -42.5 37 -34 37 C-34 28.42 -34 19.84 -34 11 C-22.73510541 6.49404216 -22.73510541 6.49404216 -18.28125 5.078125 C-17.32992187 4.77519531 -16.37859375 4.47226562 -15.3984375 4.16015625 C-14.44195313 3.85980469 -13.48546875 3.55945313 -12.5 3.25 C-11.51257812 2.93417969 -10.52515625 2.61835937 -9.5078125 2.29296875 C-2.2616342 0 -2.2616342 0 0 0 Z " fill="#000000" transform="translate(2436,728)"/>
<path d="M0 0 C0 12.21 0 24.42 0 37 C9.9 37 19.8 37 30 37 C30 45.25 30 53.5 30 62 C20.1 62 10.2 62 0 62 C0.08891302 69.6090824 0.17967935 77.21778541 0.28729248 84.8265686 C0.33692119 88.37099499 0.3834054 91.91539438 0.421875 95.45996094 C0.46632167 99.54119345 0.52582579 103.62209291 0.5859375 107.703125 C0.59748871 108.95361633 0.60903992 110.20410767 0.62094116 111.49249268 C0.77369103 120.72019508 0.95548173 130.51942053 5 139 C12.19772346 143.11298483 19.37212807 141.79046512 27 140 C28.65 139.67 30.3 139.34 32 139 C32 148.24 32 157.48 32 167 C24.05617426 168.76529461 17.61986185 169.36613652 9.625 169.375 C8.47 169.39949219 7.315 169.42398438 6.125 169.44921875 C-5.05480868 169.48707363 -14.75634099 166.82694657 -23 159 C-30.98114352 150.40777124 -34.13320432 140.19093545 -34.11352539 128.6394043 C-34.11367142 127.91690994 -34.11381744 127.19441559 -34.1139679 126.45002747 C-34.11327422 124.07472678 -34.10550745 121.69950565 -34.09765625 119.32421875 C-34.09579013 117.67226708 -34.09436714 116.02031485 -34.09336853 114.36836243 C-34.08955861 110.02992208 -34.07974139 105.69151545 -34.06866455 101.35308838 C-34.0584176 96.92224585 -34.05386388 92.49139785 -34.04882812 88.06054688 C-34.03811771 79.37368075 -34.0205333 70.68684846 -34 62 C-42.25 62 -50.5 62 -59 62 C-59 53.75 -59 45.5 -59 37 C-50.75 37 -42.5 37 -34 37 C-34 28.42 -34 19.84 -34 11 C-22.73510541 6.49404216 -22.73510541 6.49404216 -18.28125 5.078125 C-17.32992187 4.77519531 -16.37859375 4.47226562 -15.3984375 4.16015625 C-14.44195312 3.85980469 -13.48546875 3.55945313 -12.5 3.25 C-11.51257813 2.93417969 -10.52515625 2.61835937 -9.5078125 2.29296875 C-2.2616342 0 -2.2616342 0 0 0 Z " fill="#000000" transform="translate(437,728)"/>
<path d="M0 0 C0 12.21 0 24.42 0 37 C9.9 37 19.8 37 30 37 C30 45.25 30 53.5 30 62 C20.1 62 10.2 62 0 62 C0.08891302 69.6090824 0.17967935 77.21778541 0.28729248 84.8265686 C0.33692119 88.37099499 0.3834054 91.91539438 0.421875 95.45996094 C0.46632167 99.54119345 0.52582579 103.62209291 0.5859375 107.703125 C0.59748871 108.95361633 0.60903992 110.20410767 0.62094116 111.49249268 C0.77369103 120.72019508 0.95548173 130.51942053 5 139 C12.19772346 143.11298483 19.37212807 141.79046512 27 140 C28.65 139.67 30.3 139.34 32 139 C32 148.24 32 157.48 32 167 C24.05617426 168.76529461 17.61986185 169.36613652 9.625 169.375 C8.47 169.39949219 7.315 169.42398438 6.125 169.44921875 C-5.05480868 169.48707363 -14.75634099 166.82694657 -23 159 C-30.98114352 150.40777124 -34.13320432 140.19093545 -34.11352539 128.6394043 C-34.11367142 127.91690994 -34.11381744 127.19441559 -34.1139679 126.45002747 C-34.11327422 124.07472678 -34.10550745 121.69950565 -34.09765625 119.32421875 C-34.09579013 117.67226708 -34.09436714 116.02031485 -34.09336853 114.36836243 C-34.08955861 110.02992208 -34.07974139 105.69151545 -34.06866455 101.35308838 C-34.0584176 96.92224585 -34.05386388 92.49139785 -34.04882812 88.06054688 C-34.03811771 79.37368075 -34.0205333 70.68684846 -34 62 C-42.25 62 -50.5 62 -59 62 C-59 53.75 -59 45.5 -59 37 C-50.75 37 -42.5 37 -34 37 C-34 28.42 -34 19.84 -34 11 C-22.73510541 6.49404216 -22.73510541 6.49404216 -18.28125 5.078125 C-17.32992187 4.77519531 -16.37859375 4.47226562 -15.3984375 4.16015625 C-14.44195313 3.85980469 -13.48546875 3.55945313 -12.5 3.25 C-11.51257812 2.93417969 -10.52515625 2.61835938 -9.5078125 2.29296875 C-2.2616342 0 -2.2616342 0 0 0 Z " fill="#000000" transform="translate(2422,474)"/>
<path d="M0 0 C9.9 0 19.8 0 30 0 C41.85757725 22.45753267 53.57093044 44.97357023 64.84619141 67.72924805 C65.17561737 68.39236496 65.50504333 69.05548187 65.8444519 69.73869324 C66.74002762 71.54179659 67.63327657 73.34605509 68.52636719 75.15039062 C69.97944563 78.08889294 69.97944563 78.08889294 72 81 C72.33 54.27 72.66 27.54 73 0 C80.59 0 88.18 0 96 0 C96 38.28 96 76.56 96 116 C86.43 116 76.86 116 67 116 C59.00313297 101.62588457 51.48165438 87.09844513 44.16943359 72.37011719 C39.5618186 63.0936818 34.8621311 53.87819054 29.98046875 44.7421875 C27.92583962 40.85987052 25.96437705 36.9287541 24 33 C23.67 60.39 23.34 87.78 23 116 C15.41 116 7.82 116 0 116 C0 77.72 0 39.44 0 0 Z " fill="#006AB3" transform="translate(915,986)"/>
<path d="M0 0 C7.92 0 15.84 0 24 0 C24 15.18 24 30.36 24 46 C39.18 46 54.36 46 70 46 C70 30.82 70 15.64 70 0 C77.92 0 85.84 0 94 0 C94 38.28 94 76.56 94 116 C86.08 116 78.16 116 70 116 C70 99.17 70 82.34 70 65 C54.82 65 39.64 65 24 65 C24 81.83 24 98.66 24 116 C16.08 116 8.16 116 0 116 C0 77.72 0 39.44 0 0 Z " fill="#006AB3" transform="translate(1037,986)"/>
<path d="M0 0 C11.22 0 22.44 0 34 0 C34 62.04 34 124.08 34 188 C22.78 188 11.56 188 0 188 C0 125.96 0 63.92 0 0 Z " fill="#000000" transform="translate(2309,452)"/>
<path d="M0 0 C11.22 0 22.44 0 34 0 C34 62.04 34 124.08 34 188 C22.78 188 11.56 188 0 188 C0 125.96 0 63.92 0 0 Z " fill="#000000" transform="translate(1558,452)"/>
<path d="M0 0 C7.59 0 15.18 0 23 0 C23 41.25 23 82.5 23 125 C15.41 125 7.82 125 0 125 C-0.495 121.535 -0.495 121.535 -1 118 C-1.4125 118.39832031 -1.825 118.79664063 -2.25 119.20703125 C-2.8275 119.73683594 -3.405 120.26664063 -4 120.8125 C-4.556875 121.33457031 -5.11375 121.85664062 -5.6875 122.39453125 C-12.09878728 126.84561076 -18.36284571 127.50095864 -25.9375 127.4375 C-26.77990234 127.45748047 -27.62230469 127.47746094 -28.49023438 127.49804688 C-37.65296141 127.4909932 -44.59796192 124.12513105 -51.21875 117.8984375 C-54.10179954 114.82571364 -56.18260633 111.80294475 -58 108 C-58.39316406 107.18015625 -58.78632812 106.3603125 -59.19140625 105.515625 C-62.2138984 97.72243968 -62.38790653 90.15885972 -62.4375 81.875 C-62.4475708 80.77881348 -62.4576416 79.68262695 -62.46801758 78.55322266 C-62.331904 65.70834814 -59.17352609 53.38201531 -50 44 C-39.82083292 36.39196829 -29.30083187 35.91550964 -17 37 C-9.41037784 38.60356963 -6.69230969 41.30769031 -1 47 C-0.67 31.49 -0.34 15.98 0 0 Z M-33.75 62.3125 C-39.3883687 70.07465424 -38.89004616 80.86233786 -38 90 C-36.54176351 96.73941728 -34.00972468 102.23465213 -29 107 C-24.72126972 109.61477961 -19.8735776 109.65315988 -15 109 C-9.64280375 107.3138705 -6.87967055 103.98853317 -4.04296875 99.29296875 C0.16901961 90.03290445 0.91876202 78.06472016 -2.625 68.4375 C-5.13321525 63.1817698 -8.32261318 58.66432154 -13.3125 55.5625 C-22.11184012 53.72077765 -28.02907162 54.92851104 -33.75 62.3125 Z " fill="#006AB3" transform="translate(1740,977)"/>
<path d="M0 0 C0.7209082 0.00249756 1.44181641 0.00499512 2.18457031 0.00756836 C3.53953613 0.02122437 3.53953613 0.02122437 4.921875 0.03515625 C9.253125 0.06609375 9.253125 0.06609375 13.671875 0.09765625 C13.671875 11.64765625 13.671875 23.19765625 13.671875 35.09765625 C8.391875 34.43765625 3.111875 33.77765625 -2.328125 33.09765625 C-8.98109448 33.90899399 -14.16071649 35.34677776 -18.6640625 40.6796875 C-25.30883501 50.24413279 -27.37760534 62.43814432 -27.53344727 73.85913086 C-27.55339249 75.15995102 -27.57333771 76.46077118 -27.59388733 77.80101013 C-27.61086528 79.20067225 -27.62774431 80.60033558 -27.64453125 82 C-27.6651312 83.44731702 -27.68612841 84.89462844 -27.70750427 86.3419342 C-27.76241126 90.13118927 -27.8119574 93.92049577 -27.86035156 97.70983887 C-27.91968357 102.26715913 -27.98573703 106.82438643 -28.05065155 111.38162994 C-28.1482657 118.28691475 -28.23739156 125.19226218 -28.328125 132.09765625 C-39.548125 132.09765625 -50.768125 132.09765625 -62.328125 132.09765625 C-62.328125 89.52765625 -62.328125 46.95765625 -62.328125 3.09765625 C-52.428125 3.09765625 -42.528125 3.09765625 -32.328125 3.09765625 C-31.998125 10.35765625 -31.668125 17.61765625 -31.328125 25.09765625 C-28.853125 20.64265625 -28.853125 20.64265625 -26.328125 16.09765625 C-19.73387049 7.19300599 -11.55902608 -0.08256447 0 0 Z " fill="#000000" transform="translate(2176.328125,761.90234375)"/>
<path d="M0 0 C0.7209082 0.00249756 1.44181641 0.00499512 2.18457031 0.00756836 C3.53953613 0.02122437 3.53953613 0.02122437 4.921875 0.03515625 C9.253125 0.06609375 9.253125 0.06609375 13.671875 0.09765625 C13.671875 11.64765625 13.671875 23.19765625 13.671875 35.09765625 C8.391875 34.43765625 3.111875 33.77765625 -2.328125 33.09765625 C-8.98109448 33.90899399 -14.16071649 35.34677776 -18.6640625 40.6796875 C-25.30883501 50.24413279 -27.37760534 62.43814432 -27.53344727 73.85913086 C-27.55339249 75.15995102 -27.57333771 76.46077118 -27.59388733 77.80101013 C-27.61086528 79.20067225 -27.62774431 80.60033558 -27.64453125 82 C-27.6651312 83.44731702 -27.68612841 84.89462844 -27.70750427 86.3419342 C-27.76241126 90.13118927 -27.8119574 93.92049577 -27.86035156 97.70983887 C-27.91968357 102.26715913 -27.98573703 106.82438643 -28.05065155 111.38162994 C-28.1482657 118.28691475 -28.23739156 125.19226218 -28.328125 132.09765625 C-39.548125 132.09765625 -50.768125 132.09765625 -62.328125 132.09765625 C-62.328125 89.52765625 -62.328125 46.95765625 -62.328125 3.09765625 C-52.428125 3.09765625 -42.528125 3.09765625 -32.328125 3.09765625 C-31.998125 10.35765625 -31.668125 17.61765625 -31.328125 25.09765625 C-28.853125 20.64265625 -28.853125 20.64265625 -26.328125 16.09765625 C-19.73387049 7.19300599 -11.55902608 -0.08256447 0 0 Z " fill="#000000" transform="translate(844.328125,761.90234375)"/>
<path d="M0 0 C0.7209082 0.00249756 1.44181641 0.00499512 2.18457031 0.00756836 C3.53953613 0.02122437 3.53953613 0.02122437 4.921875 0.03515625 C9.253125 0.06609375 9.253125 0.06609375 13.671875 0.09765625 C13.671875 11.64765625 13.671875 23.19765625 13.671875 35.09765625 C8.391875 34.43765625 3.111875 33.77765625 -2.328125 33.09765625 C-8.98109448 33.90899399 -14.16071649 35.34677776 -18.6640625 40.6796875 C-25.30883501 50.24413279 -27.37760534 62.43814432 -27.53344727 73.85913086 C-27.55339249 75.15995102 -27.57333771 76.46077118 -27.59388733 77.80101013 C-27.61086528 79.20067225 -27.62774431 80.60033558 -27.64453125 82 C-27.6651312 83.44731702 -27.68612841 84.89462844 -27.70750427 86.3419342 C-27.76241126 90.13118927 -27.8119574 93.92049577 -27.86035156 97.70983887 C-27.91968357 102.26715913 -27.98573703 106.82438643 -28.05065155 111.38162994 C-28.1482657 118.28691475 -28.23739156 125.19226218 -28.328125 132.09765625 C-39.548125 132.09765625 -50.768125 132.09765625 -62.328125 132.09765625 C-62.328125 89.52765625 -62.328125 46.95765625 -62.328125 3.09765625 C-52.428125 3.09765625 -42.528125 3.09765625 -32.328125 3.09765625 C-31.998125 10.35765625 -31.668125 17.61765625 -31.328125 25.09765625 C-28.853125 20.64265625 -28.853125 20.64265625 -26.328125 16.09765625 C-19.73387049 7.19300599 -11.55902608 -0.08256447 0 0 Z " fill="#000000" transform="translate(358.328125,761.90234375)"/>
<path d="M0 0 C0.99443769 2.98331306 1.02452065 4.20838759 0.66015625 7.23046875 C0.56669922 8.03291016 0.47324219 8.83535156 0.37695312 9.66210938 C0.27318359 10.49548828 0.16941406 11.32886719 0.0625 12.1875 C-0.03740234 13.03248047 -0.13730469 13.87746094 -0.24023438 14.74804688 C-0.48757108 16.83274197 -0.74301041 18.91647284 -1 21 C-1.99257812 20.71125 -2.98515625 20.4225 -4.0078125 20.125 C-14.17052052 17.29475129 -25.57343169 14.17393582 -35.6875 18.6875 C-39.9426319 21.27876622 -41.469216 24.21808229 -42.875 28.9375 C-43.03978561 32.97474747 -42.32663092 34.68631354 -40 38 C-34.73146073 42.03527439 -28.74879298 44.51365288 -22.625 46.9375 C0.53337903 56.4580677 0.53337903 56.4580677 5.6640625 68.66796875 C7.28938793 73.26426761 7.49916275 77.59527444 7.4375 82.4375 C7.42920166 83.27643799 7.42090332 84.11537598 7.41235352 84.97973633 C7.24571987 91.06334705 6.59468952 95.93524343 3 101 C2.53722656 101.6909375 2.07445312 102.381875 1.59765625 103.09375 C-4.48308765 111.06264665 -14.23147945 115.44064911 -24 117 C-28.33644382 117.32671588 -32.65238944 117.37984515 -37 117.375 C-38.19085205 117.37628906 -39.3817041 117.37757812 -40.60864258 117.37890625 C-49.93631534 117.2675235 -58.17372607 116.02769581 -67 113 C-66.85758352 110.64558284 -66.71115192 108.29152516 -66.5625 105.9375 C-66.48128906 104.62652344 -66.40007812 103.31554688 -66.31640625 101.96484375 C-66.02101751 98.26336762 -65.56734612 94.66629552 -65 91 C-64.46632813 91.18175781 -63.93265625 91.36351562 -63.3828125 91.55078125 C-61.79568087 92.08623223 -60.20553531 92.61279173 -58.61328125 93.1328125 C-56.95530747 93.68299214 -55.30530387 94.25832921 -53.66796875 94.8671875 C-45.10531176 97.84920735 -35.43062472 98.77985367 -26.875 95.3125 C-23.3303417 93.41805506 -20.90137194 91.6374072 -19 88 C-18.28347332 83.42167369 -18.61895178 79.04778197 -21 75 C-24.04940012 73.26829498 -27.31873346 71.98066004 -30.54296875 70.609375 C-31.61740234 70.14660156 -32.69183594 69.68382812 -33.79882812 69.20703125 C-36.03579717 68.24519903 -38.2753454 67.28934054 -40.51757812 66.33984375 C-50.89486967 61.84734902 -62.44681401 56.43407492 -67.09765625 45.39453125 C-70.40654208 34.4829031 -69.83376456 23.81498161 -64.78125 13.515625 C-59.30319466 4.44640004 -50.99318126 0.38850421 -41.12084961 -2.56152344 C-29.45293511 -4.97381473 -11.00672009 -5.15343542 0 0 Z " fill="#006AB3" transform="translate(1222,987)"/>
<path d="M0 0 C2.04430036 1.4414443 3.88973137 2.97850077 5.75390625 4.64453125 C6.35847656 5.134375 6.96304688 5.62421875 7.5859375 6.12890625 C14.37356587 12.10320225 19.22774932 21.85746978 19.9309082 30.92773438 C20.32350181 46.93178915 19.80847221 60.03883054 8.75390625 72.64453125 C-2.71211185 83.74824023 -15.52527869 85.12852899 -30.73046875 84.91796875 C-42.42446047 84.51975797 -52.13265301 79.95745087 -60.28125 71.54296875 C-70.78962974 58.91506444 -71.36571875 44.3818135 -70.24609375 28.64453125 C-69.43870801 24.58566274 -68.22781657 21.26361194 -66.24609375 17.64453125 C-65.70275391 16.58298828 -65.70275391 16.58298828 -65.1484375 15.5 C-59.37226894 5.25953844 -51.01886085 -0.60986445 -40.10546875 -4.46484375 C-27.19873482 -7.44332081 -11.47634207 -6.92572295 0 0 Z M-41.62109375 20.51953125 C-47.22628969 28.25407537 -47.17657416 37.47395295 -46.24609375 46.64453125 C-44.48457858 54.63324059 -41.34380376 60.71759553 -34.62109375 65.51953125 C-28.38611852 67.59785633 -21.93410956 67.76396454 -15.87109375 65.01953125 C-9.60671095 61.3300788 -6.56967936 56.59187997 -4.75390625 49.68359375 C-3.13963021 40.02277251 -2.72373316 29.13798643 -8.24609375 20.64453125 C-12.18723741 16.18039223 -16.48900486 13.06198557 -22.49609375 12.39453125 C-30.74017224 11.99238108 -36.43304916 13.97808373 -41.62109375 20.51953125 Z " fill="#006AB3" transform="translate(2053.24609375,1019.35546875)"/>
<path d="M0 0 C2.04430036 1.4414443 3.88973137 2.97850077 5.75390625 4.64453125 C6.35847656 5.134375 6.96304687 5.62421875 7.5859375 6.12890625 C14.37356587 12.10320225 19.22774932 21.85746978 19.9309082 30.92773438 C20.32350181 46.93178915 19.80847221 60.03883054 8.75390625 72.64453125 C-2.71211185 83.74824023 -15.52527869 85.12852899 -30.73046875 84.91796875 C-42.42446047 84.51975797 -52.13265301 79.95745087 -60.28125 71.54296875 C-70.78962974 58.91506444 -71.36571875 44.3818135 -70.24609375 28.64453125 C-69.43870801 24.58566274 -68.22781657 21.26361194 -66.24609375 17.64453125 C-65.70275391 16.58298828 -65.70275391 16.58298828 -65.1484375 15.5 C-59.37226894 5.25953844 -51.01886085 -0.60986445 -40.10546875 -4.46484375 C-27.19873482 -7.44332081 -11.47634207 -6.92572295 0 0 Z M-41.62109375 20.51953125 C-47.22628969 28.25407537 -47.17657416 37.47395295 -46.24609375 46.64453125 C-44.48457858 54.63324059 -41.34380376 60.71759553 -34.62109375 65.51953125 C-28.38611852 67.59785633 -21.93410956 67.76396454 -15.87109375 65.01953125 C-9.60671095 61.3300788 -6.56967936 56.59187997 -4.75390625 49.68359375 C-3.13963021 40.02277251 -2.72373316 29.13798643 -8.24609375 20.64453125 C-12.18723741 16.18039223 -16.48900486 13.06198557 -22.49609375 12.39453125 C-30.74017224 11.99238108 -36.43304916 13.97808373 -41.62109375 20.51953125 Z " fill="#006AB3" transform="translate(1442.24609375,1019.35546875)"/>
<path d="M0 0 C1.01191406 -0.02449219 2.02382812 -0.04898438 3.06640625 -0.07421875 C13.18580898 -0.1130897 22.0651502 2.31876461 29.47265625 9.46875 C37.73507863 19.00081175 37.42506883 32.17697424 37.5390625 44.13671875 C37.55842865 45.40852493 37.5777948 46.68033112 37.5977478 47.99067688 C37.64701768 51.33274007 37.68844206 54.67470411 37.72589111 58.01690674 C37.76627034 61.44300731 37.81720577 64.86895032 37.8671875 68.29492188 C37.96273147 74.9881873 38.04693624 81.68150881 38.125 88.375 C31.195 88.375 24.265 88.375 17.125 88.375 C16.795 85.075 16.465 81.775 16.125 78.375 C15.50625 79.261875 14.8875 80.14875 14.25 81.0625 C10.16983242 86.01028942 4.09012145 88.38662618 -1.875 90.375 C-13.43856798 91.12780432 -23.20790443 90.96198945 -32.75 83.625 C-38.08209432 78.50719789 -40.01287767 74.02409787 -40.34594727 66.55786133 C-40.45827314 58.35996039 -39.6413913 51.80604858 -34.21484375 45.421875 C-26.47827816 37.86005729 -16.01338745 35.40802707 -5.48046875 35.05859375 C-4.27841797 35.01669922 -3.07636719 34.97480469 -1.83789062 34.93164062 C-0.59201172 34.89232422 0.65386719 34.85300781 1.9375 34.8125 C3.20271484 34.76931641 4.46792969 34.72613281 5.77148438 34.68164062 C8.88921889 34.5757553 12.00703035 34.47367595 15.125 34.375 C14.83811027 32.934708 14.54206083 31.49623861 14.2421875 30.05859375 C14.07831543 29.25736084 13.91444336 28.45612793 13.74560547 27.63061523 C12.71512637 23.885298 11.36252373 22.51176566 8.125 20.375 C-2.65206026 16.97343925 -12.47324303 18.46136686 -22.4375 23.4375 C-23.40816406 23.96472656 -24.37882812 24.49195313 -25.37890625 25.03515625 C-27.875 26.375 -27.875 26.375 -30.875 27.375 C-30.875 20.445 -30.875 13.515 -30.875 6.375 C-20.35614863 1.93041491 -11.4394528 0.01446201 0 0 Z M-16.5625 56.125 C-18.30576691 60.44166092 -18.53817841 62.73275111 -17.875 67.375 C-15.34046343 70.59454645 -13.76202695 72.07932435 -9.875 73.375 C-3.15753449 74.13464877 1.9214671 73.83823152 7.47265625 69.796875 C12.9107961 65.11724638 14.8491477 60.16981991 15.67578125 53.17578125 C15.82402344 51.92152344 15.97226563 50.66726563 16.125 49.375 C-1.58967556 48.13184641 -1.58967556 48.13184641 -16.5625 56.125 Z " fill="#006AB3" transform="translate(1819.875,1013.625)"/>
<path d="M0 0 C0.83893799 0.00974854 1.67787598 0.01949707 2.54223633 0.02954102 C11.49066757 0.2868553 16.67025237 2.17271296 22.9375 8.6875 C31.18696824 18.6918253 30.71038083 29.82641306 30.66015625 42.24609375 C30.65828833 43.58130337 30.6568662 44.91651369 30.65586853 46.25172424 C30.65207277 49.74512668 30.642268 53.23848673 30.63116455 56.73187256 C30.6208868 60.3049665 30.61635735 63.87806737 30.61132812 67.45117188 C30.60064275 74.44663362 30.58307017 81.4420604 30.5625 88.4375 C22.9725 88.4375 15.3825 88.4375 7.5625 88.4375 C7.51351562 85.05113281 7.46453125 81.66476562 7.4140625 78.17578125 C7.35988292 74.85599769 7.30264246 71.53627981 7.24511719 68.21655273 C7.20709342 65.92884316 7.17219685 63.6410792 7.140625 61.35327148 C7.98643902 40.5278586 7.98643902 40.5278586 1.5625 21.4375 C-2.49200453 18.71247659 -6.72159744 18.80818192 -11.4375 19.4375 C-15.70960605 20.83094084 -18.43239978 22.96971434 -20.75 26.8125 C-25.16006859 36.28598068 -25.56115269 45.41031173 -25.75390625 55.72265625 C-25.77468735 56.66435165 -25.79546844 57.60604706 -25.81687927 58.57627869 C-25.88166778 61.55078645 -25.94092701 64.5253738 -26 67.5 C-26.04325265 69.53060681 -26.08686896 71.56120591 -26.13085938 73.59179688 C-26.23795201 78.54028467 -26.3375486 83.48884233 -26.4375 88.4375 C-34.0275 88.4375 -41.6175 88.4375 -49.4375 88.4375 C-49.4375 60.0575 -49.4375 31.6775 -49.4375 2.4375 C-42.1775 2.4375 -34.9175 2.4375 -27.4375 2.4375 C-27.1075 5.4075 -26.7775 8.3775 -26.4375 11.4375 C-25.880625 10.89480469 -25.32375 10.35210938 -24.75 9.79296875 C-23.986875 9.07753906 -23.22375 8.36210938 -22.4375 7.625 C-21.695 6.91730469 -20.9525 6.20960938 -20.1875 5.48046875 C-13.92453184 0.82772394 -7.66177226 -0.09910444 0 0 Z " fill="#006AB3" transform="translate(2139.4375,1013.5625)"/>
<path d="M0 0 C0.83893799 0.00974854 1.67787598 0.01949707 2.54223633 0.02954102 C11.49066757 0.2868553 16.67025237 2.17271296 22.9375 8.6875 C31.18696824 18.6918253 30.71038083 29.82641306 30.66015625 42.24609375 C30.65828833 43.58130337 30.6568662 44.91651369 30.65586853 46.25172424 C30.65207277 49.74512668 30.642268 53.23848673 30.63116455 56.73187256 C30.6208868 60.3049665 30.61635735 63.87806737 30.61132812 67.45117188 C30.60064275 74.44663362 30.58307017 81.4420604 30.5625 88.4375 C22.9725 88.4375 15.3825 88.4375 7.5625 88.4375 C7.51351563 85.05113281 7.46453125 81.66476562 7.4140625 78.17578125 C7.35988292 74.85599769 7.30264246 71.53627981 7.24511719 68.21655273 C7.20709342 65.92884316 7.17219685 63.6410792 7.140625 61.35327148 C7.98643902 40.5278586 7.98643902 40.5278586 1.5625 21.4375 C-2.49200453 18.71247659 -6.72159744 18.80818192 -11.4375 19.4375 C-15.70960605 20.83094084 -18.43239978 22.96971434 -20.75 26.8125 C-25.16006859 36.28598068 -25.56115269 45.41031173 -25.75390625 55.72265625 C-25.77468735 56.66435165 -25.79546844 57.60604706 -25.81687927 58.57627869 C-25.88166778 61.55078645 -25.94092701 64.5253738 -26 67.5 C-26.04325265 69.53060681 -26.08686896 71.56120591 -26.13085938 73.59179688 C-26.23795201 78.54028467 -26.3375486 83.48884233 -26.4375 88.4375 C-34.0275 88.4375 -41.6175 88.4375 -49.4375 88.4375 C-49.4375 60.0575 -49.4375 31.6775 -49.4375 2.4375 C-42.1775 2.4375 -34.9175 2.4375 -27.4375 2.4375 C-27.1075 5.4075 -26.7775 8.3775 -26.4375 11.4375 C-25.880625 10.89480469 -25.32375 10.35210938 -24.75 9.79296875 C-23.986875 9.07753906 -23.22375 8.36210938 -22.4375 7.625 C-21.695 6.91730469 -20.9525 6.20960938 -20.1875 5.48046875 C-13.92453184 0.82772394 -7.66177226 -0.09910444 0 0 Z " fill="#006AB3" transform="translate(1630.4375,1013.5625)"/>
<path d="M0 0 C7.59 0 15.18 0 23 0 C23.04898438 3.47015625 23.09796875 6.9403125 23.1484375 10.515625 C23.20259221 13.91149867 23.25984257 17.3073072 23.31738281 20.703125 C23.35544445 23.0461737 23.39033518 25.38927631 23.421875 27.73242188 C23.46802509 31.11868436 23.52593272 34.50458294 23.5859375 37.890625 C23.59748871 38.92237854 23.60903992 39.95413208 23.62094116 41.01715088 C23.7862481 54.69295903 23.7862481 54.69295903 29 67 C33.05450453 69.72502341 37.28409744 69.62931808 42 69 C46.27210605 67.60655916 48.99489978 65.46778566 51.3125 61.625 C55.81913537 51.94407958 56.11325666 42.3758451 56.31640625 31.8359375 C56.33718735 30.91785309 56.35796844 29.99976868 56.37937927 29.05386353 C56.44403956 26.16097484 56.50336546 23.26800636 56.5625 20.375 C56.60576495 18.39712762 56.64938157 16.41926291 56.69335938 14.44140625 C56.80028614 9.62768417 56.89997664 4.81389011 57 0 C64.59 0 72.18 0 80 0 C80 28.38 80 56.76 80 86 C72.74 86 65.48 86 58 86 C57.505 81.545 57.505 81.545 57 77 C56.01 77.9075 55.02 78.815 54 79.75 C44.67003173 87.77149711 35.01400347 88.67239261 23.11376953 88.17480469 C16.22144397 87.60482258 11.10604007 84.03054449 6.50390625 79.0546875 C-0.65044683 69.28016875 -0.14432428 57.73161223 -0.09765625 46.19140625 C-0.09578833 44.85619663 -0.0943662 43.52098631 -0.09336853 42.18577576 C-0.08957277 38.69237332 -0.079768 35.19901327 -0.06866455 31.70562744 C-0.0583868 28.1325335 -0.05385735 24.55943263 -0.04882812 20.98632812 C-0.03814275 13.99086638 -0.02057017 6.9954396 0 0 Z " fill="#006AB3" transform="translate(2381,1016)"/>
<path d="M0 0 C7.59 0 15.18 0 23 0 C23.04898437 3.47015625 23.09796875 6.9403125 23.1484375 10.515625 C23.20259221 13.91149867 23.25984257 17.3073072 23.31738281 20.703125 C23.35544445 23.0461737 23.39033518 25.38927631 23.421875 27.73242188 C23.46802509 31.11868436 23.52593272 34.50458294 23.5859375 37.890625 C23.59748871 38.92237854 23.60903992 39.95413208 23.62094116 41.01715088 C23.7862481 54.69295903 23.7862481 54.69295903 29 67 C33.05450453 69.72502341 37.28409744 69.62931808 42 69 C46.27210605 67.60655916 48.99489978 65.46778566 51.3125 61.625 C55.81913537 51.94407958 56.11325666 42.3758451 56.31640625 31.8359375 C56.33718735 30.91785309 56.35796844 29.99976868 56.37937927 29.05386353 C56.44403956 26.16097484 56.50336546 23.26800636 56.5625 20.375 C56.60576495 18.39712762 56.64938157 16.41926291 56.69335938 14.44140625 C56.80028614 9.62768417 56.89997664 4.81389011 57 0 C64.59 0 72.18 0 80 0 C80 28.38 80 56.76 80 86 C72.74 86 65.48 86 58 86 C57.505 81.545 57.505 81.545 57 77 C56.01 77.9075 55.02 78.815 54 79.75 C44.67003173 87.77149711 35.01400347 88.67239261 23.11376953 88.17480469 C16.22144397 87.60482258 11.10604007 84.03054449 6.50390625 79.0546875 C-0.65044683 69.28016875 -0.14432428 57.73161223 -0.09765625 46.19140625 C-0.09578833 44.85619663 -0.0943662 43.52098631 -0.09336853 42.18577576 C-0.08957277 38.69237332 -0.079768 35.19901327 -0.06866455 31.70562744 C-0.0583868 28.1325335 -0.05385735 24.55943263 -0.04882812 20.98632812 C-0.03814275 13.99086638 -0.02057017 6.9954396 0 0 Z " fill="#006AB3" transform="translate(1479,1016)"/>
<path d="M0 0 C11.22 0 22.44 0 34 0 C34 42.57 34 85.14 34 129 C22.78 129 11.56 129 0 129 C0 86.43 0 43.86 0 0 Z " fill="#000000" transform="translate(2322,765)"/>
<path d="M0 0 C11.22 0 22.44 0 34 0 C34 42.57 34 85.14 34 129 C22.78 129 11.56 129 0 129 C0 86.43 0 43.86 0 0 Z " fill="#000000" transform="translate(1767,765)"/>
<path d="M0 0 C11.22 0 22.44 0 34 0 C34 42.57 34 85.14 34 129 C22.78 129 11.56 129 0 129 C0 86.43 0 43.86 0 0 Z " fill="#000000" transform="translate(1143,765)"/>
<path d="M0 0 C11.22 0 22.44 0 34 0 C34 42.57 34 85.14 34 129 C22.78 129 11.56 129 0 129 C0 86.43 0 43.86 0 0 Z " fill="#000000" transform="translate(1350,511)"/>
<path d="M0 0 C21.78 0 43.56 0 66 0 C66 6.27 66 12.54 66 19 C52.14 19 38.28 19 24 19 C24 27.91 24 36.82 24 46 C37.2 46 50.4 46 64 46 C64 52.27 64 58.54 64 65 C50.8 65 37.6 65 24 65 C24 81.83 24 98.66 24 116 C16.08 116 8.16 116 0 116 C0 77.72 0 39.44 0 0 Z " fill="#006AB3" transform="translate(1296,986)"/>
<path d="M0 0 C30.03 0 60.06 0 91 0 C91 6.27 91 12.54 91 19 C79.78 19 68.56 19 57 19 C57 51.01 57 83.02 57 116 C49.08 116 41.16 116 33 116 C33 83.99 33 51.98 33 19 C22.11 19 11.22 19 0 19 C0 12.73 0 6.46 0 0 Z " fill="#006AB3" transform="translate(2228,986)"/>
<path d="M0 0 C1.50433594 0.00193359 1.50433594 0.00193359 3.0390625 0.00390625 C9.86812695 0.08331398 16.3260244 0.9479122 23 2.375 C24.25985286 6.15455857 23.64024579 9.21923452 23.0625 13.0625 C22.96259766 13.76439453 22.86269531 14.46628906 22.75976562 15.18945312 C22.51270675 16.91886527 22.25717148 18.6470627 22 20.375 C15.48120301 19.48026316 15.48120301 19.48026316 12.5 18.828125 C9.31190373 18.25028255 6.23893679 18.1668828 3 18.125 C1.80375 18.09921875 0.6075 18.0734375 -0.625 18.046875 C-4.29083712 18.40327583 -6.14733424 19.070721 -9 21.375 C-9.70588742 24.47004482 -10 27.21186212 -10 30.375 C-6.83763438 31.70686768 -3.63758721 32.8462788 -0.3828125 33.92578125 C0.47183594 34.21259766 1.32648437 34.49941406 2.20703125 34.79492188 C3.97514404 35.38645009 5.74598349 35.9698942 7.51953125 36.54492188 C15.5660162 39.27346677 21.80946917 42.61475772 26 50.375 C29.31902996 59.17042939 28.75258846 67.80374682 25 76.375 C20.74091796 83.40521555 14.1181068 87.08215857 6.44140625 89.4921875 C1.10218708 90.7473396 -4.2270762 90.71495656 -9.6875 90.6875 C-11.27401367 90.68556641 -11.27401367 90.68556641 -12.89257812 90.68359375 C-20.62717789 90.58863243 -27.61251955 89.79901702 -35 87.375 C-34.8595017 84.5829699 -34.71284617 81.79150204 -34.5625 79 C-34.52318359 78.2059375 -34.48386719 77.411875 -34.44335938 76.59375 C-34.11328125 70.6015625 -34.11328125 70.6015625 -33 68.375 C-29.67997432 68.97810872 -26.61805376 69.82349894 -23.4375 70.9375 C-16.43296314 73.05977012 -8.73588009 73.78070184 -1.8125 71 C1.08058258 69.67277011 1.08058258 69.67277011 2 67.375 C2.51157484 62.58623636 2.51157484 62.58623636 0.5859375 58.359375 C-3.15938378 55.48532181 -7.21885264 54.40093072 -11.6875 53 C-28.8788274 47.25572331 -28.8788274 47.25572331 -33.5625 40 C-36.42464379 33.1677858 -36.10672682 23.91949702 -34.375 16.80859375 C-31.70370173 10.71469458 -26.49431417 6.07928531 -20.58227539 3.19580078 C-13.56252873 0.50453669 -7.48138379 -0.18270732 0 0 Z " fill="#006AB3" transform="translate(2512,1013.625)"/>
<path d="M0 0 C0 8.25 0 16.5 0 25 C6.6 25 13.2 25 20 25 C20 30.61 20 36.22 20 42 C13.4 42 6.8 42 0 42 C0.07402069 48.46021925 0.15687217 54.91905939 0.26245117 61.37866211 C0.29568055 63.57552927 0.32371866 65.7724814 0.34643555 67.96948242 C0.38001754 71.12976243 0.43233634 74.28926521 0.48828125 77.44921875 C0.49467117 78.42960617 0.5010611 79.40999359 0.50764465 80.42008972 C0.64679908 87.20183167 0.64679908 87.20183167 4 93 C8.59543291 95.29771645 15.17247654 94.24581251 20 93 C21.65497356 96.30994713 21.10084335 99.99123 21.0625 103.625 C21.05798828 104.42679688 21.05347656 105.22859375 21.04882812 106.0546875 C21.03703168 108.03649006 21.01909605 110.01825433 21 112 C11.78406338 114.62289534 -2.24169211 115.01534731 -11 111 C-17.33706229 106.94749459 -21.12573629 101.20350133 -23 94 C-23.27292967 90.01161801 -23.23259291 86.03512229 -23.1953125 82.0390625 C-23.1924826 80.89335785 -23.18965271 79.7476532 -23.18673706 78.56723022 C-23.17557135 74.91971245 -23.15047299 71.27244315 -23.125 67.625 C-23.11496555 65.14713897 -23.10584051 62.66927408 -23.09765625 60.19140625 C-23.07564376 54.12750891 -23.04113838 48.06379654 -23 42 C-28.61 42 -34.22 42 -40 42 C-40 36.39 -40 30.78 -40 25 C-34.39 25 -28.78 25 -23 25 C-23 19.06 -23 13.12 -23 7 C-19.54285535 5.82970578 -16.08439258 4.66361387 -12.625 3.5 C-11.64015625 3.16613281 -10.6553125 2.83226562 -9.640625 2.48828125 C-8.69960937 2.17246094 -7.75859375 1.85664062 -6.7890625 1.53125 C-5.91975098 1.23798828 -5.05043945 0.94472656 -4.15478516 0.64257812 C-2 0 -2 0 0 0 Z " fill="#006AB3" transform="translate(2587,991)"/>
<path d="M0 0 C0 8.25 0 16.5 0 25 C6.6 25 13.2 25 20 25 C20 30.61 20 36.22 20 42 C13.4 42 6.8 42 0 42 C0.07402069 48.46021925 0.15687217 54.91905939 0.26245117 61.37866211 C0.29568055 63.57552927 0.32371866 65.7724814 0.34643555 67.96948242 C0.38001754 71.12976243 0.43233634 74.28926521 0.48828125 77.44921875 C0.49467117 78.42960617 0.5010611 79.40999359 0.50764465 80.42008972 C0.64679908 87.20183167 0.64679908 87.20183167 4 93 C8.59543291 95.29771645 15.17247654 94.24581251 20 93 C21.65497356 96.30994713 21.10084335 99.99123 21.0625 103.625 C21.05798828 104.42679688 21.05347656 105.22859375 21.04882812 106.0546875 C21.03703168 108.03649006 21.01909605 110.01825433 21 112 C11.78406338 114.62289534 -2.24169211 115.01534731 -11 111 C-17.33706229 106.94749459 -21.12573629 101.20350133 -23 94 C-23.27292967 90.01161801 -23.23259291 86.03512229 -23.1953125 82.0390625 C-23.1924826 80.89335785 -23.18965271 79.7476532 -23.18673706 78.56723022 C-23.17557135 74.91971245 -23.15047299 71.27244315 -23.125 67.625 C-23.11496555 65.14713897 -23.10584051 62.66927408 -23.09765625 60.19140625 C-23.07564376 54.12750891 -23.04113838 48.06379654 -23 42 C-28.61 42 -34.22 42 -40 42 C-40 36.39 -40 30.78 -40 25 C-34.39 25 -28.78 25 -23 25 C-23 19.06 -23 13.12 -23 7 C-19.54285535 5.82970578 -16.08439258 4.66361387 -12.625 3.5 C-11.64015625 3.16613281 -10.6553125 2.83226562 -9.640625 2.48828125 C-8.69960937 2.17246094 -7.75859375 1.85664062 -6.7890625 1.53125 C-5.91975098 1.23798828 -5.05043945 0.94472656 -4.15478516 0.64257812 C-2 0 -2 0 0 0 Z " fill="#006AB3" transform="translate(1908,991)"/>
<path d="M0 0 C0 7.92 0 15.84 0 24 C-1.32 23.67 -2.64 23.34 -4 23 C-13.07199496 22.26504593 -13.07199496 22.26504593 -21 26 C-25.03963505 32.34013567 -27.06362781 38.37227384 -27.20532227 45.88208008 C-27.22526749 46.82267776 -27.24521271 47.76327545 -27.26576233 48.7323761 C-27.29083107 50.2357679 -27.29083107 50.2357679 -27.31640625 51.76953125 C-27.33718735 52.80567062 -27.35796844 53.84181 -27.37937927 54.90934753 C-27.4446213 58.21033265 -27.50364179 61.51139549 -27.5625 64.8125 C-27.60570932 67.05404441 -27.64932438 69.29558103 -27.69335938 71.53710938 C-27.8010381 77.02466117 -27.90030031 82.51227424 -28 88 C-35.59 88 -43.18 88 -51 88 C-51 59.62 -51 31.24 -51 2 C-44.4 2 -37.8 2 -31 2 C-30.67 6.29 -30.34 10.58 -30 15 C-29.21625 13.63875 -28.4325 12.2775 -27.625 10.875 C-20.41055137 0.25466051 -12.27209008 -0.72188765 0 0 Z " fill="#006AB3" transform="translate(2368,1014)"/>
<path d="M0 0 C7.59 0 15.18 0 23 0 C23 28.38 23 56.76 23 86 C15.41 86 7.82 86 0 86 C0 57.62 0 29.24 0 0 Z " fill="#006AB3" transform="translate(1943,1016)"/>
<path d="M0 0 C11.22 0 22.44 0 34 0 C34 10.56 34 21.12 34 32 C22.78 32 11.56 32 0 32 C0 21.44 0 10.88 0 0 Z " fill="#000000" transform="translate(2322,710)"/>
<path d="M0 0 C11.22 0 22.44 0 34 0 C34 10.56 34 21.12 34 32 C22.78 32 11.56 32 0 32 C0 21.44 0 10.88 0 0 Z " fill="#000000" transform="translate(1767,710)"/>
<path d="M0 0 C11.22 0 22.44 0 34 0 C34 10.56 34 21.12 34 32 C22.78 32 11.56 32 0 32 C0 21.44 0 10.88 0 0 Z " fill="#000000" transform="translate(1143,710)"/>
<path d="M0 0 C11.22 0 22.44 0 34 0 C34 10.56 34 21.12 34 32 C22.78 32 11.56 32 0 32 C0 21.44 0 10.88 0 0 Z " fill="#000000" transform="translate(1350,456)"/>
<path d="M0 0 C7.59 0 15.18 0 23 0 C23 7.26 23 14.52 23 22 C15.41 22 7.82 22 0 22 C0 14.74 0 7.48 0 0 Z " fill="#006AB3" transform="translate(1943,979)"/>
</svg>
