<?xml version="1.0" encoding="UTF-8"?>
<svg xmlns="http://www.w3.org/2000/svg" viewBox="0 0 739 264">
  <path fill="#fff" d="M530.27 2.9h203.28v78.69H530.27z"></path>
  <path fill="#005eb8" d="m731.09 10.07-4.44 13.63a34.81 34.81 0 0 0-15.18-3.13c-7.28 0-13.2 1.07-13.2 6.57 0 9.7 26.7 6.08 26.7 26.87 0 18.92-17.64 23.83-33.6 23.83a77.14 77.14 0 0 1-21.29-3.54l4.34-13.93c3.64 2.36 10.94 3.93 16.95 3.93 5.72 0 14.68-1.08 14.68-8.14 0-10.99-26.71-6.87-26.71-26.17 0-17.66 15.58-22.96 30.66-22.96 8.48 0 16.46.9 21.09 3.04m-52.93-1.86-14.3 68.44h-18.41l6.1-29.31h-21.78l-6.12 29.31h-18.42l14.3-68.44h18.42l-5.41 26.18h21.77l5.43-26.18Zm-65.43 0-14.58 68.44h-22.88L560.9 29.3h-.2l-9.56 47.36h-17.35l14.7-68.44h22.95l14.1 47.46h.19l9.66-47.46ZM739 0H527.82v85.04H739Z"></path>
  <path d="m231.94 152.5-3.6-9.6h-16.98l-3.66 9.6H199l16.32-41.88h9.48l16.44 41.88Zm-12-33.48h-.12l-6.06 17.28H226ZM252.16 152.5l-11.46-30.9h8.64l7.68 22.5h.12l7.44-22.5h8.04l-11.4 30.9ZM291.64 153.22c-9.96 0-16.14-6.84-16.14-15.96 0-9.9 6.72-16.38 16.14-16.38 9.42 0 16.2 6.42 16.2 16.38 0 9.18-6.24 15.96-16.2 15.96Zm7.8-16.92c0-4.92-2.64-9.18-7.8-9.18-5.04 0-7.74 4.32-7.74 9.18 0 6.54 2.52 10.68 7.74 10.68s7.8-4.02 7.8-10.68ZM334.48 152.5v-17.34c0-4.62-.96-8.04-5.22-8.04-5.1 0-7.08 4.92-7.08 10.38v15h-8.04v-30.9h7.62v4.2h.12c2.46-3.48 5.88-4.92 10.14-4.92 7.08 0 10.5 4.86 10.5 12.12v19.5ZM386.32 152.5a36.18 36.18 0 0 1-.36-4.62h-.12a11 11 0 0 1-9.54 5.34c-5.58 0-10.8-3.36-10.8-9.24 0-5.34 3.06-10.56 15.12-10.56h4.98v-.12c0-5.16-2.64-6.54-6.96-6.54a16.17 16.17 0 0 0-9.54 3.36l-.24-6.9a27.67 27.67 0 0 1 10.74-2.34c9.24 0 13.32 3.72 13.32 13.02v6.36c0 1.62.12 8.1.48 12.24Zm-.72-14.28h-3.54c-5.7 0-8.88 1.68-8.88 5.34 0 2.4 1.86 3.78 5.1 3.78 3.6 0 7.32-2.46 7.32-8.76ZM421.18 152.5v-17.34c0-4.62-.96-8.04-5.22-8.04-5.1 0-7.08 4.92-7.08 10.38v15h-8.04v-30.9h7.62v4.2h.12c2.46-3.48 5.88-4.92 10.14-4.92 7.08 0 10.5 4.86 10.5 12.12v19.5ZM458.08 152.5v-3.48h-.12a11.47 11.47 0 0 1-9.48 4.2c-9.42 0-12.96-7.68-12.96-16.26 0-9.36 4.08-16.08 12.96-16.08a10.98 10.98 0 0 1 9.24 4.32h.12v-17.7h8.04v45Zm-.3-15.54c0-4.32-2.04-9.84-7.2-9.84-4.86 0-6.66 5.04-6.66 9.84 0 4.38 1.56 10.02 6.78 10.02 5.28 0 7.08-5.52 7.08-10.02ZM524.38 152.5l-7.56-33.48h-.12l-7.44 33.48H498.4l-11.1-41.88h8.82l7.8 33.48h.12l7.14-33.48h11.4l7.38 33.48h.12l7.86-33.48h8.16l-10.92 41.88ZM551.02 115.96v-7.68h8.04v7.68Zm0 36.54v-30.9h8.04v30.9ZM567.7 152.5v-45h8.04v45ZM602.56 152.5a21 21 0 0 1-5.88.72c-6.54 0-9.84-4.08-9.84-10.02v-15.72h-5.94v-5.88h5.94v-6.18l8.04-2.58v8.76h7.14v5.88h-7.14v14.34c0 3.24 1.02 5.16 3.84 5.16a7.1 7.1 0 0 0 3.6-.84ZM606.34 145.3a17.66 17.66 0 0 0 7.92 2.04c2.16 0 5.28-.84 5.28-3.78 0-2.58-2.52-3.36-5.76-4.26-5.4-1.44-8.22-3.66-8.22-8.82 0-6.24 5.22-9.6 12.18-9.6a35.53 35.53 0 0 1 8.7 1.14l-.54 6.06a19.65 19.65 0 0 0-7.14-1.32c-2.82 0-4.8 1.14-4.8 3.42 0 1.74 1.68 2.58 5.34 3.6 5.76 1.62 8.64 4.2 8.64 9.36 0 6.78-5.82 10.08-13.02 10.08a36.33 36.33 0 0 1-9.06-1.32ZM654.52 152.5v-17.46c0-5.64-1.68-7.92-5.22-7.92-4.74 0-7.08 4.32-7.08 10.44v14.94h-8.04v-45h8.04v18.3h.12a11.5 11.5 0 0 1 9.72-4.92c7.14 0 10.5 4.98 10.5 12.06v19.56ZM671.02 115.96v-7.68h8.04v7.68Zm0 36.54v-30.9h8.04v30.9ZM687.7 152.5v-30.9h7.14v7.02h.12c.48-3.24 3.84-7.74 8.52-7.74a7.75 7.75 0 0 1 2.4.24v8.1a8.2 8.2 0 0 0-3.6-.66c-3 0-6.54 1.62-6.54 11.22v12.72ZM734.56 150.76a21.15 21.15 0 0 1-10.56 2.46c-10.26 0-16.2-5.88-16.2-16.02 0-8.64 4.5-16.32 14.34-16.32 10.5 0 14.7 6.48 14.7 18.66h-21.36c.36 4.86 3.66 7.8 8.88 7.8a20.81 20.81 0 0 0 10.2-3.12Zm-5.4-16.74c-.3-4.44-2.4-7.26-6.6-7.26-4.02 0-6.66 2.64-7.08 7.26ZM39.23 213.5v-34.56h-.12L27.83 213.5h-8.04L8.5 178.94l-.12.12v34.44H.35v-41.88h13.44l9.96 31.74h.12l9.96-31.74h13.44v41.88ZM81.05 211.76a21.15 21.15 0 0 1-10.56 2.46c-10.26 0-16.2-5.88-16.2-16.02 0-8.64 4.5-16.32 14.34-16.32 10.5 0 14.7 6.48 14.7 18.66H61.97c.36 4.86 3.66 7.8 8.88 7.8a20.81 20.81 0 0 0 10.2-3.12Zm-5.4-16.74c-.3-4.44-2.4-7.26-6.6-7.26-4.02 0-6.66 2.64-7.08 7.26ZM109.97 213.5v-17.34c0-4.62-.96-8.04-5.22-8.04-5.1 0-7.08 4.92-7.08 10.38v15h-8.04v-30.9h7.62v4.2h.12c2.46-3.48 5.88-4.92 10.14-4.92 7.08 0 10.5 4.86 10.5 12.12v19.5ZM144.65 213.5a21 21 0 0 1-5.88.72c-6.54 0-9.84-4.08-9.84-10.02v-15.72h-5.94v-5.88h5.94v-6.18l8.04-2.58v8.76h7.14v5.88h-7.14v14.34c0 3.24 1.02 5.16 3.84 5.16a7.1 7.1 0 0 0 3.6-.84ZM168.46 213.5a36.18 36.18 0 0 1-.36-4.62h-.12a11 11 0 0 1-9.54 5.34c-5.57 0-10.8-3.36-10.8-9.24 0-5.34 3.07-10.56 15.12-10.56h4.98v-.12c0-5.16-2.64-6.54-6.96-6.54a16.17 16.17 0 0 0-9.53 3.36l-.25-6.9a27.67 27.67 0 0 1 10.74-2.34c9.24 0 13.32 3.72 13.32 13.02v6.36c0 1.62.12 8.1.48 12.24Zm-.72-14.28h-3.54c-5.7 0-8.87 1.68-8.87 5.34 0 2.4 1.86 3.78 5.1 3.78 3.6 0 7.31-2.46 7.31-8.76ZM183.17 213.5v-45h8.03v45ZM242.26 213.5v-18.36h-16.8v18.36h-8.4v-41.88h8.4v16.92h16.8v-16.92h8.4v41.88ZM284.44 211.76a21.15 21.15 0 0 1-10.56 2.46c-10.26 0-16.2-5.88-16.2-16.02 0-8.64 4.5-16.32 14.34-16.32 10.5 0 14.7 6.48 14.7 18.66h-21.36c.36 4.86 3.66 7.8 8.88 7.8a20.81 20.81 0 0 0 10.2-3.12Zm-5.4-16.74c-.3-4.44-2.4-7.26-6.6-7.26-4.02 0-6.66 2.64-7.08 7.26ZM311.86 213.5a36.18 36.18 0 0 1-.36-4.62h-.12a11 11 0 0 1-9.54 5.34c-5.58 0-10.8-3.36-10.8-9.24 0-5.34 3.06-10.56 15.12-10.56h4.98v-.12c0-5.16-2.64-6.54-6.96-6.54a16.17 16.17 0 0 0-9.54 3.36l-.24-6.9a27.66 27.66 0 0 1 10.74-2.34c9.24 0 13.32 3.72 13.32 13.02v6.36c0 1.62.12 8.1.48 12.24Zm-.72-14.28h-3.54c-5.7 0-8.88 1.68-8.88 5.34 0 2.4 1.86 3.78 5.1 3.78 3.6 0 7.32-2.46 7.32-8.76ZM326.56 213.5v-45h8.04v45ZM361.42 213.5a21 21 0 0 1-5.88.72c-6.54 0-9.84-4.08-9.84-10.02v-15.72h-5.94v-5.88h5.94v-6.18l8.04-2.58v8.76h7.14v5.88h-7.14v14.34c0 3.24 1.02 5.16 3.84 5.16a7.1 7.1 0 0 0 3.6-.84ZM386.74 213.5v-17.46c0-5.64-1.68-7.92-5.22-7.92-4.74 0-7.08 4.32-7.08 10.44v14.94h-8.04v-45h8.04v18.3h.12a11.5 11.5 0 0 1 9.72-4.92c7.14 0 10.5 4.98 10.5 12.06v19.56ZM419.74 213.5v-41.88h10.8c11.1 0 17.28 4.14 17.28 12.66 0 8.76-5.88 13.32-16.02 13.32h-3.66v15.9Zm11.22-22.5c5.7 0 8.1-2.34 8.1-6.24 0-4.38-3-6.54-7.98-6.54h-2.94V191ZM471.94 213.5a36 36 0 0 1-.36-4.62h-.12a11 11 0 0 1-9.54 5.34c-5.58 0-10.8-3.36-10.8-9.24 0-5.34 3.06-10.56 15.12-10.56h4.98v-.12c0-5.16-2.64-6.54-6.96-6.54a16.17 16.17 0 0 0-9.54 3.36l-.24-6.9a27.66 27.66 0 0 1 10.74-2.34c9.24 0 13.32 3.72 13.32 13.02v6.36c0 1.62.12 8.1.48 12.24Zm-.72-14.28h-3.54c-5.7 0-8.88 1.68-8.88 5.34 0 2.4 1.86 3.78 5.1 3.78 3.6 0 7.32-2.46 7.32-8.76ZM486.64 213.5v-30.9h7.14v7.02h.12c.48-3.24 3.84-7.74 8.52-7.74a7.75 7.75 0 0 1 2.4.24v8.1a8.2 8.2 0 0 0-3.6-.66c-3 0-6.54 1.62-6.54 11.22v12.72ZM528.16 213.5a21 21 0 0 1-5.88.72c-6.54 0-9.84-4.08-9.84-10.02v-15.72h-5.94v-5.88h5.94v-6.18l8.04-2.58v8.76h7.14v5.88h-7.14v14.34c0 3.24 1.02 5.16 3.84 5.16a7.1 7.1 0 0 0 3.6-.84ZM553.48 213.5v-17.34c0-4.62-.96-8.04-5.22-8.04-5.1 0-7.08 4.92-7.08 10.38v15h-8.04v-30.9h7.62v4.2h.12c2.46-3.48 5.88-4.92 10.14-4.92 7.08 0 10.5 4.86 10.5 12.12v19.5ZM594.58 211.76a21.15 21.15 0 0 1-10.56 2.46c-10.26 0-16.2-5.88-16.2-16.02 0-8.64 4.5-16.32 14.34-16.32 10.5 0 14.7 6.48 14.7 18.66H575.5c.36 4.86 3.66 7.8 8.88 7.8a20.8 20.8 0 0 0 10.2-3.12Zm-5.4-16.74c-.3-4.44-2.4-7.26-6.6-7.26-4.02 0-6.66 2.64-7.08 7.26ZM603.34 213.5v-30.9h7.14v7.02h.12c.48-3.24 3.84-7.74 8.52-7.74a7.75 7.75 0 0 1 2.4.24v8.1a8.2 8.2 0 0 0-3.6-.66c-3 0-6.54 1.62-6.54 11.22v12.72ZM625.3 206.3a17.66 17.66 0 0 0 7.92 2.04c2.16 0 5.28-.84 5.28-3.78 0-2.58-2.52-3.36-5.76-4.26-5.4-1.44-8.22-3.66-8.22-8.82 0-6.24 5.22-9.6 12.18-9.6a35.53 35.53 0 0 1 8.7 1.14l-.54 6.06a19.65 19.65 0 0 0-7.14-1.32c-2.82 0-4.8 1.14-4.8 3.42 0 1.74 1.68 2.58 5.34 3.6 5.76 1.62 8.64 4.2 8.64 9.36 0 6.78-5.82 10.08-13.02 10.08a36.33 36.33 0 0 1-9.06-1.32ZM673.48 213.5v-17.46c0-5.64-1.68-7.92-5.22-7.92-4.74 0-7.08 4.32-7.08 10.44v14.94h-8.04v-45h8.04v18.3h.12a11.5 11.5 0 0 1 9.72-4.92c7.14 0 10.5 4.98 10.5 12.06v19.56ZM689.98 176.96v-7.68h8.04v7.68Zm0 36.54v-30.9h8.04v30.9ZM706.48 226.1v-43.5h7.68v4.38h.12c2.04-3.36 5.28-5.1 9.6-5.1 9 0 12.96 6.9 12.96 16.08 0 9.06-3.9 16.26-13.14 16.26a10.53 10.53 0 0 1-9.06-4.26h-.12v16.14Zm21.96-28.14c0-4.26-1.5-9.84-6.66-9.84-5.22 0-7.2 5.58-7.2 9.84 0 4.56 1.86 10.02 7.08 10.02s6.78-5.64 6.78-10.02Z"></path>
  <path fill="#005eb8" d="m575.08 263.5-10.68-20.88h-.08v20.88h-5.36v-27.92h6.88l10.64 20.88h.08v-20.88h5.36v27.92ZM604.92 263.5v-12.24h-11.2v12.24h-5.6v-27.92h5.6v11.28h11.2v-11.28h5.6v27.92ZM617.04 257.86a13.51 13.51 0 0 0 6.32 1.72c2.04 0 4.96-1.04 4.96-3.6 0-2.12-1.88-3.04-4.64-4.12-3.72-1.44-7.6-3-7.6-8.24 0-6 4.52-8.52 9.8-8.52a21 21 0 0 1 6.64 1l-.52 4.6a14.5 14.5 0 0 0-5.68-1.2c-2.08 0-4.4.96-4.4 3.88 0 2.12 2.4 2.92 4.72 3.84 3.76 1.4 7.52 3.12 7.52 8.32 0 5.4-3.84 8.44-10.52 8.44a24.73 24.73 0 0 1-7.12-1.08ZM655.44 263.5v-23.52h-8v-4.4h21.6v4.4h-8v23.52ZM668.56 263.5v-20.6h4.76v4.68h.08c.32-2.16 2.56-5.16 5.68-5.16a5.14 5.14 0 0 1 1.6.16v5.4a5.46 5.46 0 0 0-2.4-.44c-2 0-4.36 1.08-4.36 7.48v8.48ZM697.84 263.5v-2.8h-.08a8.58 8.58 0 0 1-6.76 3.28c-4.6 0-7-3.08-7-8.08v-13h5.36v11.76c0 4.12 1.52 5.16 3.48 5.16 3.24 0 4.72-3 4.72-6.96v-9.96h5.36v20.6ZM707.64 258.7a11.77 11.77 0 0 0 5.28 1.36c1.44 0 3.52-.56 3.52-2.52 0-1.72-1.68-2.24-3.84-2.84-3.6-.96-5.48-2.44-5.48-5.88 0-4.16 3.48-6.4 8.12-6.4a23.69 23.69 0 0 1 5.8.76l-.36 4.04a13.1 13.1 0 0 0-4.76-.88c-1.88 0-3.2.76-3.2 2.28 0 1.16 1.12 1.72 3.56 2.4 3.84 1.08 5.76 2.8 5.76 6.24 0 4.52-3.88 6.72-8.68 6.72a24.22 24.22 0 0 1-6.04-.88ZM738.44 263.5a14 14 0 0 1-3.92.48c-4.36 0-6.56-2.72-6.56-6.68v-10.48H724v-3.92h3.96v-4.12l5.36-1.72v5.84h4.76v3.92h-4.76v9.56c0 2.16.68 3.44 2.56 3.44a4.74 4.74 0 0 0 2.4-.56Z"></path>
</svg>
