<?xml version="1.0" encoding="utf-8"?>
<!-- Generator: Adobe Illustrator 16.0.0, SVG Export Plug-In . SVG Version: 6.00 Build 0)  -->
<!DOCTYPE svg PUBLIC "-//W3C//DTD SVG 1.1//EN" "http://www.w3.org/Graphics/SVG/1.1/DTD/svg11.dtd">
<svg version="1.1" id="Layer_1" xmlns="http://www.w3.org/2000/svg" xmlns:xlink="http://www.w3.org/1999/xlink" x="0px" y="0px"
	 width="400px" height="61px" viewBox="0 0 400 61" enable-background="new 0 0 400 61" xml:space="preserve">
<g>
	<g>
		<path d="M221.172,55.805c-0.089,0.293-0.137,0.511-0.102,0.702c0.036,0.217,0.197,0.371,0.531,0.411
			c0.334,0.082,0.542,0.166,0.581,0.253c0.041,0.085,0.033,0.147-0.021,0.27c-0.058,0.129-0.162,0.229-0.271,0.285
			c-0.15,0.09-0.33,0.135-0.497,0.135c-0.156,0-0.403-0.033-0.781-0.102c-0.377-0.067-0.695-0.09-0.997-0.09
			c-0.158,0-0.488,0.022-0.992,0.09c-0.505,0.068-0.846,0.102-1.025,0.102c-0.416,0-0.569-0.169-0.418-0.463
			c0.074-0.123,0.13-0.232,0.255-0.286c0.125-0.055,0.257-0.092,0.481-0.113c0.497-0.057,0.836-0.112,0.991-0.253
			c0.195-0.14,0.366-0.426,0.597-0.899l3.711-8.292c0.177-0.353,0.242-0.549,0.211-0.549c-0.053,0-0.26,0.19-0.578,0.526
			l-2.829,2.919c-1.179,1.234-2.227,2.316-3.156,3.289c-0.944,0.931-1.462,1.456-1.536,1.534c-0.032,0.069-0.106,0.101-0.179,0.151
			c-0.073,0.05-0.163,0.075-0.229,0.075c-0.18,0-0.279-0.14-0.297-0.377l-0.411-7.149c-0.02-0.372-0.052-0.517-0.059-0.517
			c-0.029,0-0.13,0.144-0.297,0.517l-3.659,8.175c-0.118,0.265-0.102,0.443,0.048,0.618c0.109,0.134,0.293,0.221,0.467,0.221
			c0.56,0,0.741,0.171,0.632,0.47c-0.14,0.269-0.431,0.425-0.911,0.425c-0.086,0-0.269-0.038-0.591-0.112
			c-0.341-0.076-0.588-0.101-0.732-0.101c-0.192,0-0.465,0.028-0.836,0.111c-0.371,0.082-0.657,0.123-0.771,0.123
			c-0.231,0-0.349-0.061-0.438-0.18c-0.09-0.077-0.105-0.201-0.048-0.332c0.06-0.109,0.159-0.202,0.366-0.301
			c0.177-0.098,0.387-0.146,0.57-0.146c0.657,0,1.15-0.369,1.478-1.108l4.529-10.137c0.132-0.252,0.152-0.463,0.06-0.674
			c-0.092-0.168-0.257-0.297-0.58-0.344c-0.282-0.047-0.452-0.12-0.495-0.194c-0.063-0.085-0.061-0.21,0.007-0.361
			c0.036-0.064,0.12-0.161,0.3-0.247c0.136-0.087,0.296-0.13,0.439-0.13c0.109,0,0.281,0.031,0.464,0.092
			c0.166,0.061,0.332,0.092,0.426,0.092c0.137,0,0.322-0.031,0.517-0.092c0.217-0.061,0.374-0.092,0.504-0.092
			s0.237,0.068,0.281,0.205c0.042,0.137,0.066,0.366,0.07,0.732l0.191,4.453l0.209,3.687c0.009,0.172,0.035,0.216,0.077,0.216
			c0.051,0,0.107-0.036,0.258-0.194c3.67-3.737,6.279-6.421,7.785-7.978c0.453-0.475,0.784-0.77,0.994-0.895
			c0.25-0.136,0.441-0.204,0.656-0.204c0.059,0,0.22,0.015,0.438,0.043c0.188,0.028,0.36,0.043,0.439,0.043
			c0.115,0,0.268-0.018,0.418-0.055c0.192-0.035,0.297-0.054,0.31-0.054c0.386,0,0.468,0.156,0.37,0.427
			c-0.114,0.254-0.357,0.339-0.688,0.339c-0.267,0-0.542,0.11-0.848,0.327c-0.308,0.177-0.476,0.334-0.568,0.421
			c-0.094,0.064-0.209,0.296-0.344,0.618L221.172,55.805z"/>
		<path d="M230.207,56.118c-0.187,0.45-0.047,0.775,0.51,0.966c0.109,0.052,0.209,0.109,0.262,0.175
			c0.055,0.023,0.038,0.146-0.043,0.327c-0.041,0.083-0.12,0.135-0.233,0.204c-0.142,0.067-0.262,0.102-0.364,0.102
			c-0.136,0-0.298-0.031-0.469-0.096c-0.202-0.064-0.336-0.097-0.479-0.097c-0.127,0-0.346,0.032-0.582,0.097
			c-0.281,0.064-0.422,0.096-0.507,0.096c-0.102,0-0.183-0.035-0.206-0.106c-0.064-0.071-0.081-0.116-0.047-0.173
			c0.051-0.115,0.039-0.172-0.031-0.172c-0.051,0-0.128,0.025-0.228,0.075c-0.908,0.459-1.813,0.669-2.667,0.669
			c-0.404,0-0.806-0.115-1.21-0.303c-0.403-0.213-0.643-0.54-0.758-0.976c-0.089-0.399-0.018-0.939,0.299-1.563
			c0.291-0.698,0.858-1.273,1.745-1.805c0.884-0.521,1.804-0.776,2.844-0.776c0.336,0,0.663,0.105,0.98,0.274
			c0.319,0.212,0.448,0.388,0.35,0.609c-0.049,0.107-0.108,0.151-0.214,0.216c-0.122,0.064-0.252,0.097-0.345,0.097
			c-0.095,0-0.248-0.064-0.42-0.166c-0.216-0.114-0.424-0.18-0.681-0.18c-0.534,0-1.057,0.174-1.546,0.479
			c-0.47,0.304-0.828,0.726-1.088,1.251c-0.26,0.6-0.269,1.073-0.029,1.393c0.284,0.318,0.674,0.499,1.169,0.499
			c0.481,0,0.999-0.172,1.51-0.474c0.553-0.302,0.938-0.718,1.162-1.251l1.17-2.619c0.196-0.396,0.211-0.708,0.043-0.981
			c-0.125-0.229-0.438-0.365-0.855-0.365c-0.579,0-1.188,0.196-1.907,0.549c-0.221,0.136-0.388,0.162-0.418,0.162
			c-0.172,0-0.298-0.014-0.362-0.093c-0.056-0.089-0.065-0.205-0.002-0.308c0.118-0.351,0.53-0.606,1.196-0.808
			c0.708-0.243,1.38-0.356,2.057-0.356c0.854,0,1.422,0.228,1.777,0.657c0.325,0.432,0.36,0.908,0.067,1.518L230.207,56.118z"/>
		<path d="M235.199,52.685c0.117-0.223,0.155-0.421,0.111-0.512c-0.045-0.132-0.217-0.228-0.481-0.285
			c-0.262-0.033-0.361-0.162-0.252-0.403c0.044-0.059,0.115-0.158,0.263-0.257c0.161-0.099,0.29-0.147,0.478-0.147
			c0.079,0,0.165,0.025,0.342,0.075c0.174,0.05,0.284,0.075,0.414,0.075c0.079,0,0.228-0.021,0.532-0.064
			c0.26-0.043,0.414-0.064,0.479-0.064c0.144,0,0.219,0.059,0.223,0.178c0.004,0.118-0.07,0.314-0.223,0.63
			c-0.211,0.554-0.445,1.107-0.748,1.736l-1.27,2.77c-0.1,0.181-0.144,0.317-0.131,0.367c0.015,0.051,0.069,0.111,0.156,0.151
			c0.064,0.079,0.21,0.14,0.375,0.183c0.168,0.044,0.275,0.104,0.298,0.166c0.022,0.048,0.012,0.137-0.034,0.239
			c-0.106,0.197-0.306,0.316-0.641,0.316c-0.255,0-0.47-0.022-0.722-0.068c-0.21-0.047-0.452-0.07-0.693-0.07
			c-0.173,0-0.461,0.02-0.777,0.06c-0.315,0.039-0.538,0.059-0.703,0.059c-0.324,0-0.447-0.134-0.326-0.36
			c0.052-0.117,0.12-0.175,0.183-0.242c0.097-0.073,0.256-0.116,0.434-0.131c0.252-0.014,0.375-0.05,0.458-0.107
			c0.203-0.13,0.371-0.279,0.474-0.408c0.1-0.086,0.198-0.352,0.378-0.71L235.199,52.685z M239.476,56.438
			c-0.13,0.266-0.135,0.456-0.116,0.522c0.061,0.097,0.213,0.177,0.412,0.237c0.241,0.062,0.325,0.133,0.249,0.302
			c-0.102,0.185-0.274,0.297-0.511,0.297c-0.049,0-0.216-0.013-0.545-0.037c-0.369-0.025-0.641-0.038-0.858-0.038
			c-0.389,0-0.72,0.026-1.039,0.082c-0.278,0.052-0.438,0.079-0.525,0.079c-0.128,0-0.229-0.044-0.296-0.131
			c-0.037-0.082-0.044-0.149-0.004-0.273c0.016-0.095,0.103-0.184,0.231-0.226c0.132-0.083,0.215-0.124,0.336-0.124
			c0.208,0,0.421-0.066,0.619-0.199c0.238-0.091,0.374-0.289,0.493-0.512c0.688-1.556,1.137-2.54,1.342-2.909
			c0.164-0.369,0.279-0.558,0.302-0.607c0.209-0.517,0.118-0.754-0.352-0.754c-0.222,0-0.569,0.126-1.045,0.463
			c-0.519,0.296-0.841,0.422-1.013,0.422c-0.058,0-0.105-0.015-0.137-0.067c-0.004-0.072-0.005-0.148-0.001-0.229
			c0.105-0.212,0.564-0.556,1.37-1.029c0.806-0.475,1.479-0.69,2.067-0.69c0.329,0,0.565,0.064,0.753,0.243
			c0.146,0.189,0.219,0.386,0.18,0.63c-0.04,0.288-0.133,0.651-0.369,1.129l-0.276,0.607L239.476,56.438z"/>
		<path d="M248.654,56.118c-0.189,0.45-0.007,0.775,0.509,0.966c0.149,0.052,0.25,0.109,0.266,0.175
			c0.049,0.023,0.034,0.146-0.006,0.327c-0.041,0.083-0.133,0.135-0.275,0.204c-0.101,0.067-0.235,0.102-0.364,0.102
			c-0.131,0-0.265-0.031-0.469-0.096c-0.161-0.064-0.335-0.097-0.442-0.097c-0.159,0-0.372,0.032-0.619,0.097
			c-0.238,0.064-0.421,0.096-0.507,0.096c-0.057,0-0.141-0.035-0.206-0.106c-0.064-0.071-0.08-0.116-0.048-0.173
			c0.051-0.115,0.042-0.172-0.029-0.172c-0.051,0-0.127,0.025-0.188,0.075c-0.95,0.459-1.854,0.669-2.666,0.669
			c-0.402,0-0.806-0.115-1.209-0.303c-0.404-0.213-0.685-0.54-0.759-0.976c-0.117-0.399-0.018-0.939,0.256-1.563
			c0.292-0.698,0.902-1.273,1.745-1.805c0.884-0.521,1.848-0.776,2.844-0.776c0.338,0,0.665,0.105,1.012,0.274
			c0.331,0.212,0.417,0.388,0.361,0.609c-0.049,0.107-0.134,0.151-0.257,0.216c-0.104,0.064-0.208,0.097-0.344,0.097
			c-0.095,0-0.206-0.064-0.421-0.166c-0.172-0.114-0.424-0.18-0.668-0.18c-0.546,0-1.026,0.174-1.526,0.479
			c-0.501,0.304-0.86,0.726-1.077,1.251c-0.302,0.6-0.311,1.073-0.028,1.393c0.24,0.318,0.63,0.499,1.169,0.499
			c0.465,0,0.956-0.172,1.509-0.474c0.513-0.302,0.896-0.718,1.151-1.251l1.181-2.619c0.154-0.396,0.169-0.708,0.044-0.981
			c-0.167-0.229-0.453-0.365-0.897-0.365c-0.58,0-1.189,0.196-1.867,0.549c-0.261,0.136-0.387,0.162-0.458,0.162
			c-0.172,0-0.256-0.014-0.337-0.093c-0.082-0.089-0.09-0.205-0.027-0.308c0.159-0.351,0.543-0.606,1.238-0.808
			c0.665-0.243,1.338-0.356,2.031-0.356c0.839,0,1.445,0.228,1.766,0.657c0.319,0.432,0.355,0.908,0.104,1.518L248.654,56.118z"/>
		<path d="M257.716,55.107l0.013,0.043c0.516,0.303,0.83,0.748,0.986,1.338c0.114,0.547,0.029,1.181-0.253,1.823
			c-0.453,0.979-1.271,1.799-2.431,2.459c-1.18,0.627-2.353,0.938-3.567,0.938c-1.251,0-2.175-0.322-2.728-0.966
			c-0.596-0.686-0.652-1.523-0.166-2.604c0.268-0.604,0.74-1.207,1.404-1.727c0.655-0.56,1.368-0.974,2.157-1.24l0.098-0.075
			l-0.038-0.106c-0.26-0.181-0.371-0.431-0.415-0.792c-0.044-0.32,0.032-0.674,0.182-1.062c0.312-0.61,0.789-1.145,1.521-1.557
			c0.762-0.413,1.553-0.654,2.433-0.77c0.121-0.014,0.229-0.071,0.282-0.129c0.303-0.343,0.685-0.677,1.16-1.045
			c0.474-0.368,0.861-0.572,1.152-0.654c0.314-0.082,0.771-0.124,1.393-0.124c0.367,0,0.477,0.211,0.288,0.589
			c-0.111,0.207-0.261,0.408-0.507,0.519c-0.251,0.153-0.5,0.229-0.775,0.229c-0.071,0-0.155-0.011-0.254-0.033
			c-0.099-0.021-0.148-0.031-0.213-0.031c-0.311,0-0.646,0.097-0.93,0.249c-0.282,0.193-0.458,0.311-0.486,0.344
			c-0.032,0.073-0.002,0.108,0.092,0.108c0.729,0.106,1.239,0.362,1.488,0.808c0.293,0.444,0.271,0.99-0.059,1.669
			c-0.31,0.697-0.863,1.259-1.707,1.702L257.716,55.107z M252.811,60.879c0.844,0,1.66-0.227,2.44-0.722
			c0.78-0.496,1.345-1.112,1.69-1.895c0.351-0.79,0.353-1.4,0.008-1.874s-0.926-0.689-1.785-0.689c-0.944,0-1.776,0.218-2.492,0.694
			c-0.717,0.479-1.276,1.101-1.635,1.911c-0.344,0.775-0.318,1.385,0.076,1.869C251.507,60.658,252.087,60.879,252.811,60.879z
			 M255.584,54.946c0.471,0,0.988-0.192,1.506-0.534c0.49-0.34,0.863-0.759,1.077-1.254c0.13-0.251,0.167-0.528,0.107-0.78
			c-0.058-0.24-0.204-0.452-0.395-0.55c-0.234-0.14-0.358-0.209-0.458-0.209c-0.051,0-0.097,0.032-0.14,0.097
			c-0.192,0.287-0.448,0.452-0.684,0.452c-0.208,0-0.27-0.14-0.187-0.377c0.035-0.079,0.021-0.118-0.011-0.118
			c-0.09,0-0.288,0.063-0.542,0.182c-0.252,0.089-0.548,0.297-0.804,0.546c-0.256,0.247-0.484,0.571-0.602,0.888
			c-0.229,0.466-0.212,0.856,0.023,1.167C254.723,54.769,255.083,54.946,255.584,54.946z"/>
		<path d="M263.172,56.243c-0.156,0.31-0.166,0.539-0.114,0.647c0.081,0.064,0.222,0.134,0.38,0.166
			c0.2,0.032,0.332,0.078,0.354,0.137c0.065,0.058,0.055,0.136-0.008,0.317c-0.084,0.198-0.346,0.318-0.721,0.318
			c-0.139,0-0.396-0.022-0.695-0.065c-0.298-0.043-0.537-0.064-0.686-0.064c-0.172,0-0.394,0.028-0.708,0.086
			c-0.314,0.057-0.576,0.086-0.698,0.086c-0.165,0-0.286-0.047-0.363-0.141c-0.034-0.062-0.037-0.177-0.006-0.329
			c0.036-0.095,0.104-0.134,0.202-0.203c0.094-0.068,0.242-0.125,0.527-0.168c0.242-0.043,0.423-0.128,0.585-0.215
			c0.161-0.129,0.31-0.398,0.532-0.85l1.457-3.292c0.138-0.266,0.166-0.433,0.081-0.527c-0.084-0.101-0.241-0.176-0.427-0.227
			c-0.229-0.05-0.313-0.072-0.336-0.152c-0.027-0.079-0.015-0.178,0.038-0.294c0.039-0.089,0.116-0.195,0.258-0.279
			c0.143-0.083,0.242-0.115,0.387-0.115c0.122,0,0.243,0.018,0.446,0.071c0.159,0.053,0.315,0.08,0.424,0.08
			c0.081,0,0.274-0.02,0.502-0.059c0.271-0.04,0.425-0.06,0.547-0.06c0.225,0,0.256,0.223,0.099,0.625
			c-0.031,0.071-0.077,0.124-0.138,0.243c-0.061,0.118-0.1,0.198-0.119,0.241L263.172,56.243z M266.143,47.835
			c0.329,0,0.519,0.119,0.65,0.316c0.094,0.213,0.092,0.48-0.024,0.767c-0.131,0.25-0.318,0.498-0.644,0.659
			c-0.286,0.204-0.567,0.306-0.846,0.306c-0.321,0-0.507-0.112-0.638-0.338c-0.089-0.183-0.085-0.409,0.016-0.724
			c0.134-0.258,0.324-0.476,0.656-0.696C265.601,47.945,265.879,47.835,266.143,47.835z"/>
		<path d="M268.271,52.685c0.119-0.223,0.156-0.421,0.112-0.512c-0.046-0.132-0.22-0.228-0.48-0.285
			c-0.263-0.033-0.36-0.162-0.255-0.403c0.012-0.059,0.107-0.158,0.266-0.257c0.121-0.099,0.29-0.147,0.477-0.147
			c0.045,0,0.165,0.025,0.341,0.075c0.134,0.05,0.286,0.075,0.416,0.075c0.063,0,0.228-0.021,0.488-0.064
			c0.305-0.043,0.45-0.064,0.522-0.064c0.144,0,0.201,0.059,0.201,0.178c0,0.118-0.048,0.314-0.202,0.63
			c-0.212,0.554-0.488,1.107-0.748,1.736l-1.313,2.77c-0.064,0.181-0.1,0.317-0.085,0.367c0.013,0.051,0.028,0.111,0.123,0.151
			c0.098,0.079,0.239,0.14,0.386,0.183c0.188,0.044,0.287,0.104,0.289,0.166c0.012,0.048,0.002,0.137-0.004,0.239
			c-0.107,0.197-0.349,0.316-0.68,0.316c-0.219,0-0.465-0.022-0.684-0.068c-0.21-0.047-0.469-0.07-0.692-0.07
			c-0.217,0-0.461,0.02-0.777,0.06c-0.318,0.039-0.58,0.059-0.704,0.059c-0.336,0-0.445-0.134-0.336-0.36
			c0.02-0.117,0.095-0.175,0.191-0.242c0.098-0.073,0.215-0.116,0.437-0.131c0.208-0.014,0.375-0.05,0.458-0.107
			c0.198-0.13,0.37-0.279,0.463-0.408c0.066-0.086,0.206-0.352,0.389-0.71L268.271,52.685z M272.551,56.438
			c-0.14,0.266-0.178,0.456-0.116,0.522c0.06,0.097,0.21,0.177,0.409,0.237c0.24,0.062,0.282,0.133,0.244,0.302
			c-0.095,0.185-0.28,0.297-0.503,0.297c-0.051,0-0.261-0.013-0.588-0.037c-0.327-0.025-0.601-0.038-0.858-0.038
			c-0.377,0-0.722,0.026-0.999,0.082c-0.277,0.052-0.479,0.079-0.556,0.079c-0.098,0-0.197-0.044-0.271-0.131
			c-0.071-0.082-0.08-0.149-0.024-0.273c0.041-0.095,0.128-0.184,0.259-0.226c0.089-0.083,0.215-0.124,0.338-0.124
			c0.188,0,0.421-0.066,0.618-0.199c0.238-0.091,0.374-0.289,0.493-0.512c0.688-1.556,1.136-2.54,1.316-2.909
			c0.189-0.369,0.305-0.558,0.326-0.607c0.207-0.517,0.078-0.754-0.351-0.754c-0.222,0-0.57,0.126-1.088,0.463
			c-0.477,0.296-0.839,0.422-0.971,0.422c-0.056,0-0.104-0.015-0.143-0.067c-0.04-0.072-0.04-0.148-0.004-0.229
			c0.114-0.212,0.573-0.556,1.378-1.029c0.806-0.475,1.481-0.69,2.027-0.69c0.371,0,0.607,0.064,0.754,0.243
			c0.186,0.189,0.26,0.386,0.222,0.63c-0.04,0.288-0.178,0.651-0.37,1.129l-0.278,0.607L272.551,56.438z"/>
		<path d="M281.627,55.107l0.013,0.043c0.518,0.303,0.83,0.748,0.987,1.338c0.137,0.547,0.072,1.181-0.234,1.823
			c-0.429,0.979-1.247,1.799-2.427,2.459c-1.18,0.627-2.376,0.938-3.593,0.938c-1.249,0-2.139-0.322-2.727-0.966
			c-0.559-0.686-0.608-1.523-0.165-2.604c0.309-0.604,0.755-1.207,1.422-1.727c0.639-0.56,1.352-0.974,2.14-1.24l0.099-0.075
			l-0.039-0.106c-0.219-0.181-0.371-0.431-0.414-0.792c-0.045-0.32,0.029-0.674,0.224-1.062c0.27-0.61,0.787-1.145,1.514-1.557
			c0.727-0.413,1.538-0.654,2.416-0.77c0.103-0.014,0.21-0.071,0.306-0.129c0.261-0.343,0.641-0.677,1.136-1.045
			c0.48-0.368,0.883-0.572,1.166-0.654s0.75-0.124,1.362-0.124c0.364,0,0.475,0.211,0.286,0.589
			c-0.068,0.207-0.26,0.408-0.487,0.519c-0.27,0.153-0.521,0.229-0.793,0.229c-0.073,0-0.157-0.011-0.257-0.033
			c-0.057-0.021-0.142-0.031-0.213-0.031c-0.31,0-0.605,0.097-0.928,0.249c-0.282,0.193-0.432,0.311-0.444,0.344
			c-0.033,0.073-0.003,0.108,0.05,0.108c0.74,0.106,1.238,0.362,1.514,0.808c0.266,0.444,0.246,0.99-0.042,1.669
			c-0.329,0.697-0.906,1.259-1.751,1.702L281.627,55.107z M276.722,60.879c0.844,0,1.66-0.227,2.45-0.722
			c0.788-0.496,1.335-1.112,1.682-1.895c0.361-0.79,0.361-1.4,0.006-1.874c-0.345-0.474-0.926-0.689-1.785-0.689
			c-0.945,0-1.738,0.218-2.491,0.694c-0.717,0.479-1.232,1.101-1.593,1.911c-0.352,0.775-0.352,1.385,0.033,1.869
			C275.418,60.658,275.998,60.879,276.722,60.879z M279.495,54.946c0.514,0,0.988-0.192,1.506-0.534
			c0.52-0.34,0.877-0.759,1.076-1.254c0.131-0.251,0.169-0.528,0.109-0.78c-0.059-0.24-0.196-0.452-0.396-0.55
			c-0.191-0.14-0.358-0.209-0.459-0.209c-0.05,0-0.097,0.032-0.117,0.097c-0.213,0.287-0.427,0.452-0.706,0.452
			c-0.206,0-0.269-0.14-0.143-0.377c0.035-0.079,0.021-0.118-0.044-0.118c-0.1,0-0.258,0.063-0.551,0.182
			c-0.252,0.089-0.507,0.297-0.805,0.546c-0.255,0.247-0.451,0.571-0.603,0.888c-0.229,0.466-0.212,0.856,0.051,1.167
			C278.634,54.769,278.995,54.946,279.495,54.946z"/>
		<path d="M294.217,56.491c0.18,0,0.184,0.125,0.075,0.418c-0.096,0.214-0.54,0.448-1.33,0.76c-0.793,0.324-1.545,0.45-2.255,0.45
			c-1.18,0-2.038-0.354-2.53-1.063c-0.534-0.707-0.552-1.622-0.055-2.699c0.437-0.952,1.215-1.798,2.333-2.524
			c1.119-0.754,2.228-1.13,3.328-1.13c0.611,0,1.221,0.136,1.854,0.376c0.675,0.261,0.942,0.465,0.842,0.687
			c-0.138,0.357-0.26,0.641-0.329,0.864c-0.069,0.234-0.111,0.377-0.128,0.387c-0.102,0.306-0.323,0.425-0.58,0.425
			c-0.226,0-0.272-0.173-0.236-0.562c0.067-0.389-0.034-0.688-0.288-0.943c-0.245-0.211-0.641-0.339-1.188-0.339
			c-0.654,0-1.379,0.257-2.173,0.735c-0.797,0.505-1.411,1.194-1.813,2.11c-0.373,0.837-0.364,1.506,0.044,2.05
			c0.404,0.503,0.971,0.789,1.656,0.789c0.253,0,0.545-0.03,0.835-0.101c0.293-0.072,0.652-0.22,1.079-0.399
			C293.786,56.561,294.058,56.491,294.217,56.491z"/>
		<path d="M301.892,50.746c1.065,0,1.835,0.366,2.312,1.108c0.479,0.767,0.498,1.584,0.061,2.566
			c-0.494,1.071-1.269,1.962-2.327,2.631c-1.058,0.669-2.231,1.006-3.525,1.006c-0.993,0-1.742-0.344-2.25-1.027
			c-0.507-0.683-0.525-1.553-0.056-2.566c0.445-1.005,1.184-1.835,2.21-2.609C299.385,51.114,300.576,50.746,301.892,50.746z
			 M299.028,57.234c0.741,0,1.448-0.297,2.122-0.809c0.673-0.553,1.214-1.221,1.581-2.048c0.359-0.812,0.425-1.462,0.192-1.994
			c-0.265-0.529-0.764-0.775-1.488-0.775c-0.749,0-1.437,0.246-2.063,0.76c-0.669,0.521-1.14,1.162-1.496,1.967
			c-0.397,0.898-0.491,1.592-0.282,2.124C297.847,56.948,298.283,57.234,299.028,57.234z"/>
		<path d="M307.082,52.685c0.115-0.215,0.121-0.416,0.038-0.517c-0.09-0.143-0.206-0.216-0.317-0.216
			c-0.379,0-0.534-0.098-0.413-0.359c0.097-0.271,0.321-0.427,0.59-0.427c0.085,0,0.226,0.025,0.427,0.075
			c0.184,0.051,0.36,0.075,0.49,0.075s0.319-0.021,0.478-0.064c0.204-0.043,0.338-0.064,0.382-0.064
			c0.172,0,0.279,0.049,0.302,0.146s-0.107,0.447-0.346,1.051c-0.278,0.633-0.581,1.362-0.947,2.184l-0.776,1.665
			c-0.148,0.288-0.186,0.495-0.186,0.577s0.021,0.121,0.116,0.199c0.099,0.079,0.232,0.13,0.36,0.151
			c0.167,0.021,0.282,0.056,0.303,0.103c0.061,0.02,0.058,0.105-0.002,0.259c-0.081,0.212-0.32,0.339-0.646,0.339
			c-0.224,0-0.479-0.027-0.689-0.08c-0.218-0.055-0.463-0.081-0.688-0.081c-0.216,0-0.448,0.026-0.744,0.081
			c-0.335,0.053-0.542,0.08-0.7,0.08c-0.359,0-0.467-0.116-0.406-0.307c0.079-0.175,0.169-0.271,0.27-0.303
			c0.098-0.053,0.211-0.093,0.425-0.118c0.168-0.024,0.357-0.082,0.481-0.172c0.165-0.067,0.296-0.163,0.369-0.307
			c0.078-0.144,0.227-0.395,0.402-0.796L307.082,52.685z M311.479,52.664c0.07-0.116,0.062-0.25-0.022-0.36
			c-0.053-0.069-0.181-0.125-0.345-0.125c-0.314,0-0.786,0.161-1.367,0.522c-0.356,0.249-0.614,0.33-0.704,0.33
			c-0.186,0-0.242-0.04-0.167-0.205c0.163-0.323,0.646-0.706,1.433-1.148c0.779-0.441,1.446-0.642,1.924-0.642
			c0.402,0,0.723,0.121,0.879,0.43c0.197,0.302,0.197,0.645-0.002,1.048l-1.758,3.924c-0.101,0.18-0.108,0.365-0.023,0.469
			c0.086,0.147,0.189,0.222,0.397,0.222c0.322,0,0.44,0.145,0.31,0.394c-0.112,0.212-0.319,0.339-0.656,0.339
			c-0.044,0-0.247-0.023-0.568-0.069c-0.322-0.047-0.592-0.07-0.85-0.07c-0.391,0-0.723,0.026-0.998,0.082
			c-0.279,0.052-0.481,0.079-0.568,0.079c-0.085,0-0.179-0.042-0.24-0.125c-0.059-0.084-0.06-0.148-0.002-0.28
			c0.093-0.194,0.223-0.264,0.474-0.264c0.185,0,0.435-0.074,0.657-0.22c0.25-0.104,0.424-0.325,0.557-0.576L311.479,52.664z
			 M315.931,52.664c0.071-0.116,0.063-0.25-0.028-0.36c-0.089-0.069-0.174-0.125-0.339-0.125c-0.243,0-0.626,0.121-1.148,0.447
			c-0.521,0.284-0.829,0.405-0.965,0.405c-0.044,0-0.108-0.015-0.152-0.038c-0.044-0.054-0.049-0.117-0.017-0.189
			c0.127-0.279,0.558-0.645,1.324-1.093c0.766-0.449,1.477-0.653,2.045-0.653c0.676,0,1.012,0.277,1.01,0.83
			c0.008,0.194-0.371,1.13-1.148,2.89l-0.764,1.66c-0.063,0.187-0.077,0.359-0.014,0.456c0.036,0.091,0.185,0.173,0.375,0.223
			c0.225,0.05,0.351,0.11,0.373,0.166c0.021,0.04,0.012,0.123-0.03,0.217c-0.12,0.227-0.345,0.361-0.667,0.361
			c-0.047,0-0.213-0.023-0.53-0.069c-0.317-0.047-0.631-0.07-0.855-0.07c-0.226,0-0.525,0.026-0.82,0.082
			c-0.295,0.052-0.567,0.079-0.734,0.079c-0.128,0-0.212-0.042-0.239-0.125c-0.061-0.084-0.062-0.148-0.002-0.28
			c0.059-0.194,0.283-0.312,0.59-0.344c0.306-0.032,0.564-0.12,0.694-0.239c0.172-0.125,0.296-0.304,0.358-0.477L315.931,52.664z"/>
		<path d="M317.828,59.267c0.227-0.365,0.671-1.37,1.417-3.055c0.366-0.811,0.88-1.989,1.522-3.538
			c0.065-0.136,0.061-0.292-0.006-0.425c-0.037-0.09-0.269-0.192-0.617-0.264c-0.259-0.051-0.44-0.112-0.505-0.143
			c-0.028-0.072-0.03-0.163-0.022-0.271c0.127-0.242,0.371-0.384,0.773-0.384c0.088,0,0.284,0.034,0.551,0.103
			c0.264,0.067,0.462,0.102,0.549,0.102c0.051,0,0.263-0.04,0.553-0.123c0.289-0.083,0.492-0.124,0.563-0.124
			c0.152,0,0.256,0.043,0.268,0.129c0.013,0.086-0.022,0.192-0.103,0.355l-1.531,3.412c-0.304,0.69-0.335,1.26-0.077,1.673
			c0.268,0.412,0.693,0.598,1.262,0.598c0.289,0,0.697-0.096,1.269-0.37c0.569-0.233,1.05-0.59,1.519-1.07
			c0.466-0.479,0.828-0.984,1.08-1.6c0.308-0.694,0.379-1.304,0.217-1.869c-0.205-0.548-0.579-0.826-1.127-0.826
			c-0.344,0-0.72,0.069-1.059,0.21c-0.339,0.097-0.537,0.166-0.639,0.166c-0.101,0-0.175-0.031-0.195-0.096
			c-0.038-0.023-0.042-0.102-0.002-0.194c0.054-0.196,0.377-0.384,0.955-0.583c0.58-0.201,1.001-0.312,1.373-0.312
			c1.04,0,1.763,0.327,2.173,1.023c0.41,0.654,0.353,1.574-0.175,2.717c-0.398,0.855-1.122,1.674-2.175,2.415
			c-1.053,0.746-2.127,1.135-3.139,1.135c-0.395,0-0.74-0.04-1.037-0.154c-0.302-0.114-0.687-0.337-1.075-0.712
			c-0.028,0-0.14,0.141-0.304,0.478c-0.365,0.813-0.696,1.465-0.99,1.9c-0.293,0.426-0.659,0.807-1.056,1.115
			c-0.41,0.309-0.77,0.517-1.12,0.663c-0.307,0.146-0.574,0.198-0.81,0.198c-0.373,0-0.496-0.072-0.411-0.263
			c0.036-0.08,0.123-0.126,0.344-0.221c0.47-0.236,0.845-0.501,1.167-0.834C317.491,59.895,317.685,59.589,317.828,59.267z"/>
		<path d="M340.039,53.97c0.121,0,0.247-0.029,0.329-0.086c0.083-0.058,0.158-0.119,0.184-0.268
			c0.245-0.505,0.261-0.976,0.049-1.375c-0.173-0.427-0.666-0.665-1.442-0.665c-0.553,0-1.21,0.278-2.016,0.765
			c-0.802,0.522-1.394,1.24-1.817,2.193c-0.297,0.674-0.269,1.272,0.087,1.835c0.357,0.524,0.886,0.822,1.633,0.822
			c0.588,0,1.271-0.197,2.094-0.549c0.305-0.136,0.521-0.184,0.607-0.184c0.085,0,0.172,0.036,0.215,0.066
			c0.042,0.073,0.038,0.165-0.011,0.272c-0.117,0.221-0.583,0.495-1.445,0.868c-0.875,0.331-1.69,0.475-2.444,0.475
			c-1.114,0-1.884-0.38-2.31-1.143c-0.424-0.762-0.396-1.655,0.087-2.728c0.436-0.941,1.226-1.771,2.368-2.447
			c1.143-0.718,2.229-1.056,3.256-1.056c1.373,0,2.231,0.341,2.599,1.065c0.36,0.684,0.321,1.518-0.114,2.459
			c-0.104,0.229-0.225,0.328-0.32,0.383c-0.141,0.055-0.321,0.081-0.628,0.081h-4.424c-0.358,0-0.493-0.148-0.358-0.404
			c0.084-0.241,0.355-0.382,0.728-0.382H340.039z"/>
		<path d="M357.566,52.332c-0.797,0.506-1.418,1.197-1.822,2.109c-0.371,0.838-0.353,1.506,0.053,2.052
			c0.404,0.505,0.971,0.789,1.652,0.789c0.236,0,0.525-0.028,0.84-0.104c0.291-0.069,0.647-0.216,1.078-0.396
			c0.423-0.222,0.7-0.29,0.857-0.29c0.155,0,0.182,0.12,0.068,0.418c-0.094,0.215-0.534,0.447-1.326,0.758
			c-0.789,0.324-1.538,0.45-2.254,0.45c-1.179,0-2.036-0.354-2.571-1.063c-0.489-0.708-0.506-1.621-0.042-2.701
			c0.428-0.949,1.201-1.796,2.33-2.521c1.153-0.754,2.262-1.128,3.36-1.128c0.575,0,1.225,0.134,1.852,0.374
			c0.636,0.261,0.945,0.463,0.846,0.685c-0.182,0.359-0.263,0.645-0.332,0.866c-0.066,0.236-0.113,0.377-0.128,0.387
			c-0.144,0.304-0.319,0.425-0.576,0.425c-0.227,0-0.306-0.173-0.239-0.563c0.071-0.39-0.04-0.686-0.284-0.942
			c-0.246-0.214-0.646-0.337-1.192-0.337C359.085,51.6,358.361,51.854,357.566,52.332z"/>
		<path d="M331.387,57.312c0.036,0.088,0.023,0.198-0.036,0.327c-0.104,0.191-0.289,0.307-0.596,0.307
			c-0.216,0-0.482-0.029-0.842-0.081c-0.354-0.053-0.626-0.082-0.836-0.082c-0.163,0-0.466,0.029-0.837,0.082
			c-0.368,0.052-0.636,0.081-0.834,0.081c-0.248,0-0.416-0.029-0.443-0.099c-0.04-0.064-0.043-0.152,0-0.226
			c0.021-0.117,0.1-0.216,0.206-0.298c0.101-0.041,0.303-0.104,0.647-0.156c0.344-0.058,0.636-0.175,0.784-0.313
			c0.196-0.188,0.315-0.355,0.416-0.601l4.691-10.459c0.113-0.208,0.154-0.43,0.121-0.574c-0.03-0.192-0.204-0.327-0.484-0.371
			c-0.273-0.089-0.449-0.176-0.475-0.264c-0.031-0.088-0.024-0.139,0.025-0.249c0.049-0.11,0.147-0.198,0.271-0.236
			c0.13-0.049,0.268-0.083,0.4-0.083c0.072,0,0.235,0.023,0.398,0.063c0.205,0.02,0.365,0.022,0.429,0.022
			c0.122,0,0.316-0.003,0.54-0.022c0.221-0.04,0.412-0.063,0.535-0.063c0.191,0,0.331,0.063,0.384,0.139
			c0.042,0.122,0.01,0.331-0.132,0.616l-5.246,11.662c-0.046,0.156-0.066,0.32-0.028,0.455c0.021,0.096,0.176,0.189,0.45,0.248
			C331.215,57.196,331.35,57.267,331.387,57.312z"/>
		<path d="M369.236,57.585c-0.027,0.084-0.124,0.133-0.266,0.203c-0.135,0.07-0.238,0.104-0.364,0.104
			c-0.134,0-0.264-0.034-0.469-0.098c-0.161-0.064-0.335-0.094-0.452-0.094c-0.149,0-0.372,0.029-0.612,0.094
			c-0.234,0.063-0.421,0.098-0.503,0.098c-0.07,0-0.14-0.034-0.204-0.11c-0.068-0.069-0.083-0.113-0.053-0.168
			c0.053-0.116,0.045-0.174-0.027-0.174c-0.051,0-0.125,0.022-0.188,0.075c-0.951,0.459-1.854,0.668-2.693,0.668
			c-0.375,0-0.781-0.117-1.18-0.302c-0.404-0.213-0.687-0.541-0.758-0.977c-0.119-0.398-0.016-0.94,0.256-1.563
			c0.291-0.698,0.896-1.272,1.744-1.809c0.884-0.518,1.847-0.772,2.841-0.772c0.343,0,0.669,0.104,0.987,0.272
			c0.357,0.217,0.444,0.391,0.389,0.611c-0.046,0.105-0.133,0.15-0.256,0.215s-0.211,0.099-0.347,0.099
			c-0.092,0-0.202-0.064-0.42-0.167c-0.171-0.117-0.422-0.182-0.663-0.182c-0.549,0-1.047,0.175-1.533,0.482
			c-0.497,0.302-0.86,0.727-1.079,1.25c-0.299,0.598-0.305,1.075-0.023,1.394c0.239,0.319,0.628,0.5,1.171,0.5
			c0.434,0,0.954-0.175,1.508-0.476c0.51-0.303,0.894-0.721,1.149-1.25l1.183-2.62c0.152-0.396,0.165-0.709,0.045-0.983
			c-0.172-0.225-0.456-0.365-0.898-0.365c-0.581,0-1.188,0.198-1.869,0.553c-0.261,0.133-0.387,0.161-0.457,0.161
			c-0.17,0-0.257-0.015-0.335-0.092c-0.081-0.093-0.092-0.21-0.03-0.31c0.127-0.348,0.537-0.604,1.235-0.807
			c0.666-0.244,1.343-0.357,2.017-0.357c0.854,0,1.464,0.23,1.78,0.66c0.325,0.43,0.359,0.905,0.107,1.516l-1.489,3.252
			c-0.19,0.45-0.018,0.775,0.508,0.967c0.147,0.053,0.248,0.111,0.262,0.175C369.299,57.282,369.289,57.405,369.236,57.585z"/>
		<path d="M349.282,57.282c0.053,0.047,0.046,0.151-0.025,0.314c-0.042,0.072-0.142,0.139-0.242,0.215
			c-0.151,0.075-0.329,0.11-0.511,0.11c-0.134,0-0.298-0.023-0.561-0.069c-0.229-0.047-0.418-0.07-0.551-0.07
			c-0.487,0-0.896,0.029-1.223,0.082c-0.318,0.052-0.529,0.081-0.582,0.081c-0.365,0-0.474-0.122-0.389-0.324
			c0.032-0.111,0.104-0.205,0.195-0.274c0.091-0.064,0.195-0.087,0.41-0.127c0.175-0.041,0.302-0.105,0.339-0.187
			c0.042-0.093,0.069-0.15,0.082-0.255c0.013-0.105-0.035-0.271-0.125-0.472l-0.398-0.999c-0.021-0.058-0.054-0.087-0.096-0.087
			c-0.036,0-0.133,0.063-0.294,0.149l-1.616,1.256c-0.091,0.099-0.179,0.204-0.226,0.269c-0.078,0.174-0.039,0.267,0.136,0.267
			c0.081,0,0.197,0.04,0.303,0.121c0.107,0.053,0.112,0.175,0.06,0.327c-0.06,0.092-0.134,0.19-0.217,0.243
			c-0.083,0.059-0.19,0.081-0.414,0.081c-0.113,0-0.315-0.018-0.52-0.063c-0.252-0.04-0.491-0.064-0.763-0.064
			c-0.305,0-0.531,0.029-0.733,0.081c-0.229,0.054-0.4,0.082-0.483,0.082c-0.292,0-0.392-0.129-0.292-0.342
			c0.083-0.246,0.364-0.36,0.76-0.431c0.387-0.064,0.674-0.152,0.838-0.263c0.203-0.062,0.584-0.365,1.128-0.814l1.959-1.526
			c0.064-0.025,0.112-0.063,0.131-0.104c0.021-0.047,0.018-0.104-0.015-0.175l-0.506-1.255l-0.043-0.075
			c-0.159-0.675-0.489-0.988-0.977-0.988c-0.364,0-0.5-0.141-0.361-0.424c0.048-0.104,0.14-0.151,0.242-0.227
			c0.138-0.076,0.313-0.116,0.482-0.116c0.14,0,0.289,0.028,0.533,0.081c0.193,0.059,0.394,0.082,0.497,0.082
			c0.494,0,0.92-0.029,1.279-0.094c0.357-0.058,0.58-0.087,0.626-0.087c0.321,0,0.408,0.14,0.31,0.383
			c-0.047,0.105-0.116,0.198-0.208,0.261c-0.092,0.041-0.202,0.1-0.423,0.134c-0.174,0.042-0.304,0.106-0.338,0.188
			c-0.031,0.064,0.001,0.174,0.102,0.407l0.193,0.469c0.062,0.146,0.119,0.217,0.153,0.217c0.054,0,0.146-0.054,0.236-0.152
			l0.911-0.68c0.185-0.14,0.251-0.196,0.282-0.267c0.039-0.088-0.018-0.128-0.128-0.128c-0.116,0-0.211-0.047-0.302-0.129
			c-0.052-0.059-0.058-0.156-0.012-0.302c0.11-0.255,0.38-0.4,0.747-0.4c0.114,0,0.285,0.023,0.435,0.082
			c0.177,0.052,0.383,0.075,0.691,0.075c0.255,0,0.479-0.023,0.717-0.07c0.188-0.047,0.368-0.069,0.497-0.069
			c0.226,0,0.297,0.14,0.177,0.365c-0.066,0.146-0.146,0.239-0.204,0.261c-0.096,0.029-0.292,0.076-0.547,0.117
			c-0.252,0.035-0.556,0.123-0.83,0.256c-0.271,0.087-0.646,0.355-1.121,0.709l-1.153,0.871c-0.087,0.063-0.141,0.117-0.16,0.163
			c-0.021,0.047-0.02,0.117,0.005,0.204l0.747,1.943c0.153,0.389,0.306,0.665,0.406,0.775c0.122,0.116,0.325,0.209,0.541,0.268
			C349.08,57.22,349.223,57.272,349.282,57.282z"/>
		<path d="M374.781,53.053l-0.091,0.302c0.036,0,0.342-0.338,0.879-0.938c0.563-0.597,1.017-1.039,1.419-1.326
			c0.369-0.244,0.713-0.388,0.984-0.388c0.205,0,0.369,0.043,0.455,0.13c0.089,0.087,0.107,0.185,0.06,0.25
			c-0.085,0.188-0.195,0.339-0.331,0.409c-0.095,0.111-0.308,0.251-0.556,0.375c-1.098,0.649-2.05,1.407-2.819,2.313
			c-0.765,0.865-1.293,1.605-1.549,2.219c-0.117,0.266-0.146,0.474-0.119,0.542c0.006,0.11,0.153,0.202,0.395,0.278
			c0.283,0.063,0.407,0.114,0.46,0.2c0.056,0.088,0.056,0.189,0.005,0.265c-0.08,0.21-0.226,0.315-0.477,0.315
			c-0.159,0-0.385-0.032-0.708-0.097c-0.286-0.065-0.611-0.097-0.979-0.097c-0.246,0-0.522,0.031-0.789,0.097
			c-0.268,0.064-0.462,0.097-0.541,0.097c-0.157,0-0.305-0.038-0.392-0.114c-0.073-0.076-0.075-0.173-0.055-0.247
			c0.04-0.087,0.109-0.166,0.21-0.234c0.099-0.069,0.287-0.122,0.607-0.222c0.324-0.107,0.563-0.215,0.684-0.289
			c0.077-0.097,0.264-0.391,0.473-0.911l1.337-2.966c0.092-0.167,0.127-0.353,0.105-0.474c-0.024-0.164-0.16-0.291-0.369-0.338
			c-0.251-0.089-0.37-0.166-0.377-0.232c-0.019-0.065-0.013-0.118,0.007-0.177c0.081-0.24,0.306-0.33,0.602-0.33
			c0.094,0,0.199,0,0.403,0.023c0.177,0.036,0.307,0.055,0.392,0.055c0.072,0,0.158-0.015,0.328-0.043
			c0.176-0.029,0.333-0.035,0.556-0.035c0.347,0,0.356,0.389,0.029,1.144L374.781,53.053z"/>
		<path d="M383.754,53.97c0.164,0,0.246-0.029,0.329-0.086c0.084-0.058,0.158-0.119,0.224-0.268
			c0.206-0.505,0.221-0.976,0.033-1.375c-0.196-0.427-0.689-0.665-1.465-0.665c-0.512,0-1.213,0.278-2.004,0.765
			c-0.779,0.522-1.407,1.24-1.831,2.193c-0.297,0.674-0.271,1.272,0.087,1.835c0.355,0.524,0.926,0.822,1.674,0.822
			c0.546,0,1.23-0.197,2.053-0.549c0.34-0.136,0.521-0.184,0.606-0.184c0.104,0,0.173,0.036,0.215,0.066
			c0.043,0.073,0.039,0.165-0.01,0.272c-0.101,0.221-0.57,0.495-1.447,0.868c-0.873,0.331-1.688,0.475-2.443,0.475
			c-1.114,0-1.885-0.38-2.309-1.143c-0.426-0.762-0.396-1.655,0.085-2.728c0.438-0.941,1.227-1.771,2.37-2.447
			c1.143-0.718,2.228-1.056,3.274-1.056c1.353,0,2.219,0.341,2.578,1.065c0.361,0.684,0.321,1.518-0.113,2.459
			c-0.104,0.229-0.182,0.328-0.319,0.383c-0.14,0.055-0.322,0.081-0.597,0.081h-4.456c-0.356,0-0.491-0.148-0.356-0.404
			c0.123-0.241,0.354-0.382,0.728-0.382H383.754z"/>
		<path d="M386.548,55.952c0.264,0,0.479,0.104,0.568,0.271c0.127,0.208,0.116,0.435-0.03,0.722
			c-0.109,0.337-0.336,0.559-0.591,0.725c-0.259,0.171-0.555,0.267-0.805,0.267c-0.214,0-0.424-0.108-0.573-0.286
			c-0.124-0.218-0.142-0.426-0.017-0.705c0.093-0.259,0.319-0.479,0.601-0.701C385.979,56.064,386.289,55.952,386.548,55.952z"/>
		<path d="M389.198,55.952c0.265,0,0.481,0.104,0.573,0.271c0.122,0.208,0.113,0.435-0.008,0.722
			c-0.137,0.337-0.356,0.559-0.616,0.725c-0.26,0.171-0.526,0.267-0.805,0.267c-0.216,0-0.424-0.108-0.54-0.286
			c-0.157-0.218-0.177-0.426-0.051-0.705c0.101-0.259,0.319-0.479,0.601-0.701C388.633,56.064,388.94,55.952,389.198,55.952z"/>
		<path d="M391.85,55.952c0.266,0,0.482,0.104,0.611,0.271c0.085,0.208,0.076,0.435-0.031,0.722
			c-0.15,0.337-0.342,0.559-0.631,0.725c-0.259,0.171-0.512,0.267-0.804,0.267c-0.216,0-0.424-0.108-0.54-0.286
			c-0.158-0.218-0.177-0.426-0.051-0.705c0.13-0.259,0.319-0.479,0.6-0.701C391.314,56.064,391.593,55.952,391.85,55.952z"/>
		<path d="M395.112,56.22c0.087,0.21,0.085,0.436-0.03,0.726c-0.153,0.337-0.333,0.559-0.631,0.724
			c-0.262,0.171-0.512,0.265-0.803,0.265c-0.213,0-0.383-0.104-0.539-0.284c-0.161-0.216-0.176-0.424-0.051-0.704
			c0.136-0.261,0.316-0.48,0.596-0.703c0.321-0.179,0.591-0.29,0.846-0.29C394.809,55.952,394.982,56.058,395.112,56.22z"/>
		<path d="M397.736,56.945c-0.15,0.337-0.337,0.559-0.59,0.724c-0.301,0.171-0.557,0.265-0.807,0.265
			c-0.256,0-0.424-0.104-0.58-0.284c-0.153-0.216-0.158-0.424-0.051-0.704c0.136-0.261,0.322-0.48,0.643-0.703
			c0.279-0.179,0.549-0.29,0.81-0.29c0.304,0,0.476,0.105,0.605,0.268C397.895,56.43,397.886,56.655,397.736,56.945z"/>
	</g>
	
		<radialGradient id="SVGID_1_" cx="29.4346" cy="27.5566" r="12.249" gradientTransform="matrix(0.9656 0 0 0.9656 6.8735 1.1548)" gradientUnits="userSpaceOnUse">
		<stop  offset="0" style="stop-color:#FFFFFF;stop-opacity:0.1"/>
		<stop  offset="0" style="stop-color:#F0F2F8;stop-opacity:0.1044"/>
		<stop  offset="0" style="stop-color:#C7D0E6;stop-opacity:0.1179"/>
		<stop  offset="0" style="stop-color:#A1B0D5;stop-opacity:0.1331"/>
		<stop  offset="0" style="stop-color:#8195C7;stop-opacity:0.1496"/>
		<stop  offset="0" style="stop-color:#657FBA;stop-opacity:0.1679"/>
		<stop  offset="0" style="stop-color:#4F6CB1;stop-opacity:0.1885"/>
		<stop  offset="0" style="stop-color:#3E5EA9;stop-opacity:0.2126"/>
		<stop  offset="0" style="stop-color:#3354A4;stop-opacity:0.2423"/>
		<stop  offset="0" style="stop-color:#2C4FA1;stop-opacity:0.2841"/>
		<stop  offset="0" style="stop-color:#2A4DA0;stop-opacity:0.4"/>
		<stop  offset="0" style="stop-color:#2A4DA0;stop-opacity:0.3948"/>
		<stop  offset="0" style="stop-color:#2B4C9E;stop-opacity:0"/>
		<stop  offset="0.5202" style="stop-color:#374B90;stop-opacity:0.5202"/>
		<stop  offset="1" style="stop-color:#3D4B88"/>
	</radialGradient>
	<path fill="url(#SVGID_1_)" d="M42.823,31.182c0,6.428-5.366,11.673-11.971,11.673c-6.617,0-11.992-5.245-11.992-11.673
		c0-6.45,5.375-11.674,11.992-11.674C37.458,19.508,42.823,24.732,42.823,31.182z"/>
	<g>
		<path fill="#2F4F89" d="M92.7,33.495c0.17,0,0.314,0.073,0.433,0.175c0.14,0.145,0.189,0.273,0.189,0.351
			c0,0.391-0.443,1.049-1.37,1.926c-0.906,0.834-2.101,1.572-3.565,2.215c-1.485,0.601-3.044,0.9-4.676,0.9
			c-2.644,0-4.962-0.556-6.901-1.711c-1.955-1.154-3.468-2.77-4.498-4.845c-1.05-2.036-1.564-4.197-1.564-6.406
			c0-2.23,0.502-4.306,1.527-6.25c1.025-1.943,2.464-3.455,4.341-4.537c1.893-1.098,4.071-1.638,6.556-1.638
			c1.584,0,3.044,0.208,4.385,0.625c1.341,0.417,2.41,0.91,3.186,1.499c0.776,0.59,1.164,1.044,1.164,1.341
			c0,0.485-0.012,0.9-0.037,1.284c-0.025,0.385-0.038,0.622-0.038,0.71c0,0.129,0.043,0.338,0.11,0.624
			c0.088,0.266,0.132,0.531,0.132,0.773c0,0.373-0.236,0.559-0.709,0.559c-0.142,0-0.285-0.075-0.427-0.205
			c-0.164-0.143-0.366-0.531-0.653-1.14c-0.603-1.329-1.257-2.299-1.939-2.896c-1.219-1.066-2.909-1.588-5.091-1.588
			c-2.79,0-4.976,1.023-6.536,3.05c-1.561,2.044-2.341,4.667-2.341,7.882c0,3.508,0.852,6.277,2.533,8.312
			c1.682,2.047,3.967,3.05,6.837,3.05c0.732,0,1.89-0.232,3.474-0.739c1.583-0.468,3.145-1.442,4.685-2.851
			C92.247,33.632,92.511,33.495,92.7,33.495z"/>
		<path fill="#2F4F89" d="M101.332,26.363c1.874,0,3.523,0.649,4.928,1.938c1.382,1.3,2.095,2.784,2.095,4.488
			c0,1.886-0.678,3.426-2.012,4.618c-1.335,1.192-3.13,1.768-5.364,1.768c-1.77,0-3.363-0.588-4.779-1.806
			c-1.395-1.217-2.114-2.719-2.114-4.512c0-1.734,0.625-3.239,1.874-4.551C97.187,27.016,98.985,26.363,101.332,26.363z
			 M101.351,37.686c1.297,0,2.344-0.479,3.12-1.396c0.776-0.958,1.165-2.15,1.165-3.577c0-1.408-0.419-2.583-1.258-3.483
			c-0.818-0.92-1.884-1.36-3.156-1.36c-1.331,0-2.335,0.432-3.075,1.332c-0.72,0.881-1.08,2.047-1.08,3.437
			c0,1.552,0.403,2.788,1.211,3.708C99.085,37.226,100.095,37.686,101.351,37.686z"/>
		<path fill="#2F4F89" d="M111.894,29.766c0-0.421-0.091-0.728-0.252-0.938c-0.161-0.211-0.52-0.356-1.035-0.457
			c-0.515-0.079-0.782-0.318-0.782-0.696c0-0.157,0.101-0.332,0.281-0.483s0.424-0.237,0.71-0.237c0.117,0,0.339,0.044,0.665,0.132
			c0.305,0.067,0.57,0.111,0.776,0.111c0.118,0,0.413-0.038,0.85-0.092c0.456-0.075,0.728-0.113,0.852-0.113
			c0.231,0,0.386,0.104,0.466,0.29c0.101,0.186,0.158,0.562,0.17,1.126c0.015,0.938,0.018,1.944,0.018,2.998l-0.093,4.864
			c0,0.348,0.031,0.544,0.089,0.632c0.046,0.088,0.193,0.201,0.389,0.296c0.207,0.14,0.484,0.246,0.806,0.31
			c0.343,0.045,0.55,0.149,0.634,0.283c0.1,0.105,0.129,0.247,0.129,0.426c0,0.379-0.285,0.547-0.877,0.547
			c-0.411,0-0.835-0.041-1.271-0.092c-0.415-0.07-0.845-0.11-1.269-0.11c-0.335,0-0.781,0.034-1.316,0.104
			c-0.535,0.026-0.937,0.062-1.205,0.062c-0.579,0-0.865-0.194-0.865-0.623c0-0.203,0.042-0.326,0.156-0.453
			c0.092-0.128,0.315-0.162,0.65-0.188c0.385-0.025,0.628-0.088,0.729-0.188c0.247-0.258,0.408-0.521,0.483-0.705
			c0.076-0.224,0.113-0.612,0.113-1.265V29.766z M122.306,36.31c0,0.455,0.07,0.811,0.251,0.938c0.162,0.17,0.446,0.266,0.875,0.372
			c0.429,0.107,0.644,0.278,0.644,0.56c0,0.354-0.212,0.511-0.636,0.511c-0.088,0-0.424-0.017-1.028-0.023
			c-0.604-0.044-1.102-0.066-1.513-0.066c-0.671,0-1.25,0.047-1.718,0.099c-0.474,0.095-0.766,0.142-0.896,0.142
			c-0.206,0-0.396-0.076-0.575-0.187c-0.19-0.152-0.267-0.337-0.267-0.511c0-0.167,0.074-0.279,0.224-0.426
			c0.142-0.146,0.309-0.208,0.502-0.208c0.359,0,0.696-0.086,0.968-0.317c0.293-0.189,0.429-0.495,0.429-0.918
			c0-2.726,0.019-4.428,0.057-5.064c0.026-0.677,0.036-1.02,0.036-1.108c0-0.873-0.397-1.319-1.2-1.319
			c-0.36,0-0.854,0.274-1.507,0.801c-0.632,0.528-1.098,0.802-1.372,0.802c-0.083,0-0.194-0.063-0.299-0.17
			c-0.104-0.127-0.166-0.24-0.166-0.362c0-0.401,0.513-1.014,1.561-1.833c1.035-0.82,2.049-1.23,3.046-1.23
			c0.588,0,1.09,0.157,1.522,0.458c0.435,0.291,0.729,0.668,0.866,1.126c0.135,0.46,0.213,1.092,0.213,1.918l-0.019,1.081V36.31z"/>
		<path fill="#2F4F89" d="M128.209,29.766c0-0.421-0.07-0.728-0.231-0.938c-0.182-0.211-0.52-0.356-1.034-0.457
			c-0.515-0.079-0.783-0.318-0.783-0.696c0-0.157,0.081-0.332,0.273-0.483c0.188-0.151,0.411-0.237,0.718-0.237
			c0.117,0,0.339,0.044,0.643,0.132c0.326,0.067,0.578,0.111,0.776,0.111c0.139,0,0.415-0.038,0.871-0.092
			c0.455-0.075,0.726-0.113,0.852-0.113c0.211,0,0.386,0.104,0.466,0.29c0.101,0.186,0.137,0.562,0.149,1.126
			c0.025,0.938,0.038,1.944,0.038,2.998l-0.092,4.864c0,0.348,0.031,0.544,0.073,0.632c0.063,0.088,0.189,0.201,0.4,0.296
			c0.211,0.14,0.489,0.246,0.811,0.31c0.322,0.045,0.534,0.149,0.634,0.283c0.08,0.105,0.129,0.247,0.129,0.426
			c0,0.379-0.285,0.547-0.876,0.547c-0.412,0-0.835-0.041-1.271-0.092c-0.437-0.07-0.845-0.11-1.269-0.11
			c-0.338,0-0.781,0.034-1.316,0.104c-0.556,0.026-0.957,0.062-1.205,0.062c-0.579,0-0.879-0.194-0.879-0.623
			c0-0.203,0.057-0.326,0.155-0.453c0.107-0.128,0.331-0.162,0.665-0.188c0.385-0.025,0.627-0.088,0.707-0.188
			c0.268-0.258,0.429-0.521,0.504-0.705c0.062-0.224,0.092-0.612,0.092-1.265V29.766z M138.642,36.31
			c0,0.455,0.07,0.811,0.231,0.938c0.162,0.17,0.466,0.266,0.896,0.372c0.427,0.107,0.625,0.278,0.625,0.56
			c0,0.354-0.197,0.511-0.617,0.511c-0.089,0-0.424-0.017-1.028-0.023c-0.604-0.044-1.102-0.066-1.513-0.066
			c-0.692,0-1.265,0.047-1.718,0.099c-0.474,0.095-0.766,0.142-0.917,0.142c-0.206,0-0.396-0.076-0.57-0.187
			c-0.174-0.152-0.25-0.337-0.25-0.511c0-0.167,0.061-0.279,0.214-0.426c0.152-0.146,0.319-0.208,0.512-0.208
			c0.359,0,0.675-0.086,0.968-0.317c0.271-0.189,0.429-0.495,0.429-0.918c0-2.726,0.019-4.428,0.035-5.064
			c0.038-0.677,0.057-1.02,0.057-1.108c0-0.873-0.407-1.319-1.221-1.319c-0.345,0-0.833,0.274-1.486,0.801
			c-0.65,0.528-1.099,0.802-1.377,0.802c-0.079,0-0.191-0.063-0.294-0.17c-0.125-0.127-0.166-0.24-0.166-0.362
			c0-0.401,0.514-1.014,1.561-1.833c1.026-0.82,2.048-1.23,3.046-1.23c0.588,0,1.089,0.157,1.523,0.458
			c0.435,0.291,0.708,0.668,0.865,1.126c0.136,0.46,0.199,1.092,0.199,1.918l-0.003,1.081V36.31z"/>
		<path fill="#2F4F89" d="M152.603,32.006c0.256,0,0.43-0.05,0.53-0.149c0.079-0.099,0.129-0.239,0.129-0.499
			c0-0.834-0.332-1.667-1.016-2.418c-0.663-0.75-1.685-1.125-3.044-1.125c-0.938,0-1.909,0.454-2.916,1.339
			c-1.006,0.894-1.499,2.152-1.499,3.791c0,1.203,0.523,2.271,1.589,3.246c1.046,0.933,2.233,1.421,3.541,1.421
			c0.998,0,2.084-0.304,3.237-0.91c0.426-0.264,0.724-0.354,0.854-0.354c0.204,0,0.362,0.022,0.494,0.149
			c0.11,0.128,0.176,0.245,0.176,0.437c0,0.416-0.631,0.93-1.881,1.498c-1.252,0.611-2.533,0.896-3.874,0.896
			c-1.943,0-3.603-0.657-4.937-2.014c-1.335-1.354-2.013-2.908-2.013-4.788c0-1.663,0.744-3.115,2.208-4.32
			c1.458-1.205,3.114-1.807,4.931-1.807c2.367,0,4.143,0.608,5.323,1.826c1.18,1.217,1.77,2.676,1.77,4.339
			c0,0.359-0.1,0.607-0.28,0.683c-0.18,0.071-0.507,0.118-0.997,0.118h-7.777c-0.639,0-0.948-0.218-0.948-0.697
			c0-0.454,0.322-0.66,0.971-0.66H152.603z"/>
		<path fill="#2F4F89" d="M169.56,36.361c0.31,0,0.486,0.293,0.486,0.796c0,0.352-0.576,0.774-1.734,1.325
			c-1.143,0.551-2.332,0.806-3.594,0.806c-2.055,0-3.824-0.615-5.31-1.871c-1.464-1.262-2.196-2.843-2.196-4.741
			c0-1.702,0.688-3.18,2.085-4.452c1.397-1.279,3.054-1.918,4.992-1.918c1.05,0,2.236,0.217,3.558,0.64
			c1.322,0.423,1.994,0.813,1.994,1.163c0,0.633,0.018,1.161,0.092,1.551c0.076,0.388,0.113,0.61,0.113,0.672
			c0,0.52-0.24,0.761-0.719,0.761c-0.353,0-0.631-0.335-0.829-1.025c-0.191-0.67-0.606-1.206-1.246-1.61
			c-0.641-0.404-1.423-0.606-2.347-0.606c-1.167,0-2.244,0.437-3.25,1.29c-1.006,0.874-1.499,2.1-1.499,3.686
			c0,1.444,0.56,2.638,1.679,3.539c1.119,0.943,2.289,1.415,3.509,1.415c0.44,0,0.895-0.063,1.381-0.189
			c0.465-0.083,0.998-0.341,1.583-0.688C168.886,36.556,169.304,36.361,169.56,36.361z"/>
		<path fill="#2F4F89" d="M176.471,34.872c0,0.971,0.049,1.562,0.149,1.856c0.078,0.253,0.237,0.394,0.477,0.394
			c0.367,0,0.828-0.219,1.36-0.629s0.897-0.594,1.094-0.594c0.148,0,0.274,0.059,0.389,0.187c0.12,0.153,0.185,0.296,0.185,0.512
			c0,0.315-0.451,0.854-1.348,1.573c-0.885,0.719-1.671,1.079-2.34,1.079c-1.795,0-2.7-1.328-2.7-3.942v-6.526
			c0-0.217-0.014-0.324-0.076-0.343c-0.063-0.019-0.373-0.028-0.95-0.028c-0.46,0-0.757-0.073-0.914-0.198
			c-0.175-0.125-0.241-0.317-0.241-0.576c0-0.221,0.046-0.371,0.177-0.473c0.111-0.081,0.347-0.185,0.688-0.271
			c0.343-0.106,0.615-0.211,0.801-0.335c0.187-0.144,0.454-0.403,0.782-0.819s0.571-0.997,0.708-1.742
			c0.157-0.745,0.214-1.833,0.214-3.243c0-0.657,0.183-0.985,0.552-0.985c0.411,0,0.675,0.083,0.775,0.269
			c0.107,0.186,0.165,0.511,0.165,0.94v5.682c0,0.23,0.142,0.334,0.427,0.334h2.422c0.477,0,0.726,0.215,0.726,0.643
			c0,0.484-0.347,0.736-1.042,0.736h-2.124c-0.176,0-0.261,0.028-0.299,0.085c-0.038,0.039-0.056,0.177-0.056,0.381V34.872z"/>
		<path fill="#2F4F89" d="M205.267,17.289c0-0.452-0.138-0.82-0.453-1.107c-0.356-0.286-0.741-0.419-1.239-0.419
			c-0.386,0-0.688-0.061-0.952-0.203c-0.222-0.127-0.354-0.299-0.354-0.514c0-0.265,0.122-0.471,0.324-0.617
			c0.245-0.147,0.469-0.231,0.715-0.231c0.15,0,0.619,0.076,1.405,0.205c0.787,0.136,1.294,0.205,1.571,0.205
			c0.333,0,0.789-0.057,1.325-0.148c0.579-0.113,0.984-0.148,1.219-0.148c0.672,0,1.043,0.256,1.043,0.81
			c0,0.421-0.371,0.642-1.046,0.642c-0.569,0-1.008,0.101-1.273,0.281c-0.308,0.18-0.454,0.401-0.522,0.642
			c-0.069,0.262-0.104,0.581-0.104,0.979v16.984c0,1.131,0.137,2.014,0.368,2.608c0.265,0.638,0.367,1.1,0.367,1.472
			c0,0.348-0.127,0.543-0.464,0.543c-0.196,0-0.378-0.052-0.461-0.155c-0.125-0.061-0.313-0.285-0.521-0.59l-14.17-18.721
			c-0.142-0.192-0.285-0.278-0.411-0.278c-0.168,0-0.262,0.217-0.262,0.634v15.688c0,0.483,0.201,0.861,0.605,1.132
			c0.404,0.271,0.786,0.428,1.146,0.428c0.92,0,1.36,0.288,1.36,0.877c0,0.19-0.036,0.356-0.148,0.441
			c-0.092,0.126-0.333,0.189-0.705,0.189c-0.359,0-0.898-0.054-1.636-0.16c-0.718-0.082-1.196-0.117-1.397-0.117
			c-0.3,0-0.788,0.035-1.502,0.117c-0.692,0.106-1.139,0.16-1.318,0.16c-0.576,0-0.859-0.256-0.859-0.812
			c0-0.453,0.341-0.658,1.01-0.658c0.552,0,1.003-0.172,1.331-0.475c0.35-0.302,0.514-0.751,0.514-1.349V17.563
			c0-0.55-0.142-0.996-0.429-1.318c-0.292-0.342-0.646-0.502-1.072-0.502c-0.578,0-0.965-0.049-1.163-0.189
			c-0.191-0.119-0.298-0.313-0.298-0.584c0-0.458,0.297-0.697,0.874-0.697c0.091,0,0.352,0.035,0.761,0.083
			c0.408,0.069,0.742,0.104,1,0.104c0.205,0,0.449-0.035,0.735-0.104c0.265-0.048,0.503-0.083,0.696-0.083
			c0.321,0,0.726,0.266,1.216,0.8c0.469,0.527,2.128,2.673,4.936,6.438l7.51,10.009c0.139,0.173,0.271,0.241,0.354,0.241
			c0.277,0,0.374-0.298,0.374-0.893V17.289z"/>
		<path fill="#2F4F89" d="M215.531,35.768c0,0.573,0.192,0.997,0.617,1.356c0.426,0.385,0.941,0.562,1.507,0.562
			c0.374,0,0.785-0.16,1.285-0.438c0.501-0.277,0.854-0.438,1.062-0.438c0.25,0,0.354,0.153,0.354,0.418
			c0,0.316-0.403,0.724-1.253,1.222c-0.85,0.497-1.821,0.726-2.873,0.726c-0.83,0-1.545-0.24-2.143-0.762
			c-0.642-0.516-0.994-1.065-1.101-1.68c-0.064-0.639-0.118-2.969-0.118-7.003c0-0.539-0.573-0.936-1.678-1.19
			c-0.498-0.094-0.726-0.283-0.726-0.568c0-0.182,0.085-0.321,0.213-0.436c0.17-0.094,0.373-0.151,0.592-0.151
			c0.075,0,0.401,0.05,0.979,0.141c0.62,0.089,1.129,0.139,1.513,0.139c0.156,0,0.392-0.047,0.678-0.139
			c0.279-0.075,0.479-0.123,0.512-0.123c0.373,0,0.581,0.77,0.581,2.309V35.768z M221.131,29.972c0-0.818-0.438-1.283-1.334-1.413
			c-0.548-0.068-0.877-0.179-0.992-0.292c-0.144-0.133-0.22-0.281-0.22-0.463c0-0.428,0.317-0.643,0.993-0.643
			c0.147,0,0.486,0.066,1.018,0.177c0.531,0.131,1.062,0.188,1.675,0.188c0.134,0,0.354-0.016,0.577-0.066
			c0.223-0.05,0.387-0.075,0.449-0.075c0.299,0,0.469,0.34,0.469,1.042c0,5.206,0.05,7.971,0.108,8.307
			c0.101,0.362,0.567,0.618,1.4,0.801c0.435,0.128,0.688,0.243,0.801,0.345c0.092,0.06,0.127,0.18,0.127,0.32
			c0,0.123-0.062,0.276-0.27,0.416c-0.166,0.099-0.434,0.169-0.719,0.169c-0.139,0-0.438-0.044-0.937-0.111
			c-0.458-0.066-0.82-0.11-1.027-0.11c-0.197,0-0.487,0.044-0.785,0.11c-0.298,0.067-0.524,0.111-0.596,0.111
			c-0.277,0-0.425-0.076-0.525-0.184c-0.102-0.15-0.167-0.479-0.199-1.026c-0.014-0.504-0.014-1.556-0.014-3.066V29.972z"/>
		<path fill="#2F4F89" d="M232.574,30.422l0.076,0.485c0.063,0,0.315-0.553,0.801-1.636c0.465-1.072,0.924-1.836,1.399-2.296
			c0.476-0.439,0.97-0.669,1.441-0.669c0.387,0,0.712,0.058,0.891,0.207c0.221,0.131,0.289,0.281,0.289,0.45
			c0,0.309-0.053,0.55-0.185,0.726c-0.151,0.175-0.374,0.398-0.709,0.647c-1.475,1.106-2.505,2.433-3.133,4.001
			c-0.67,1.568-0.984,2.847-0.984,3.907c0,0.49,0.073,0.819,0.217,0.97c0.103,0.194,0.451,0.314,0.92,0.445
			c0.511,0.132,0.826,0.239,0.99,0.384c0.12,0.153,0.202,0.289,0.202,0.493c0,0.327-0.178,0.513-0.577,0.513
			c-0.31,0-0.756-0.057-1.337-0.17c-0.539-0.113-1.168-0.17-1.801-0.17c-0.437,0-0.879,0.057-1.328,0.17s-0.722,0.17-0.855,0.17
			c-0.314,0-0.557-0.067-0.771-0.201c-0.172-0.134-0.278-0.261-0.278-0.465c0-0.11,0.06-0.247,0.18-0.369
			c0.092-0.115,0.412-0.232,0.881-0.42c0.51-0.145,0.808-0.333,0.933-0.478c0.126-0.188,0.188-0.733,0.188-1.594v-5.166
			c0-0.32-0.085-0.624-0.255-0.891c-0.126-0.245-0.466-0.446-0.89-0.582c-0.467-0.155-0.764-0.269-0.821-0.384
			c-0.093-0.094-0.141-0.201-0.141-0.341c0-0.379,0.254-0.568,0.805-0.568c0.162,0,0.396,0.031,0.738,0.094
			c0.342,0.042,0.579,0.073,0.72,0.073c0.126,0,0.288-0.025,0.572-0.054c0.241-0.05,0.536-0.075,0.885-0.075
			c0.639,0,0.937,0.659,0.937,1.956V30.422z"/>
		<path fill="#2F4F89" d="M241.554,29.06c0,0.246,0.116,0.52,0.361,0.792c0.228,0.267,1.004,0.737,2.331,1.453
			c1.301,0.686,2.18,1.354,2.646,2.005c0.464,0.693,0.677,1.385,0.677,2.118c0,1.144-0.471,2.072-1.424,2.742
			c-0.971,0.669-2.181,1.005-3.7,1.005c-0.841,0-1.683-0.162-2.521-0.528c-0.839-0.365-1.259-0.749-1.259-1.138
			c0-0.311-0.025-0.688-0.075-1.146c-0.021-0.414-0.033-0.792-0.033-1.076c0-0.534,0.244-0.844,0.774-0.844
			c0.123,0,0.275,0.068,0.412,0.207c0.102,0.138,0.321,0.532,0.578,1.258c0.257,0.701,0.58,1.196,0.977,1.442
			c0.381,0.247,0.821,0.392,1.315,0.392c0.607,0,1.095-0.22,1.515-0.617c0.42-0.392,0.644-0.876,0.644-1.523
			c0-0.409-0.15-0.79-0.421-1.144c-0.313-0.353-1.084-0.826-2.312-1.42c-1.27-0.58-2.094-1.188-2.471-1.739
			c-0.377-0.589-0.587-1.212-0.587-1.869c0-0.894,0.413-1.631,1.239-2.233s1.8-0.892,2.88-0.892c0.896,0,1.773,0.154,2.645,0.461
			c0.869,0.329,1.306,0.658,1.306,1.01c0,0.217,0.024,0.492,0.048,0.801c0.034,0.31,0.061,0.571,0.061,0.763
			c0,0.243-0.059,0.454-0.158,0.634c-0.134,0.18-0.277,0.265-0.464,0.265c-0.251,0-0.457-0.058-0.578-0.193
			c-0.078-0.134-0.188-0.369-0.289-0.693c-0.1-0.325-0.22-0.595-0.443-0.789c-0.182-0.194-0.454-0.369-0.813-0.525
			c-0.331-0.156-0.707-0.245-1.126-0.245s-0.815,0.126-1.191,0.4C241.721,28.468,241.554,28.743,241.554,29.06z"/>
		<path fill="#2F4F89" d="M254.218,35.97c0,0.573,0.113,0.934,0.297,1.122c0.227,0.146,0.485,0.269,0.82,0.325
			s0.602,0.093,0.716,0.195c0.158,0.102,0.236,0.285,0.236,0.587c0,0.379-0.323,0.547-1.012,0.547c-0.272,0-0.702-0.038-1.247-0.073
			c-0.588-0.073-1.012-0.11-1.271-0.11c-0.261,0-0.659,0.05-1.196,0.11c-0.537,0.099-0.93,0.148-1.177,0.148
			s-0.496-0.082-0.662-0.206c-0.208-0.165-0.298-0.339-0.298-0.606c0-0.123,0.043-0.267,0.156-0.387
			c0.113-0.113,0.359-0.177,0.782-0.252c0.423-0.076,0.704-0.227,0.887-0.409c0.14-0.226,0.23-0.688,0.23-1.468v-5.746
			c0-0.477-0.103-0.813-0.297-0.966c-0.208-0.154-0.517-0.286-0.914-0.353c-0.397-0.088-0.629-0.18-0.735-0.32
			c-0.104-0.119-0.118-0.27-0.118-0.452c0-0.208,0.049-0.374,0.232-0.518c0.176-0.128,0.357-0.193,0.567-0.193
			c0.215,0,0.478,0.039,0.833,0.133c0.354,0.073,0.648,0.121,0.795,0.121c0.215,0,0.499-0.035,0.898-0.083
			c0.399-0.069,0.685-0.104,0.899-0.104c0.424,0,0.615,0.348,0.615,1.063c0,0.104-0.007,0.25-0.02,0.436
			c-0.013,0.186-0.019,0.327-0.019,0.381V35.97z M252.852,21.238c0.49,0,0.945,0.189,1.321,0.565
			c0.378,0.377,0.587,0.832,0.587,1.343c0,0.471-0.206,0.863-0.577,1.177c-0.37,0.314-0.815,0.488-1.294,0.488
			c-0.521,0-0.963-0.193-1.327-0.545c-0.364-0.351-0.567-0.781-0.567-1.268c0-0.483,0.203-0.897,0.567-1.242
			S252.355,21.238,252.852,21.238z"/>
		<path fill="#2F4F89" d="M260.345,29.766c0-0.421-0.065-0.728-0.23-0.938c-0.183-0.211-0.521-0.356-1.014-0.457
			c-0.535-0.079-0.782-0.318-0.782-0.696c0-0.157,0.058-0.332,0.26-0.483c0.16-0.151,0.425-0.237,0.71-0.237
			c0.14,0,0.339,0.044,0.645,0.132c0.345,0.067,0.591,0.111,0.775,0.111c0.139,0,0.415-0.038,0.871-0.092
			c0.455-0.075,0.726-0.113,0.852-0.113c0.21,0,0.387,0.104,0.487,0.29c0.088,0.186,0.115,0.562,0.128,1.126
			c0.025,0.938,0.037,1.944,0.037,2.998l-0.077,4.864c0,0.348,0.002,0.544,0.059,0.632c0.063,0.088,0.211,0.201,0.4,0.296
			c0.232,0.14,0.489,0.246,0.811,0.31c0.322,0.045,0.555,0.149,0.654,0.283c0.06,0.105,0.11,0.247,0.11,0.426
			c0,0.379-0.286,0.547-0.884,0.547c-0.385,0-0.808-0.041-1.243-0.092c-0.438-0.07-0.867-0.11-1.291-0.11
			c-0.336,0-0.781,0.034-1.337,0.104c-0.515,0.026-0.916,0.062-1.164,0.062c-0.6,0-0.879-0.194-0.879-0.623
			c0-0.203,0.057-0.326,0.128-0.453c0.113-0.128,0.356-0.162,0.693-0.188c0.384-0.025,0.606-0.088,0.707-0.188
			c0.246-0.258,0.429-0.521,0.504-0.705c0.033-0.224,0.07-0.612,0.07-1.265V29.766z M270.764,36.31c0,0.455,0.084,0.811,0.267,0.938
			c0.14,0.17,0.467,0.266,0.88,0.372c0.404,0.107,0.638,0.278,0.638,0.56c0,0.354-0.233,0.511-0.638,0.511
			c-0.065,0-0.401-0.017-1.026-0.023c-0.583-0.044-1.102-0.066-1.513-0.066c-0.671,0-1.265,0.047-1.713,0.099
			c-0.458,0.095-0.773,0.142-0.9,0.142c-0.228,0-0.396-0.076-0.592-0.187c-0.152-0.152-0.25-0.337-0.25-0.511
			c0-0.167,0.082-0.279,0.203-0.426c0.163-0.146,0.352-0.208,0.523-0.208c0.359,0,0.675-0.086,0.989-0.317
			c0.271-0.189,0.401-0.495,0.401-0.918c0-2.726,0.006-4.428,0.041-5.064c0.038-0.677,0.057-1.02,0.057-1.108
			c0-0.873-0.407-1.319-1.221-1.319c-0.344,0-0.813,0.274-1.485,0.801c-0.633,0.528-1.099,0.802-1.355,0.802
			c-0.1,0-0.213-0.063-0.294-0.17c-0.126-0.127-0.188-0.24-0.188-0.362c0-0.401,0.534-1.014,1.561-1.833s2.069-1.23,3.046-1.23
			c0.609,0,1.09,0.157,1.523,0.458c0.435,0.291,0.708,0.668,0.865,1.126c0.156,0.46,0.192,1.092,0.192,1.918l-0.012,1.081V36.31z"/>
		<path fill="#2F4F89" d="M285.685,34.012l0.057,0.032c1.12,0.562,2.044,1.332,2.729,2.312c0.685,1.021,1.026,2.083,1.026,3.226
			c0,1.768-0.782,3.186-2.347,4.297c-1.564,1.11-3.396,1.688-5.53,1.688c-2.162,0-4.002-0.596-5.522-1.744
			c-1.521-1.149-2.281-2.649-2.281-4.499c0-1.08,0.354-2.127,1.064-3.057c0.709-0.971,1.664-1.686,2.823-2.184l0.071-0.09
			l-0.109-0.188c-0.59-0.347-1.044-0.815-1.362-1.365c-0.318-0.591-0.498-1.202-0.498-1.908c0-1.073,0.489-1.997,1.467-2.709
			c0.936-0.713,2.157-1.169,3.623-1.349c0.201-0.025,0.32-0.11,0.392-0.279c0.264-0.536,0.663-1.132,1.2-1.769
			c0.579-0.653,1.059-1.042,1.517-1.165c0.46-0.144,1.235-0.194,2.327-0.194c0.673,0,0.988,0.326,0.988,0.977
			c0,0.395-0.176,0.726-0.486,0.965c-0.31,0.234-0.721,0.368-1.231,0.368c-0.106,0-0.241-0.019-0.43-0.057
			c-0.146-0.038-0.304-0.057-0.43-0.057c-0.532,0-1.006,0.148-1.379,0.466c-0.373,0.297-0.579,0.502-0.579,0.616
			c0,0.104,0.08,0.167,0.243,0.167c1.342,0.167,2.458,0.628,3.243,1.403c0.791,0.775,1.195,1.745,1.195,2.913
			c0,1.244-0.535,2.233-1.647,3.015L285.685,34.012z M281.617,44.101c1.463,0,2.697-0.396,3.685-1.253
			c0.982-0.856,1.494-1.96,1.494-3.352c0-1.362-0.5-2.453-1.456-3.271c-0.999-0.82-2.198-1.229-3.721-1.229
			c-1.596,0-2.867,0.412-3.778,1.238c-0.876,0.825-1.324,1.938-1.324,3.338c0,1.379,0.503,2.467,1.595,3.306
			C279.163,43.712,280.333,44.101,281.617,44.101z M281.767,33.653c0.89,0,1.634-0.293,2.23-0.88
			c0.639-0.63,0.938-1.352,0.938-2.207c0-0.453-0.163-0.908-0.446-1.348c-0.282-0.454-0.662-0.781-1.139-1.005
			c-0.476-0.224-0.78-0.325-0.955-0.325c-0.046,0-0.102,0.036-0.127,0.148c-0.15,0.515-0.427,0.783-0.871,0.783
			c-0.396,0-0.572-0.224-0.572-0.672c0-0.117-0.056-0.186-0.168-0.186c-0.176,0-0.43,0.11-0.807,0.309
			c-0.376,0.198-0.69,0.52-0.961,0.986c-0.274,0.445-0.379,0.97-0.379,1.535c0,0.806,0.327,1.478,0.979,2.057
			C280.142,33.386,280.9,33.653,281.767,33.653z"/>
		<path fill="#2F4F89" d="M309.816,37.237c0.423,0,0.787-0.109,1.091-0.285c0.304-0.218,0.546-0.618,0.651-1.326
			c0.146-0.665,0.299-1.076,0.458-1.219c0.188-0.126,0.372-0.205,0.616-0.205c0.166,0,0.36,0.101,0.52,0.26
			c0.201,0.2,0.26,0.429,0.26,0.726c0,1.009,0.075,1.975,0.226,2.983c0,0.594-0.284,0.889-0.896,0.839
			c-0.385-0.051-0.96-0.075-1.768-0.075H297.73c-1.029,0-1.564-0.262-1.564-0.811c0-0.351,0.104-0.603,0.269-0.668
			c0.207-0.107,0.482-0.168,0.867-0.181c0.731-0.05,1.199-0.225,1.374-0.565c0.185-0.363,0.285-0.752,0.285-1.184V17.68
			c0-0.422-0.113-0.798-0.297-1.126c-0.227-0.329-0.678-0.612-1.353-0.83c-0.677-0.217-1.092-0.411-1.249-0.602
			c-0.117-0.184-0.193-0.39-0.193-0.615c0-0.148,0.076-0.273,0.239-0.396c0.188-0.143,0.371-0.193,0.614-0.193
			c0.154,0,0.535,0.095,1.164,0.306c0.586,0.211,1.245,0.313,1.976,0.313c0.931,0,1.806-0.114,2.624-0.351
			c0.818-0.231,1.317-0.344,1.581-0.344c0.246,0,0.457,0.103,0.677,0.287c0.178,0.184,0.287,0.39,0.287,0.602
			c0,0.194-0.066,0.362-0.156,0.484c-0.131,0.122-0.432,0.25-0.941,0.34c-0.621,0.139-1.073,0.306-1.362,0.523
			c-0.421,0.372-0.65,0.991-0.65,1.899v17.005c0,0.858,0.147,1.427,0.401,1.75c0.253,0.363,0.642,0.503,1.166,0.503H309.816z"/>
		<path fill="#2F4F89" d="M319.841,35.97c0,0.573,0.113,0.934,0.297,1.122c0.227,0.146,0.485,0.269,0.82,0.325
			c0.334,0.057,0.577,0.093,0.716,0.195c0.157,0.102,0.236,0.285,0.236,0.587c0,0.379-0.365,0.547-1.012,0.547
			c-0.272,0-0.703-0.038-1.285-0.073c-0.551-0.073-0.974-0.11-1.233-0.11c-0.303,0-0.701,0.05-1.196,0.11
			c-0.537,0.099-0.93,0.148-1.177,0.148c-0.272,0-0.497-0.082-0.675-0.206c-0.195-0.165-0.299-0.339-0.299-0.606
			c0-0.123,0.057-0.267,0.17-0.387c0.112-0.113,0.359-0.177,0.782-0.252c0.422-0.076,0.704-0.227,0.886-0.409
			c0.14-0.226,0.231-0.688,0.231-1.468v-5.746c0-0.477-0.113-0.813-0.297-0.966c-0.227-0.154-0.518-0.286-0.914-0.353
			c-0.398-0.088-0.63-0.18-0.735-0.32c-0.107-0.119-0.16-0.27-0.16-0.452c0-0.208,0.091-0.374,0.273-0.518
			c0.141-0.128,0.358-0.193,0.568-0.193c0.215,0,0.478,0.039,0.832,0.133c0.355,0.073,0.615,0.121,0.796,0.121
			c0.192,0,0.499-0.035,0.898-0.083c0.398-0.069,0.685-0.104,0.856-0.104c0.424,0,0.658,0.348,0.658,1.063
			c0,0.104-0.007,0.25-0.02,0.436c-0.013,0.186-0.019,0.327-0.019,0.381V35.97z M318.436,21.238c0.529,0,0.984,0.189,1.36,0.565
			c0.377,0.377,0.585,0.832,0.585,1.343c0,0.471-0.204,0.863-0.575,1.177c-0.37,0.314-0.815,0.488-1.337,0.488
			c-0.479,0-0.92-0.193-1.284-0.545c-0.364-0.351-0.567-0.781-0.567-1.268c0-0.483,0.203-0.897,0.567-1.242
			S317.979,21.238,318.436,21.238z"/>
		<path fill="#2F4F89" d="M326.005,29.767c0-0.409-0.135-0.718-0.362-0.948c-0.232-0.23-0.488-0.334-0.697-0.334
			c-0.682,0-1.047-0.214-1.047-0.643c0-0.504,0.271-0.736,0.738-0.736c0.143,0,0.402,0.032,0.787,0.111
			c0.395,0.088,0.723,0.115,0.907,0.115c0.263,0,0.572-0.021,0.852-0.096c0.279-0.076,0.497-0.098,0.569-0.098
			c0.339,0,0.523,0.07,0.637,0.218c0.114,0.169,0.154,0.773,0.204,1.873c0.051,1.08,0.076,2.354,0.076,3.78l-0.038,2.948
			c0,0.528,0.034,0.849,0.104,0.992c0.069,0.145,0.184,0.243,0.41,0.382c0.19,0.139,0.463,0.184,0.735,0.222
			c0.271,0.037,0.501,0.098,0.604,0.181c0.144,0.083,0.217,0.216,0.217,0.483c0,0.404-0.279,0.585-0.879,0.585
			c-0.424,0-0.854-0.048-1.29-0.13c-0.396-0.063-0.825-0.11-1.248-0.11c-0.337,0-0.757,0.047-1.263,0.11
			c-0.505,0.082-0.876,0.13-1.11,0.13c-0.646,0-0.974-0.161-0.974-0.527c0-0.306,0.065-0.464,0.197-0.56
			c0.128-0.096,0.332-0.165,0.642-0.207c0.31-0.003,0.596-0.104,0.772-0.261c0.22-0.126,0.316-0.318,0.373-0.527
			c0.057-0.25,0.084-0.722,0.084-1.415V29.767z M333.735,29.73c0-0.254-0.122-0.459-0.324-0.642c-0.243-0.173-0.468-0.25-0.713-0.25
			c-0.584,0-1.237,0.312-2.004,0.957c-0.459,0.393-0.78,0.589-1.001,0.589c-0.287,0-0.408-0.145-0.408-0.392
			c0-0.577,0.504-1.258,1.557-2.022c1.085-0.763,2.017-1.145,2.875-1.145c0.719,0,1.381,0.265,1.899,0.773
			c0.561,0.509,0.82,1.12,0.82,1.836l-0.038,6.875c0,0.347,0.132,0.628,0.354,0.843c0.264,0.258,0.535,0.356,0.857,0.356
			c0.598,0,0.877,0.243,0.877,0.71c0,0.403-0.292,0.584-0.916,0.584c-0.076,0-0.409-0.041-0.998-0.122
			c-0.632-0.04-1.11-0.081-1.521-0.081c-0.707,0-1.266,0.047-1.74,0.099c-0.474,0.095-0.766,0.142-0.916,0.142
			c-0.185,0-0.375-0.073-0.511-0.177c-0.171-0.146-0.255-0.335-0.255-0.522c0-0.314,0.219-0.493,0.617-0.493
			c0.359,0,0.694-0.128,1.004-0.343c0.318-0.215,0.485-0.571,0.485-1.03V29.73z M341.503,29.73c0-0.254-0.123-0.459-0.325-0.642
			c-0.242-0.173-0.467-0.25-0.713-0.25c-0.458,0-1.033,0.244-1.68,0.773c-0.648,0.508-1.091,0.773-1.328,0.773
			c-0.108,0-0.243-0.047-0.362-0.142c-0.076-0.073-0.136-0.183-0.136-0.287c0-0.502,0.486-1.152,1.489-1.928
			c0.979-0.776,2.019-1.164,3.035-1.164c1.205,0,2.032,0.496,2.479,1.508c0.134,0.317,0.222,1.987,0.222,5.029l-0.038,2.908
			c0,0.359,0.106,0.618,0.281,0.813c0.21,0.166,0.495,0.311,0.893,0.387c0.397,0.058,0.654,0.162,0.717,0.283
			c0.095,0.105,0.142,0.222,0.142,0.388c0,0.43-0.267,0.623-0.842,0.623c-0.088,0-0.424-0.041-1.007-0.122
			c-0.626-0.04-1.107-0.081-1.531-0.081s-0.889,0.047-1.395,0.099c-0.484,0.095-0.878,0.142-1.242,0.142
			c-0.185,0-0.384-0.073-0.511-0.177c-0.171-0.146-0.256-0.335-0.256-0.521c0-0.353,0.292-0.579,0.792-0.633
			c0.542-0.017,0.887-0.17,1.074-0.387c0.146-0.242,0.241-0.514,0.241-0.848V29.73z"/>
		<path fill="#2F4F89" d="M352.791,35.97c0,0.573,0.113,0.934,0.297,1.122c0.225,0.146,0.485,0.269,0.82,0.325
			c0.334,0.057,0.596,0.093,0.716,0.195c0.157,0.102,0.236,0.285,0.236,0.587c0,0.379-0.353,0.547-1.012,0.547
			c-0.272,0-0.703-0.038-1.29-0.073c-0.546-0.073-0.97-0.11-1.229-0.11c-0.303,0-0.697,0.05-1.196,0.11
			c-0.537,0.099-0.93,0.148-1.177,0.148c-0.281,0-0.497-0.082-0.662-0.206c-0.208-0.165-0.312-0.339-0.312-0.606
			c0-0.123,0.057-0.267,0.17-0.387c0.112-0.113,0.359-0.177,0.781-0.252c0.423-0.076,0.705-0.227,0.887-0.409
			c0.14-0.226,0.231-0.688,0.231-1.468v-5.746c0-0.477-0.113-0.813-0.297-0.966c-0.227-0.154-0.518-0.286-0.914-0.353
			c-0.398-0.088-0.63-0.18-0.736-0.32c-0.106-0.119-0.159-0.27-0.159-0.452c0-0.208,0.091-0.374,0.273-0.518
			c0.141-0.128,0.358-0.193,0.568-0.193c0.214,0,0.478,0.039,0.833,0.133c0.354,0.073,0.607,0.121,0.795,0.121
			c0.211,0,0.499-0.035,0.898-0.083c0.398-0.069,0.685-0.104,0.869-0.104c0.411,0,0.646,0.348,0.646,1.063
			c0,0.104-0.007,0.25-0.02,0.436c-0.013,0.186-0.019,0.327-0.019,0.381V35.97z M351.404,21.238c0.511,0,0.966,0.189,1.342,0.565
			c0.377,0.377,0.574,0.832,0.574,1.343c0,0.471-0.193,0.863-0.564,1.177c-0.371,0.314-0.815,0.488-1.336,0.488
			c-0.479,0-0.921-0.193-1.285-0.545c-0.364-0.351-0.567-0.781-0.567-1.268c0-0.483,0.203-0.897,0.567-1.242
			S350.929,21.238,351.404,21.238z"/>
		<path fill="#2F4F89" d="M361.543,34.872c0,0.971,0.05,1.562,0.149,1.856c0.1,0.253,0.236,0.394,0.497,0.394
			c0.367,0,0.828-0.219,1.34-0.629c0.553-0.41,0.911-0.594,1.074-0.594c0.167,0,0.314,0.059,0.4,0.187
			c0.128,0.153,0.192,0.296,0.192,0.512c0,0.315-0.451,0.854-1.353,1.573c-0.86,0.719-1.646,1.079-2.353,1.079
			c-1.778,0-2.687-1.328-2.687-3.942v-6.526c0-0.217-0.031-0.324-0.059-0.343c-0.057-0.019-0.367-0.028-0.964-0.028
			c-0.461,0-0.758-0.073-0.934-0.198c-0.134-0.125-0.221-0.317-0.221-0.576c0-0.221,0.065-0.371,0.196-0.473
			c0.091-0.081,0.348-0.185,0.689-0.271c0.341-0.106,0.594-0.211,0.802-0.335c0.164-0.144,0.435-0.403,0.781-0.819
			c0.329-0.417,0.55-0.997,0.707-1.742c0.132-0.745,0.194-1.833,0.194-3.243c0-0.657,0.202-0.985,0.567-0.985
			c0.415,0,0.659,0.083,0.772,0.269c0.114,0.186,0.146,0.511,0.146,0.94v5.682c0,0.23,0.146,0.334,0.432,0.334h2.423
			c0.497,0,0.726,0.215,0.726,0.643c0,0.484-0.348,0.736-1.042,0.736h-2.145c-0.134,0-0.24,0.028-0.278,0.085
			c-0.037,0.039-0.057,0.177-0.057,0.381V34.872z"/>
		<path fill="#2F4F89" d="M377.354,32.006c0.253,0,0.417-0.05,0.506-0.149c0.101-0.099,0.15-0.239,0.15-0.499
			c0-0.834-0.331-1.667-1.019-2.418c-0.681-0.75-1.682-1.125-3.063-1.125c-0.916,0-1.908,0.454-2.895,1.339
			c-1.018,0.894-1.498,2.152-1.498,3.791c0,1.203,0.501,2.271,1.59,3.246c1.045,0.933,2.232,1.421,3.539,1.421
			c0.999,0,2.063-0.304,3.217-0.91c0.446-0.264,0.724-0.354,0.874-0.354c0.184,0,0.362,0.022,0.494,0.149
			c0.089,0.128,0.155,0.245,0.155,0.437c0,0.416-0.609,0.93-1.871,1.498c-1.262,0.611-2.521,0.896-3.864,0.896
			c-1.963,0-3.622-0.657-4.936-2.014c-1.355-1.354-2.012-2.908-2.012-4.788c0-1.663,0.729-3.115,2.187-4.32
			c1.475-1.205,3.114-1.807,4.967-1.807c2.344,0,4.128,0.608,5.308,1.826c1.18,1.217,1.749,2.676,1.749,4.339
			c0,0.359-0.066,0.607-0.259,0.683c-0.2,0.071-0.529,0.118-0.992,0.118h-7.781c-0.66,0-0.97-0.218-0.97-0.697
			c0-0.454,0.322-0.66,0.998-0.66H377.354z"/>
		<path fill="#2F4F89" d="M395.78,34.912c0,0.572,0.125,1.05,0.335,1.516c0.25,0.467,0.633,0.792,1.229,1.018
			c0.585,0.184,0.941,0.348,1.004,0.449c0.101,0.061,0.151,0.175,0.151,0.303c0,0.476-0.248,0.737-0.785,0.737
			c-0.188,0-0.411-0.051-0.709-0.15c-0.299-0.101-0.697-0.111-1.197-0.111c-0.324,0-0.682,0.011-1.074,0.111
			c-0.392,0.1-0.667,0.15-0.737,0.15c-0.239,0-0.398-0.089-0.563-0.262c-0.154-0.136-0.214-0.318-0.232-0.465
			c-0.019-0.188-0.06-0.282-0.123-0.282l-0.258,0.132c-1.738,0.996-3.176,1.452-4.353,1.452c-1.688,0-3.19-0.626-4.508-1.919
			c-1.36-1.25-2.019-2.75-2.019-4.374c0-1.912,0.667-3.466,2.028-4.696c1.354-1.209,2.935-1.824,4.718-1.824
			c0.756,0,1.537,0.188,2.343,0.564c0.807,0.376,1.209,0.799,1.209,1.247c0,0.163-0.06,0.279-0.15,0.376
			c-0.104,0.105-0.239,0.162-0.365,0.162c-0.171,0-0.563-0.154-1.182-0.42c-0.622-0.287-1.167-0.42-1.701-0.42
			c-1.14,0-2.127,0.484-2.919,1.438c-0.794,0.932-1.175,2.064-1.175,3.396c0,1.119,0.365,2.226,1.095,3.319
			c0.711,1.137,1.672,1.663,2.925,1.663c0.655,0,1.42-0.162,2.295-0.527c0.874-0.371,1.436-0.877,1.664-1.531
			c0.221-0.611,0.353-1.555,0.353-2.835V18.516c0-0.936-0.176-1.595-0.484-1.954c-0.311-0.359-0.776-0.64-1.358-0.819
			c-0.624-0.18-0.989-0.31-1.098-0.412c-0.15-0.081-0.226-0.226-0.226-0.434c0-0.165,0.094-0.288,0.261-0.388
			c0.169-0.121,0.391-0.164,0.731-0.164c0.097,0,0.393,0.014,0.804,0.077c0.385,0.063,0.734,0.094,0.97,0.094
			c0.537,0,0.968-0.025,1.37-0.076c0.369-0.05,0.599-0.075,0.686-0.075c0.412,0,0.672,0.128,0.823,0.365
			c0.109,0.215,0.185,0.549,0.185,0.958c0,0.744,0.007,1.346,0.02,1.785c0.012,0.46,0.019,0.863,0.019,1.21V34.912z"/>
	</g>
	<g>
		<path fill="#7B5980" d="M42.131,12.375C4.274,10.573,11.789,40.146,11.789,40.146c-0.89,2.261-2.769,0.607-2.769,0.607
			c-0.427-4.957,0.894-13.478,0.894-13.478c1.044-5.981-0.061-5.473-0.061-5.473c-0.639-0.106-6.125,7.831-6.125,7.831
			C1.606,32.43,1.5,29.784,1.5,29.784C7.251,15.96,26.763,4.137,26.763,4.137c7.562-5.41,5.389-1.446,5.389-1.446
			c-9.546,8.076-9.546,8.076-9.546,8.076c0.506-0.097,5.42-0.236,10.919-0.311c0,0,2.576-0.035,6.743-0.333
			c2.997-0.208,3.323,0.884,3.006,1.63c-0.142,0.331-0.552,0.532-0.552,0.532"/>
	</g>
	<g>
		<path fill="#4A8B92" d="M19.013,48.46c37.857,1.823,30.343-27.75,30.343-27.75c0.897-2.282,2.769-0.629,2.769-0.629
			c0.427,4.958-0.894,13.5-0.894,13.5c-1.044,5.961,0.062,5.472,0.062,5.472c0.639,0.085,6.132-7.832,6.132-7.832
			c2.113-2.793,2.219-0.169,2.219-0.169c-5.751,13.824-25.263,25.646-25.263,25.646c-7.562,5.41-5.389,1.445-5.389,1.445
			c9.547-8.075,9.547-8.075,9.547-8.075c-0.506,0.108-5.42,0.25-10.92,0.315c0,0-2.567,0.03-6.742,0.308
			c-2.995,0.229-3.323-0.841-2.998-1.586c0.134-0.353,0.543-0.555,0.543-0.555"/>
	</g>
	<path fill="#7B5980" d="M41.822,5.501c0,1.571-1.961,2.834-4.368,2.834c-2.426,0-4.387-1.263-4.387-2.834s1.961-2.832,4.387-2.832
		C39.86,2.669,41.822,3.93,41.822,5.501z"/>
	<path fill="#4A8B92" d="M25.14,56.709c0,1.57-1.961,2.855-4.367,2.855c-2.427,0-4.388-1.285-4.388-2.855s1.961-2.853,4.388-2.853
		C23.179,53.856,25.14,55.139,25.14,56.709z"/>
</g>
</svg>
