<svg xmlns="http://www.w3.org/2000/svg" id="Layer_1" data-name="Layer 1" viewBox="0 0 235.4 273.65"><defs><style>      .cls-1 {        fill: #1e274a;      }      .cls-2 {        fill: #62c1c4;      }    </style></defs><path class="cls-1" d="M123.09,2.46c6.33,1.92,5.83,10.73-.87,11.48-2.51.28-5.5.05-8.12.27-41.49,3.51-74.66,37.88-77.56,79.25-.55,7.79.76,15.09-.89,22.85-3.24,15.26-12.87,29.63-20.7,42.86-.03.47,1.73,1.06,2.16,1.19,4.77,1.41,11.37,1.64,15.82,3.36,2.01.78,3.41,2.62,3.61,4.78.82,13.65-1.14,28.69.02,42.18.48,5.55,4.28,9.73,9.91,10.23,16.87-.63,34.29.8,51.09,0,5.87-.28,15.7-1.8,20.36-5.53,2.55-2.04,2.83-5.17,6.72-5.5,5.67-.49,7.82,5.07,5.1,9.66-5.36,9.05-20.45,12.21-30.16,12.64.87,10.93,2.63,21.8,3.6,32.73-.89,6.61-10.01,7.04-11.45.42l-3.89-32.91-43-.03c-10.86-1.28-19.25-10.26-19.81-21.19l-.02-37.51c-5.93-1.38-13.5-1.68-18.12-6.09-8.76-8.35.68-18.01,5.14-25.74s9.42-16.96,11.73-25.44.64-17.58,1.51-26.55C29.8,43.13,68.75,5.07,115.8,2.71l.58-.25h6.71Z"></path><path class="cls-1" d="M232.9,56.18c.16,2.46.16,5.93,0,8.39-2.71,42.31-51.28,66.36-87.01,43.26-37.68-24.36-33.11-81.28,7.97-99.17,35.31-15.38,76.57,9,79.04,47.52ZM174.11,15.48c-35.26,1.89-54.71,42.33-34.09,71.12,19.99,27.9,62.89,23.77,77.26-7.32,14.18-30.68-9.57-65.6-43.17-63.8Z"></path><path class="cls-1" d="M206.71,124.58c2.33-.3,4.83.95,5.94,3.04,1.37,2.55.24,4.83-.67,7.27-4.73,12.72-13.26,24.52-22.73,34.09l-.25.73,12.26,93.27c1.16,6.96-7.68,9.91-10.92,3.73l-13.31-100.1c.19-3.01,2.19-3.84,3.96-5.64,6.81-6.92,12.82-14.61,17.18-23.34,1.44-2.89,3.08-8.46,4.65-10.7.82-1.16,2.46-2.17,3.88-2.35Z"></path><path class="cls-2" d="M154.68,32.73c3.03-.52,5.43,1.04,6.24,3.96.6,10.37-.6,21.3.05,31.6.68,10.89,7.71,17.08,18.76,15.15,8.19-1.43,11.03-8.08,11.45-15.64.57-10.28-.46-21.03.06-31.35,1.82-5.56,9.69-4.94,10.26,1.13-1.24,21.05,7.32,54.16-23.62,55.77-34.39,1.79-26.41-33.35-27.19-55.97.24-2.14,1.77-4.27,3.99-4.64Z"></path></svg>